IBM Plex Sans-Bold.ufo
<glyph name="parenright" format="1">
  <advance width="338"/>
  <unicode hex="0029"/>
  <outline>
    <contour>
      <point x="301" y="312" type="curve" smooth="yes" name="hr00"/>
      <point x="301" y="505"/>
      <point x="226" y="673"/>
      <point x="126" y="760" type="curve"/>
      <point x="-13" y="760" type="line"/>
      <point x="94" y="660"/>
      <point x="161" y="516"/>
      <point x="161" y="346" type="curve" smooth="yes"/>
      <point x="161" y="276" type="line" smooth="yes"/>
      <point x="161" y="100"/>
      <point x="93" y="-41"/>
      <point x="-13" y="-138" type="curve"/>
      <point x="127" y="-138" type="line"/>
      <point x="224" y="-54"/>
      <point x="301" y="117"/>
    </contour>
  </outline>
</glyph>
<glyph name="comma" format="1">
  <advance width="310"/>
  <unicode hex="002C"/>
  <outline>
    <contour>
      <point x="155" y="169" type="curve" smooth="yes" name=""/>
      <point x="95" y="169"/>
      <point x="67" y="135"/>
      <point x="67" y="89" type="curve" smooth="yes"/>
      <point x="67" y="69" type="line" smooth="yes"/>
      <point x="67" y="30"/>
      <point x="88" y="-1"/>
      <point x="134" y="-9" type="curve"/>
      <point x="117" y="-62"/>
      <point x="83" y="-103"/>
      <point x="36" y="-147" type="curve"/>
      <point x="136" y="-147" type="line"/>
      <point x="200" y="-98"/>
      <point x="243" y="-12"/>
      <point x="243" y="69" type="curve" smooth="yes"/>
      <point x="243" y="89" type="line" smooth="yes"/>
      <point x="243" y="135"/>
      <point x="215" y="169"/>
    </contour>
  </outline>
</glyph>
<glyph name="question" format="1">
  <advance width="500"/>
  <unicode hex="003F"/>
  <outline>
    <contour>
      <point x="298" y="233" type="line"/>
      <point x="298" y="305" type="line"/>
      <point x="392" y="320"/>
      <point x="473" y="392"/>
      <point x="473" y="504" type="curve" smooth="yes"/>
      <point x="473" y="626"/>
      <point x="380" y="710"/>
      <point x="240" y="710" type="curve" smooth="yes"/>
      <point x="104" y="710"/>
      <point x="37" y="630"/>
      <point x="14" y="550" type="curve"/>
      <point x="136" y="499" type="line"/>
      <point x="148" y="548"/>
      <point x="183" y="584"/>
      <point x="235" y="584" type="curve" smooth="yes"/>
      <point x="283" y="584"/>
      <point x="316" y="557"/>
      <point x="316" y="506" type="curve" smooth="yes"/>
      <point x="316" y="492" type="line" smooth="yes"/>
      <point x="316" y="418"/>
      <point x="263" y="390"/>
      <point x="158" y="386" type="curve"/>
      <point x="158" y="233" type="line"/>
    </contour>
    <contour>
      <point x="230" y="-12" type="curve" smooth="yes"/>
      <point x="293" y="-12"/>
      <point x="319" y="21"/>
      <point x="319" y="64" type="curve" smooth="yes" name="hr01"/>
      <point x="319" y="88" type="line" smooth="yes"/>
      <point x="319" y="131"/>
      <point x="293" y="164"/>
      <point x="230" y="164" type="curve" smooth="yes"/>
      <point x="167" y="164"/>
      <point x="141" y="131"/>
      <point x="141" y="88" type="curve" smooth="yes"/>
      <point x="141" y="64" type="line" smooth="yes"/>
      <point x="141" y="21"/>
      <point x="167" y="-12"/>
    </contour>
  </outline>
</glyph>
<glyph name="at" format="1">
  <advance width="903"/>
  <unicode hex="0040"/>
  <outline>
    <contour>
      <point x="672" y="-33" type="line" name="hr00"/>
      <point x="462" y="-33" type="line" smooth="yes"/>
      <point x="274" y="-33"/>
      <point x="154" y="90"/>
      <point x="154" y="272" type="curve" smooth="yes"/>
      <point x="154" y="310" type="line" smooth="yes"/>
      <point x="154" y="492"/>
      <point x="274" y="622"/>
      <point x="462" y="622" type="curve" smooth="yes"/>
      <point x="632" y="622"/>
      <point x="753" y="519"/>
      <point x="753" y="348" type="curve" smooth="yes"/>
      <point x="753" y="320" type="line" smooth="yes"/>
      <point x="753" y="218"/>
      <point x="722" y="170"/>
      <point x="677" y="170" type="curve" smooth="yes"/>
      <point x="649" y="170"/>
      <point x="633" y="187"/>
      <point x="633" y="220" type="curve" smooth="yes"/>
      <point x="633" y="489" type="line"/>
      <point x="522" y="489" type="line"/>
      <point x="522" y="420" type="line"/>
      <point x="517" y="420" type="line"/>
      <point x="505" y="464"/>
      <point x="469" y="498"/>
      <point x="414" y="498" type="curve" smooth="yes"/>
      <point x="326" y="498"/>
      <point x="260" y="427"/>
      <point x="260" y="291" type="curve" smooth="yes"/>
      <point x="260" y="155"/>
      <point x="326" y="84"/>
      <point x="414" y="84" type="curve" smooth="yes"/>
      <point x="480" y="84"/>
      <point x="516" y="121"/>
      <point x="529" y="176" type="curve"/>
      <point x="534" y="176" type="line"/>
      <point x="538" y="120"/>
      <point x="587" y="82"/>
      <point x="659" y="82" type="curve" smooth="yes"/>
      <point x="773" y="82"/>
      <point x="846" y="176"/>
      <point x="846" y="335" type="curve" smooth="yes"/>
      <point x="846" y="563"/>
      <point x="692" y="709"/>
      <point x="462" y="709" type="curve" smooth="yes"/>
      <point x="215" y="709"/>
      <point x="61" y="535"/>
      <point x="61" y="291" type="curve" smooth="yes"/>
      <point x="61" y="47"/>
      <point x="209" y="-121"/>
      <point x="462" y="-121" type="curve" smooth="yes"/>
      <point x="672" y="-121" type="line"/>
    </contour>
    <contour>
      <point x="455" y="175" type="curve" smooth="yes"/>
      <point x="407" y="175"/>
      <point x="376" y="209"/>
      <point x="376" y="257" type="curve" smooth="yes"/>
      <point x="376" y="325" type="line" smooth="yes"/>
      <point x="376" y="373"/>
      <point x="407" y="407"/>
      <point x="455" y="407" type="curve" smooth="yes"/>
      <point x="490" y="407"/>
      <point x="522" y="384"/>
      <point x="522" y="353" type="curve" smooth="yes"/>
      <point x="522" y="237" type="line" smooth="yes"/>
      <point x="522" y="207"/>
      <point x="489" y="175"/>
    </contour>
  </outline>
</glyph>
<glyph name="A" format="1">
  <advance width="685"/>
  <unicode hex="0041"/>
  <outline>
    <contour>
      <point x="665" y="0" type="line" name="hr00"/>
      <point x="438" y="698" type="line"/>
      <point x="250" y="698" type="line"/>
      <point x="20" y="0" type="line"/>
      <point x="174" y="0" type="line"/>
      <point x="224" y="166" type="line"/>
      <point x="457" y="166" type="line"/>
      <point x="507" y="0" type="line"/>
    </contour>
    <contour>
      <point x="420" y="295" type="line"/>
      <point x="260" y="295" type="line"/>
      <point x="337" y="560" type="line"/>
      <point x="342" y="560" type="line"/>
    </contour>
    <contour>
      <point x="339" y="0" type="move" name="bottom"/>
    </contour>
    <contour>
      <point x="666" y="0" type="move" name="bottomright"/>
    </contour>
    <contour>
      <point x="339" y="698" type="move" name="top"/>
    </contour>
  </outline>
</glyph>
<glyph name="B" format="1">
  <advance width="667"/>
  <unicode hex="0042"/>
  <outline>
    <contour>
      <point x="77" y="0" type="line"/>
      <point x="447" y="0" type="line" smooth="yes"/>
      <point x="550" y="0"/>
      <point x="627" y="89"/>
      <point x="627" y="199" type="curve" smooth="yes"/>
      <point x="627" y="319"/>
      <point x="536" y="363"/>
      <point x="470" y="363" type="curve"/>
      <point x="470" y="369" type="line"/>
      <point x="541" y="372"/>
      <point x="600" y="412"/>
      <point x="600" y="519" type="curve" smooth="yes" name="hr01"/>
      <point x="600" y="627"/>
      <point x="531" y="698"/>
      <point x="416" y="698" type="curve" smooth="yes"/>
      <point x="77" y="698" type="line"/>
    </contour>
    <contour>
      <point x="229" y="288" type="line"/>
      <point x="404" y="288" type="line" smooth="yes"/>
      <point x="444" y="288"/>
      <point x="469" y="265"/>
      <point x="469" y="225" type="curve" smooth="yes" name="hr02"/>
      <point x="469" y="191" type="line" smooth="yes"/>
      <point x="469" y="151"/>
      <point x="444" y="128"/>
      <point x="404" y="128" type="curve" smooth="yes"/>
      <point x="229" y="128" type="line"/>
    </contour>
    <contour>
      <point x="229" y="570" type="line"/>
      <point x="380" y="570" type="line" smooth="yes"/>
      <point x="420" y="570"/>
      <point x="444" y="546"/>
      <point x="444" y="506" type="curve" smooth="yes" name="hr03"/>
      <point x="444" y="476" type="line" smooth="yes"/>
      <point x="444" y="436"/>
      <point x="420" y="412"/>
      <point x="380" y="412" type="curve" smooth="yes"/>
      <point x="229" y="412" type="line"/>
    </contour>
    <contour>
      <point x="353" y="0" type="move" name="bottom"/>
    </contour>
    <contour>
      <point x="353" y="698" type="move" name="top"/>
    </contour>
  </outline>
</glyph>
<glyph name="D" format="1">
  <advance width="697"/>
  <unicode hex="0044"/>
  <outline>
    <contour>
      <point x="77" y="0" type="line" name="hr00"/>
      <point x="340" y="0" type="line" smooth="yes"/>
      <point x="525" y="0"/>
      <point x="647" y="117"/>
      <point x="647" y="349" type="curve" smooth="yes"/>
      <point x="647" y="581"/>
      <point x="525" y="698"/>
      <point x="340" y="698" type="curve" smooth="yes"/>
      <point x="77" y="698" type="line"/>
    </contour>
    <contour>
      <point x="229" y="135" type="line"/>
      <point x="229" y="563" type="line"/>
      <point x="340" y="563" type="line" smooth="yes"/>
      <point x="430" y="563"/>
      <point x="486" y="514"/>
      <point x="486" y="403" type="curve" smooth="yes"/>
      <point x="486" y="295" type="line" smooth="yes"/>
      <point x="486" y="184"/>
      <point x="430" y="135"/>
      <point x="340" y="135" type="curve" smooth="yes"/>
    </contour>
    <contour>
      <point x="364" y="0" type="move" name="bottom"/>
    </contour>
    <contour>
      <point x="323" y="698" type="move" name="top"/>
    </contour>
  </outline>
</glyph>
<glyph name="E" format="1">
  <advance width="607"/>
  <unicode hex="0045"/>
  <outline>
    <contour>
      <point x="552" y="0" type="line" name="hr00"/>
      <point x="552" y="135" type="line"/>
      <point x="229" y="135" type="line"/>
      <point x="229" y="286" type="line"/>
      <point x="506" y="286" type="line"/>
      <point x="506" y="420" type="line"/>
      <point x="229" y="420" type="line"/>
      <point x="229" y="563" type="line"/>
      <point x="552" y="563" type="line"/>
      <point x="552" y="698" type="line"/>
      <point x="77" y="698" type="line"/>
      <point x="77" y="0" type="line"/>
    </contour>
    <contour>
      <point x="315" y="0" type="move" name="bottom"/>
    </contour>
    <contour>
      <point x="554" y="0" type="move" name="bottomright"/>
    </contour>
    <contour>
      <point x="315" y="698" type="move" name="top"/>
    </contour>
  </outline>
</glyph>
<glyph name="F" format="1">
  <advance width="585"/>
  <unicode hex="0046"/>
  <outline>
    <contour>
      <point x="229" y="0" type="line" name="hr00"/>
      <point x="229" y="286" type="line"/>
      <point x="494" y="286" type="line"/>
      <point x="494" y="420" type="line"/>
      <point x="229" y="420" type="line"/>
      <point x="229" y="563" type="line"/>
      <point x="540" y="563" type="line"/>
      <point x="540" y="698" type="line"/>
      <point x="77" y="698" type="line"/>
      <point x="77" y="0" type="line"/>
    </contour>
    <contour>
      <point x="316" y="0" type="move" name="bottom"/>
    </contour>
    <contour>
      <point x="309" y="698" type="move" name="top"/>
    </contour>
  </outline>
</glyph>
<glyph name="H" format="1">
  <advance width="724"/>
  <unicode hex="0048"/>
  <outline>
    <contour>
      <point x="495" y="0" type="line" name="hr00"/>
      <point x="647" y="0" type="line"/>
      <point x="647" y="698" type="line"/>
      <point x="495" y="698" type="line"/>
      <point x="495" y="420" type="line"/>
      <point x="229" y="420" type="line"/>
      <point x="229" y="698" type="line"/>
      <point x="77" y="698" type="line"/>
      <point x="77" y="0" type="line"/>
      <point x="229" y="0" type="line"/>
      <point x="229" y="286" type="line"/>
      <point x="495" y="286" type="line"/>
    </contour>
    <contour>
      <point x="362" y="0" type="move" name="bottom"/>
    </contour>
    <contour>
      <point x="362" y="698" type="move" name="top"/>
    </contour>
  </outline>
</glyph>
<glyph name="I" format="1">
  <advance width="432"/>
  <unicode hex="0049"/>
  <outline>
    <contour>
      <point x="382" y="0" type="line" name="hr00"/>
      <point x="382" y="121" type="line"/>
      <point x="292" y="121" type="line"/>
      <point x="292" y="577" type="line"/>
      <point x="382" y="577" type="line"/>
      <point x="382" y="698" type="line"/>
      <point x="50" y="698" type="line"/>
      <point x="50" y="577" type="line"/>
      <point x="140" y="577" type="line"/>
      <point x="140" y="121" type="line"/>
      <point x="50" y="121" type="line"/>
      <point x="50" y="0" type="line"/>
    </contour>
    <contour>
      <point x="216" y="0" type="move" name="bottom"/>
    </contour>
    <contour>
      <point x="384" y="0" type="move" name="bottomright"/>
    </contour>
    <contour>
      <point x="216" y="698" type="move" name="top"/>
    </contour>
  </outline>
</glyph>
<glyph name="K" format="1">
  <advance width="696"/>
  <unicode hex="004B"/>
  <outline>
    <contour>
      <point x="505" y="0" type="line" name="hr00"/>
      <point x="684" y="0" type="line"/>
      <point x="428" y="411" type="line"/>
      <point x="663" y="698" type="line"/>
      <point x="491" y="698" type="line"/>
      <point x="334" y="501" type="line"/>
      <point x="235" y="366" type="line"/>
      <point x="229" y="366" type="line"/>
      <point x="229" y="698" type="line"/>
      <point x="77" y="698" type="line"/>
      <point x="77" y="0" type="line"/>
      <point x="229" y="0" type="line"/>
      <point x="229" y="194" type="line"/>
      <point x="320" y="304" type="line"/>
    </contour>
    <contour>
      <point x="365" y="0" type="move" name="bottom"/>
    </contour>
    <contour>
      <point x="382" y="698" type="move" name="top"/>
    </contour>
  </outline>
</glyph>
<glyph name="L" format="1">
  <advance width="530"/>
  <unicode hex="004C"/>
  <outline>
    <contour>
      <point x="495" y="0" type="line" name="hr00"/>
      <point x="495" y="135" type="line"/>
      <point x="229" y="135" type="line"/>
      <point x="229" y="698" type="line"/>
      <point x="77" y="698" type="line"/>
      <point x="77" y="0" type="line"/>
    </contour>
    <contour>
      <point x="286" y="0" type="move" name="bottom"/>
    </contour>
    <contour>
      <point x="153" y="698" type="move" name="top"/>
    </contour>
    <contour>
      <point x="301" y="740" type="move" name="topright"/>
    </contour>
  </outline>
</glyph>
<glyph name="M" format="1">
  <advance width="819"/>
  <unicode hex="004D"/>
  <outline>
    <contour>
      <point x="599" y="0" type="line" name="hr00"/>
      <point x="742" y="0" type="line"/>
      <point x="742" y="698" type="line"/>
      <point x="580" y="698" type="line"/>
      <point x="411" y="371" type="line"/>
      <point x="409" y="371" type="line"/>
      <point x="238" y="698" type="line"/>
      <point x="77" y="698" type="line"/>
      <point x="77" y="0" type="line"/>
      <point x="220" y="0" type="line"/>
      <point x="220" y="465" type="line"/>
      <point x="223" y="465" type="line"/>
      <point x="276" y="355" type="line"/>
      <point x="409" y="109" type="line"/>
      <point x="545" y="356" type="line"/>
      <point x="596" y="458" type="line"/>
      <point x="599" y="458" type="line"/>
    </contour>
    <contour>
      <point x="409" y="0" type="move" name="bottom"/>
    </contour>
    <contour>
      <point x="409" y="698" type="move" name="top"/>
    </contour>
  </outline>
</glyph>
<glyph name="N" format="1">
  <advance width="724"/>
  <unicode hex="004E"/>
  <outline>
    <contour>
      <point x="481" y="0" type="line" name="hr00"/>
      <point x="647" y="0" type="line"/>
      <point x="647" y="698" type="line"/>
      <point x="504" y="698" type="line"/>
      <point x="504" y="228" type="line"/>
      <point x="501" y="228" type="line"/>
      <point x="434" y="368" type="line"/>
      <point x="243" y="698" type="line"/>
      <point x="77" y="698" type="line"/>
      <point x="77" y="0" type="line"/>
      <point x="220" y="0" type="line"/>
      <point x="220" y="470" type="line"/>
      <point x="223" y="470" type="line"/>
      <point x="290" y="330" type="line"/>
    </contour>
    <contour>
      <point x="361" y="0" type="move" name="bottom"/>
    </contour>
    <contour>
      <point x="361" y="698" type="move" name="top"/>
    </contour>
  </outline>
</glyph>
<glyph name="O" format="1">
  <advance width="714"/>
  <unicode hex="004F"/>
  <outline>
    <contour>
      <point x="357" y="-12" type="curve" smooth="yes" name="hr00"/>
      <point x="542" y="-12"/>
      <point x="664" y="112"/>
      <point x="664" y="349" type="curve" smooth="yes"/>
      <point x="664" y="586"/>
      <point x="542" y="710"/>
      <point x="357" y="710" type="curve" smooth="yes"/>
      <point x="172" y="710"/>
      <point x="50" y="586"/>
      <point x="50" y="349" type="curve" smooth="yes"/>
      <point x="50" y="112"/>
      <point x="172" y="-12"/>
    </contour>
    <contour>
      <point x="357" y="123" type="curve" smooth="yes"/>
      <point x="266" y="123"/>
      <point x="211" y="186"/>
      <point x="211" y="297" type="curve" smooth="yes"/>
      <point x="211" y="401" type="line" smooth="yes"/>
      <point x="211" y="512"/>
      <point x="266" y="575"/>
      <point x="357" y="575" type="curve" smooth="yes"/>
      <point x="448" y="575"/>
      <point x="503" y="512"/>
      <point x="503" y="401" type="curve" smooth="yes"/>
      <point x="503" y="297" type="line" smooth="yes"/>
      <point x="503" y="186"/>
      <point x="448" y="123"/>
    </contour>
    <contour>
      <point x="357" y="0" type="move" name="bottom"/>
    </contour>
    <contour>
      <point x="357" y="698" type="move" name="top"/>
    </contour>
  </outline>
</glyph>
<glyph name="P" format="1">
  <advance width="656"/>
  <unicode hex="0050"/>
  <outline>
    <contour>
      <point x="229" y="0" type="line" name="hr00"/>
      <point x="229" y="252" type="line"/>
      <point x="407" y="252" type="line" smooth="yes"/>
      <point x="537" y="252"/>
      <point x="619" y="343"/>
      <point x="619" y="475" type="curve" smooth="yes"/>
      <point x="619" y="607"/>
      <point x="537" y="698"/>
      <point x="407" y="698" type="curve" smooth="yes"/>
      <point x="77" y="698" type="line"/>
      <point x="77" y="0" type="line"/>
    </contour>
    <contour>
      <point x="229" y="566" type="line"/>
      <point x="389" y="566" type="line" smooth="yes"/>
      <point x="434" y="566"/>
      <point x="462" y="542"/>
      <point x="462" y="497" type="curve" smooth="yes"/>
      <point x="462" y="453" type="line" smooth="yes"/>
      <point x="462" y="408"/>
      <point x="434" y="384"/>
      <point x="389" y="384" type="curve" smooth="yes"/>
      <point x="229" y="384" type="line"/>
    </contour>
    <contour>
      <point x="357" y="0" type="move" name="bottom"/>
    </contour>
    <contour>
      <point x="349" y="698" type="move" name="top"/>
    </contour>
  </outline>
</glyph>
<glyph name="Q" format="1">
  <advance width="714"/>
  <unicode hex="0051"/>
  <outline>
    <contour>
      <point x="542" y="-60" type="line" name="hr00"/>
      <point x="435" y="-60" type="line"/>
      <point x="435" y="-4" type="line"/>
      <point x="576" y="27"/>
      <point x="664" y="147"/>
      <point x="664" y="349" type="curve" smooth="yes"/>
      <point x="664" y="586"/>
      <point x="542" y="710"/>
      <point x="357" y="710" type="curve" smooth="yes"/>
      <point x="172" y="710"/>
      <point x="50" y="586"/>
      <point x="50" y="349" type="curve" smooth="yes"/>
      <point x="50" y="141"/>
      <point x="144" y="20"/>
      <point x="293" y="-7" type="curve"/>
      <point x="293" y="-36" type="line" smooth="yes"/>
      <point x="293" y="-132"/>
      <point x="340" y="-184"/>
      <point x="448" y="-184" type="curve" smooth="yes"/>
      <point x="542" y="-184" type="line"/>
    </contour>
    <contour>
      <point x="357" y="123" type="curve" smooth="yes"/>
      <point x="266" y="123"/>
      <point x="211" y="186"/>
      <point x="211" y="297" type="curve" smooth="yes"/>
      <point x="211" y="401" type="line" smooth="yes"/>
      <point x="211" y="512"/>
      <point x="266" y="575"/>
      <point x="357" y="575" type="curve" smooth="yes"/>
      <point x="448" y="575"/>
      <point x="503" y="512"/>
      <point x="503" y="401" type="curve" smooth="yes"/>
      <point x="503" y="297" type="line" smooth="yes"/>
      <point x="503" y="186"/>
      <point x="448" y="123"/>
    </contour>
    <contour>
      <point x="357" y="698" type="move" name="top"/>
    </contour>
  </outline>
</glyph>
<glyph name="R" format="1">
  <advance width="674"/>
  <unicode hex="0052"/>
  <outline>
    <contour>
      <point x="229" y="256" type="line" name="hr00"/>
      <point x="338" y="256" type="line"/>
      <point x="460" y="0" type="line"/>
      <point x="629" y="0" type="line"/>
      <point x="492" y="274" type="line"/>
      <point x="577" y="306"/>
      <point x="619" y="381"/>
      <point x="619" y="475" type="curve" smooth="yes"/>
      <point x="619" y="608"/>
      <point x="537" y="698"/>
      <point x="408" y="698" type="curve" smooth="yes"/>
      <point x="77" y="698" type="line"/>
      <point x="77" y="0" type="line"/>
      <point x="229" y="0" type="line"/>
    </contour>
    <contour>
      <point x="229" y="384" type="line"/>
      <point x="229" y="566" type="line"/>
      <point x="389" y="566" type="line" smooth="yes"/>
      <point x="434" y="566"/>
      <point x="462" y="542"/>
      <point x="462" y="497" type="curve" smooth="yes"/>
      <point x="462" y="453" type="line" smooth="yes"/>
      <point x="462" y="408"/>
      <point x="434" y="384"/>
      <point x="389" y="384" type="curve" smooth="yes"/>
    </contour>
    <contour>
      <point x="354" y="0" type="move" name="bottom"/>
    </contour>
    <contour>
      <point x="324" y="698" type="move" name="top"/>
    </contour>
  </outline>
</glyph>
<glyph name="S" format="1">
  <advance width="624"/>
  <unicode hex="0053"/>
  <outline>
    <contour>
      <point x="303" y="-12" type="curve" smooth="yes" name="hr00"/>
      <point x="477" y="-12"/>
      <point x="575" y="81"/>
      <point x="575" y="215" type="curve" smooth="yes"/>
      <point x="575" y="335"/>
      <point x="506" y="399"/>
      <point x="363" y="422" type="curve" smooth="yes"/>
      <point x="294" y="433" type="line" smooth="yes"/>
      <point x="236" y="442"/>
      <point x="211" y="460"/>
      <point x="211" y="508" type="curve" smooth="yes"/>
      <point x="211" y="550"/>
      <point x="244" y="576"/>
      <point x="312" y="576" type="curve" smooth="yes"/>
      <point x="384" y="576"/>
      <point x="429" y="549"/>
      <point x="462" y="510" type="curve"/>
      <point x="563" y="612" type="line"/>
      <point x="506" y="675"/>
      <point x="426" y="710"/>
      <point x="321" y="710" type="curve" smooth="yes"/>
      <point x="157" y="710"/>
      <point x="59" y="623"/>
      <point x="59" y="498" type="curve" smooth="yes"/>
      <point x="59" y="381"/>
      <point x="126" y="309"/>
      <point x="273" y="290" type="curve" smooth="yes"/>
      <point x="342" y="281" type="line" smooth="yes"/>
      <point x="407" y="272"/>
      <point x="423" y="244"/>
      <point x="423" y="206" type="curve" smooth="yes"/>
      <point x="423" y="155"/>
      <point x="387" y="122"/>
      <point x="313" y="122" type="curve" smooth="yes"/>
      <point x="245" y="122"/>
      <point x="185" y="149"/>
      <point x="138" y="202" type="curve"/>
      <point x="38" y="101" type="line"/>
      <point x="98" y="35"/>
      <point x="181" y="-12"/>
    </contour>
    <contour>
      <point x="310" y="0" type="move" name="bottom"/>
    </contour>
    <contour>
      <point x="310" y="698" type="move" name="top"/>
    </contour>
  </outline>
</glyph>
<glyph name="T" format="1">
  <advance width="584"/>
  <unicode hex="0054"/>
  <outline>
    <contour>
      <point x="557" y="563" type="line" name="hr00"/>
      <point x="557" y="698" type="line"/>
      <point x="27" y="698" type="line"/>
      <point x="27" y="563" type="line"/>
      <point x="216" y="563" type="line"/>
      <point x="216" y="0" type="line"/>
      <point x="368" y="0" type="line"/>
      <point x="368" y="563" type="line"/>
    </contour>
    <contour>
      <point x="292" y="0" type="move" name="bottom"/>
    </contour>
    <contour>
      <point x="292" y="698" type="move" name="top"/>
    </contour>
  </outline>
</glyph>
<glyph name="U" format="1">
  <advance width="694"/>
  <unicode hex="0055"/>
  <outline>
    <contour>
      <point x="73" y="698" type="line" name="hr00"/>
      <point x="73" y="286" type="line" smooth="yes"/>
      <point x="73" y="80"/>
      <point x="147" y="-12"/>
      <point x="347" y="-12" type="curve" smooth="yes"/>
      <point x="547" y="-12"/>
      <point x="621" y="80"/>
      <point x="621" y="286" type="curve" smooth="yes"/>
      <point x="621" y="698" type="line"/>
      <point x="473" y="698" type="line"/>
      <point x="473" y="270" type="line" smooth="yes"/>
      <point x="473" y="172"/>
      <point x="437" y="123"/>
      <point x="347" y="123" type="curve" smooth="yes"/>
      <point x="257" y="123"/>
      <point x="221" y="172"/>
      <point x="221" y="270" type="curve" smooth="yes"/>
      <point x="221" y="698" type="line"/>
    </contour>
    <contour>
      <point x="347" y="0" type="move" name="bottom"/>
    </contour>
    <contour>
      <point x="455" y="0" type="move" name="bottomright"/>
    </contour>
    <contour>
      <point x="347" y="698" type="move" name="top"/>
    </contour>
  </outline>
</glyph>
<glyph name="V" format="1">
  <advance width="650"/>
  <unicode hex="0056"/>
  <outline>
    <contour>
      <point x="409" y="0" type="line" name="hr00"/>
      <point x="636" y="698" type="line"/>
      <point x="487" y="698" type="line"/>
      <point x="383" y="363" type="line"/>
      <point x="330" y="144" type="line"/>
      <point x="327" y="144" type="line"/>
      <point x="272" y="363" type="line"/>
      <point x="168" y="698" type="line"/>
      <point x="14" y="698" type="line"/>
      <point x="239" y="0" type="line"/>
    </contour>
    <contour>
      <point x="325" y="0" type="move" name="bottom"/>
    </contour>
    <contour>
      <point x="325" y="698" type="move" name="top"/>
    </contour>
  </outline>
</glyph>
<glyph name="X" format="1">
  <advance width="673"/>
  <unicode hex="0058"/>
  <outline>
    <contour>
      <point x="16" y="0" type="line" name="hr00"/>
      <point x="180" y="0" type="line"/>
      <point x="327" y="257" type="line"/>
      <point x="330" y="257" type="line"/>
      <point x="481" y="0" type="line"/>
      <point x="657" y="0" type="line"/>
      <point x="430" y="358" type="line"/>
      <point x="645" y="698" type="line"/>
      <point x="481" y="698" type="line"/>
      <point x="343" y="462" type="line"/>
      <point x="340" y="462" type="line"/>
      <point x="204" y="698" type="line"/>
      <point x="27" y="698" type="line"/>
      <point x="240" y="361" type="line"/>
    </contour>
    <contour>
      <point x="337" y="0" type="move" name="bottom"/>
    </contour>
    <contour>
      <point x="337" y="698" type="move" name="top"/>
    </contour>
  </outline>
</glyph>
<glyph name="Z" format="1">
  <advance width="607"/>
  <unicode hex="005A"/>
  <outline>
    <contour>
      <point x="568" y="134" type="line" name="hr00"/>
      <point x="214" y="134" type="line"/>
      <point x="560" y="563" type="line"/>
      <point x="560" y="698" type="line"/>
      <point x="56" y="698" type="line"/>
      <point x="56" y="564" type="line"/>
      <point x="384" y="564" type="line"/>
      <point x="39" y="135" type="line"/>
      <point x="39" y="0" type="line"/>
      <point x="568" y="0" type="line"/>
    </contour>
    <contour>
      <point x="303" y="0" type="move" name="bottom"/>
    </contour>
    <contour>
      <point x="303" y="698" type="move" name="top"/>
    </contour>
  </outline>
</glyph>
<glyph name="asciicircum" format="1">
  <advance width="600"/>
  <unicode hex="005E"/>
  <outline>
    <contour>
      <point x="559" y="334" type="line" name="hr00"/>
      <point x="362" y="698" type="line"/>
      <point x="242" y="698" type="line"/>
      <point x="42" y="334" type="line"/>
      <point x="154" y="277" type="line"/>
      <point x="294" y="537" type="line"/>
      <point x="300" y="537" type="line"/>
      <point x="440" y="277" type="line"/>
    </contour>
  </outline>
</glyph>
<glyph name="grave" format="1">
  <advance width="600"/>
  <unicode hex="0060"/>
  <outline>
    <contour>
      <point x="284" y="579" type="line" name="hr00"/>
      <point x="372" y="622" type="line"/>
      <point x="273" y="816" type="line"/>
      <point x="150" y="755" type="line"/>
    </contour>
    <contour>
      <point x="300" y="540" type="move" name="_top"/>
    </contour>
  </outline>
</glyph>
<glyph name="a" format="1">
  <advance width="569"/>
  <unicode hex="0061"/>
  <outline>
    <contour>
      <point x="539" y="0" type="line"/>
      <point x="539" y="115" type="line"/>
      <point x="490" y="115" type="line"/>
      <point x="490" y="345" type="line" smooth="yes"/>
      <point x="490" y="469"/>
      <point x="414" y="537"/>
      <point x="266" y="537" type="curve" smooth="yes"/>
      <point x="156" y="537"/>
      <point x="96" y="499"/>
      <point x="54" y="437" type="curve"/>
      <point x="142" y="359" type="line"/>
      <point x="165" y="391"/>
      <point x="196" y="421"/>
      <point x="255" y="421" type="curve" smooth="yes"/>
      <point x="317" y="421"/>
      <point x="342" y="389"/>
      <point x="342" y="338" type="curve" smooth="yes"/>
      <point x="342" y="305" type="line"/>
      <point x="259" y="305" type="line" smooth="yes"/>
      <point x="120" y="305"/>
      <point x="34" y="252"/>
      <point x="34" y="141" type="curve" smooth="yes"/>
      <point x="34" y="50"/>
      <point x="92" y="-12"/>
      <point x="197" y="-12" type="curve" smooth="yes" name="hr01"/>
      <point x="277" y="-12"/>
      <point x="335" y="24"/>
      <point x="351" y="92" type="curve"/>
      <point x="357" y="92" type="line"/>
      <point x="366" y="36"/>
      <point x="404" y="0"/>
      <point x="457" y="0" type="curve" smooth="yes" name="hr02"/>
    </contour>
    <contour>
      <point x="252" y="91" type="curve" smooth="yes" name="hr03"/>
      <point x="208" y="91"/>
      <point x="183" y="109"/>
      <point x="183" y="147" type="curve" smooth="yes"/>
      <point x="183" y="162" type="line" smooth="yes"/>
      <point x="183" y="200"/>
      <point x="213" y="221"/>
      <point x="270" y="221" type="curve" smooth="yes"/>
      <point x="342" y="221" type="line"/>
      <point x="342" y="159" type="line" smooth="yes"/>
      <point x="342" y="111"/>
      <point x="301" y="91"/>
    </contour>
    <contour>
      <point x="269" y="0" type="move" name="bottom"/>
    </contour>
    <contour>
      <point x="540" y="0" type="move" name="bottomright"/>
    </contour>
    <contour>
      <point x="268" y="540" type="move" name="top"/>
    </contour>
  </outline>
</glyph>
<glyph name="c" format="1">
  <advance width="517"/>
  <unicode hex="0063"/>
  <outline>
    <contour>
      <point x="281" y="-12" type="curve" smooth="yes" name="hr00"/>
      <point x="384" y="-12"/>
      <point x="459" y="33"/>
      <point x="494" y="133" type="curve"/>
      <point x="379" y="183" type="line"/>
      <point x="364" y="141"/>
      <point x="340" y="104"/>
      <point x="281" y="104" type="curve" smooth="yes"/>
      <point x="221" y="104"/>
      <point x="190" y="147"/>
      <point x="190" y="213" type="curve" smooth="yes"/>
      <point x="190" y="311" type="line" smooth="yes"/>
      <point x="190" y="377"/>
      <point x="221" y="420"/>
      <point x="281" y="420" type="curve" smooth="yes"/>
      <point x="333" y="420"/>
      <point x="362" y="388"/>
      <point x="371" y="348" type="curve"/>
      <point x="491" y="400" type="line"/>
      <point x="460" y="486"/>
      <point x="387" y="537"/>
      <point x="281" y="537" type="curve" smooth="yes"/>
      <point x="123" y="537"/>
      <point x="36" y="431"/>
      <point x="36" y="263" type="curve" smooth="yes"/>
      <point x="36" y="95"/>
      <point x="123" y="-12"/>
    </contour>
    <contour>
      <point x="262" y="0" type="move" name="bottom"/>
    </contour>
    <contour>
      <point x="274" y="540" type="move" name="top"/>
    </contour>
  </outline>
</glyph>
<glyph name="e" format="1">
  <advance width="562"/>
  <unicode hex="0065"/>
  <outline>
    <contour>
      <point x="288" y="-12" type="curve" smooth="yes" name="hr00"/>
      <point x="384" y="-12"/>
      <point x="461" y="21"/>
      <point x="508" y="75" type="curve"/>
      <point x="434" y="167" type="line"/>
      <point x="401" y="133"/>
      <point x="367" y="104"/>
      <point x="305" y="104" type="curve" smooth="yes"/>
      <point x="226" y="104"/>
      <point x="189" y="148"/>
      <point x="189" y="217" type="curve" smooth="yes"/>
      <point x="189" y="225" type="line"/>
      <point x="526" y="225" type="line"/>
      <point x="526" y="269" type="line" smooth="yes"/>
      <point x="526" y="411"/>
      <point x="456" y="537"/>
      <point x="282" y="537" type="curve" smooth="yes"/>
      <point x="124" y="537"/>
      <point x="36" y="429"/>
      <point x="36" y="263" type="curve" smooth="yes"/>
      <point x="36" y="95"/>
      <point x="127" y="-12"/>
    </contour>
    <contour>
      <point x="285" y="428" type="curve" smooth="yes"/>
      <point x="344" y="428"/>
      <point x="373" y="385"/>
      <point x="373" y="321" type="curve" smooth="yes"/>
      <point x="373" y="312" type="line"/>
      <point x="189" y="312" type="line"/>
      <point x="189" y="320" type="line" smooth="yes"/>
      <point x="189" y="385"/>
      <point x="226" y="428"/>
    </contour>
    <contour>
      <point x="283" y="0" type="move" name="bottom"/>
    </contour>
    <contour>
      <point x="383" y="0" type="move" name="bottomright"/>
    </contour>
    <contour>
      <point x="287" y="540" type="move" name="top"/>
    </contour>
  </outline>
</glyph>
<glyph name="i" format="1">
  <advance width="286"/>
  <unicode hex="0069"/>
  <outline>
    <contour>
      <point x="143" y="581" type="curve" smooth="yes"/>
      <point x="203" y="581"/>
      <point x="229" y="612"/>
      <point x="229" y="654" type="curve" smooth="yes"/>
      <point x="229" y="676" type="line" smooth="yes"/>
      <point x="229" y="718"/>
      <point x="203" y="749"/>
      <point x="143" y="749" type="curve" smooth="yes"/>
      <point x="83" y="749"/>
      <point x="57" y="718"/>
      <point x="57" y="676" type="curve" smooth="yes"/>
      <point x="57" y="654" type="line" smooth="yes"/>
      <point x="57" y="612"/>
      <point x="83" y="581"/>
    </contour>
    <contour>
      <point x="69" y="0" type="line" name="hr01"/>
      <point x="217" y="0" type="line"/>
      <point x="217" y="525" type="line"/>
      <point x="69" y="525" type="line"/>
    </contour>
    <contour>
      <point x="143" y="0" type="move" name="bottom"/>
    </contour>
    <contour>
      <point x="218" y="0" type="move" name="bottomright"/>
    </contour>
  </outline>
</glyph>
<glyph name="k" format="1">
  <advance width="577"/>
  <unicode hex="006B"/>
  <outline>
    <contour>
      <point x="69" y="0" type="line" name="hr00"/>
      <point x="217" y="0" type="line"/>
      <point x="217" y="148" type="line"/>
      <point x="283" y="222" type="line"/>
      <point x="401" y="0" type="line"/>
      <point x="577" y="0" type="line"/>
      <point x="382" y="324" type="line"/>
      <point x="557" y="525" type="line"/>
      <point x="393" y="525" type="line"/>
      <point x="288" y="400" type="line"/>
      <point x="223" y="303" type="line"/>
      <point x="217" y="303" type="line"/>
      <point x="217" y="740" type="line"/>
      <point x="69" y="740" type="line"/>
    </contour>
    <contour>
      <point x="324" y="0" type="move" name="bottom"/>
    </contour>
  </outline>
</glyph>
<glyph name="l" format="1">
  <advance width="303"/>
  <unicode hex="006C"/>
  <outline>
    <contour>
      <point x="283" y="0" type="line" name="hr00"/>
      <point x="283" y="115" type="line"/>
      <point x="217" y="115" type="line"/>
      <point x="217" y="740" type="line"/>
      <point x="69" y="740" type="line"/>
      <point x="69" y="144" type="line" smooth="yes"/>
      <point x="69" y="51"/>
      <point x="115" y="0"/>
      <point x="216" y="0" type="curve" smooth="yes"/>
    </contour>
    <contour>
      <point x="175" y="0" type="move" name="bottom"/>
    </contour>
    <contour>
      <point x="143" y="740" type="move" name="top"/>
    </contour>
    <contour>
      <point x="280" y="740" type="move" name="topright"/>
    </contour>
  </outline>
</glyph>
<glyph name="m" format="1">
  <advance width="894"/>
  <unicode hex="006D"/>
  <outline>
    <contour>
      <point x="217" y="0" type="line"/>
      <point x="217" y="340" type="line"/>
      <point x="217" y="392"/>
      <point x="261" y="417"/>
      <point x="304" y="417" type="curve" smooth="yes"/>
      <point x="352" y="417"/>
      <point x="376" y="385"/>
      <point x="376" y="317" type="curve"/>
      <point x="376" y="0" type="line"/>
      <point x="524" y="0" type="line"/>
      <point x="524" y="340" type="line"/>
      <point x="524" y="392"/>
      <point x="567" y="417"/>
      <point x="611" y="417" type="curve" smooth="yes"/>
      <point x="660" y="417"/>
      <point x="683" y="385"/>
      <point x="683" y="317" type="curve" smooth="yes"/>
      <point x="683" y="0" type="line"/>
      <point x="831" y="0" type="line"/>
      <point x="831" y="329" type="line" smooth="yes"/>
      <point x="831" y="461"/>
      <point x="775" y="537"/>
      <point x="674" y="537" type="curve" smooth="yes"/>
      <point x="594" y="537"/>
      <point x="533" y="490"/>
      <point x="514" y="431" type="curve"/>
      <point x="511" y="431" type="line"/>
      <point x="488" y="500"/>
      <point x="436" y="537"/>
      <point x="364" y="537" type="curve" smooth="yes"/>
      <point x="286" y="537"/>
      <point x="242" y="492"/>
      <point x="223" y="436" type="curve"/>
      <point x="217" y="436" type="line"/>
      <point x="217" y="525" type="line" name="hr01"/>
      <point x="69" y="525" type="line"/>
      <point x="69" y="0" type="line"/>
    </contour>
    <contour>
      <point x="450" y="0" type="move" name="bottom"/>
    </contour>
    <contour>
      <point x="450" y="540" type="move" name="top"/>
    </contour>
  </outline>
</glyph>
<glyph name="v" format="1">
  <advance width="538"/>
  <unicode hex="0076"/>
  <outline>
    <contour>
      <point x="357" y="0" type="line" name="hr00"/>
      <point x="529" y="525" type="line"/>
      <point x="389" y="525" type="line"/>
      <point x="326" y="313" type="line"/>
      <point x="277" y="123" type="line"/>
      <point x="269" y="123" type="line"/>
      <point x="220" y="313" type="line"/>
      <point x="155" y="525" type="line"/>
      <point x="9" y="525" type="line"/>
      <point x="181" y="0" type="line"/>
    </contour>
    <contour>
      <point x="269" y="0" type="move" name="bottom"/>
    </contour>
    <contour>
      <point x="269" y="540" type="move" name="top"/>
    </contour>
  </outline>
</glyph>
<glyph name="x" format="1">
  <advance width="560"/>
  <unicode hex="0078"/>
  <outline>
    <contour>
      <point x="172" y="0" type="line" name="hr00"/>
      <point x="269" y="171" type="line"/>
      <point x="273" y="171" type="line"/>
      <point x="374" y="0" type="line"/>
      <point x="542" y="0" type="line"/>
      <point x="367" y="262" type="line"/>
      <point x="541" y="525" type="line"/>
      <point x="385" y="525" type="line"/>
      <point x="290" y="360" type="line"/>
      <point x="286" y="360" type="line"/>
      <point x="188" y="525" type="line"/>
      <point x="20" y="525" type="line"/>
      <point x="191" y="267" type="line"/>
      <point x="18" y="0" type="line"/>
    </contour>
    <contour>
      <point x="280" y="0" type="move" name="bottom"/>
    </contour>
    <contour>
      <point x="280" y="540" type="move" name="top"/>
    </contour>
  </outline>
</glyph>
<glyph name="y" format="1">
  <advance width="534"/>
  <unicode hex="0079"/>
  <outline>
    <contour>
      <point x="313" y="280" type="line" name="hr00"/>
      <point x="274" y="128" type="line"/>
      <point x="268" y="128" type="line"/>
      <point x="230" y="280" type="line"/>
      <point x="153" y="525" type="line"/>
      <point x="6" y="525" type="line"/>
      <point x="190" y="-27" type="line"/>
      <point x="172" y="-85" type="line"/>
      <point x="73" y="-85" type="line"/>
      <point x="73" y="-200" type="line"/>
      <point x="165" y="-200" type="line" smooth="yes"/>
      <point x="255" y="-200"/>
      <point x="299" y="-162"/>
      <point x="326" y="-81" type="curve" smooth="yes"/>
      <point x="528" y="525" type="line"/>
      <point x="390" y="525" type="line"/>
    </contour>
    <contour>
      <point x="432" y="0" type="move" name="bottom"/>
    </contour>
    <contour>
      <point x="271" y="540" type="move" name="top"/>
    </contour>
  </outline>
</glyph>
<glyph name="z" format="1">
  <advance width="518"/>
  <unicode hex="007A"/>
  <outline>
    <contour>
      <point x="479" y="0" type="line" name="hr00"/>
      <point x="479" y="115" type="line"/>
      <point x="210" y="115" type="line"/>
      <point x="472" y="409" type="line"/>
      <point x="472" y="525" type="line"/>
      <point x="48" y="525" type="line"/>
      <point x="48" y="410" type="line"/>
      <point x="300" y="410" type="line"/>
      <point x="39" y="117" type="line"/>
      <point x="39" y="0" type="line"/>
    </contour>
    <contour>
      <point x="259" y="0" type="move" name="bottom"/>
    </contour>
    <contour>
      <point x="259" y="540" type="move" name="top"/>
    </contour>
  </outline>
</glyph>
<glyph name="braceleft" format="1">
  <advance width="372"/>
  <unicode hex="007B"/>
  <outline>
    <contour>
      <point x="322" y="-138" type="line" name="hr00"/>
      <point x="322" y="-34" type="line"/>
      <point x="253" y="-34" type="line"/>
      <point x="253" y="181" type="line" smooth="yes"/>
      <point x="253" y="246"/>
      <point x="205" y="298"/>
      <point x="149" y="309" type="curve"/>
      <point x="149" y="313" type="line"/>
      <point x="205" y="324"/>
      <point x="253" y="376"/>
      <point x="253" y="441" type="curve" smooth="yes"/>
      <point x="253" y="656" type="line"/>
      <point x="322" y="656" type="line"/>
      <point x="322" y="760" type="line"/>
      <point x="213" y="760" type="line" smooth="yes"/>
      <point x="159" y="760"/>
      <point x="116" y="724"/>
      <point x="116" y="659" type="curve" smooth="yes"/>
      <point x="116" y="457" type="line" smooth="yes"/>
      <point x="116" y="399"/>
      <point x="75" y="368"/>
      <point x="19" y="368" type="curve"/>
      <point x="19" y="255" type="line"/>
      <point x="75" y="255"/>
      <point x="116" y="224"/>
      <point x="116" y="166" type="curve" smooth="yes"/>
      <point x="116" y="-37" type="line" smooth="yes"/>
      <point x="116" y="-102"/>
      <point x="159" y="-138"/>
      <point x="213" y="-138" type="curve" smooth="yes"/>
    </contour>
  </outline>
</glyph>
<glyph name="braceright" format="1">
  <advance width="372"/>
  <unicode hex="007D"/>
  <outline>
    <contour>
      <point x="50" y="760" type="line" name="hr00"/>
      <point x="50" y="656" type="line"/>
      <point x="119" y="656" type="line"/>
      <point x="119" y="442" type="line" smooth="yes"/>
      <point x="119" y="377"/>
      <point x="167" y="325"/>
      <point x="223" y="314" type="curve"/>
      <point x="223" y="310" type="line"/>
      <point x="167" y="299"/>
      <point x="119" y="247"/>
      <point x="119" y="182" type="curve" smooth="yes"/>
      <point x="119" y="-34" type="line"/>
      <point x="50" y="-34" type="line"/>
      <point x="50" y="-138" type="line"/>
      <point x="159" y="-138" type="line" smooth="yes"/>
      <point x="213" y="-138"/>
      <point x="256" y="-102"/>
      <point x="256" y="-37" type="curve" smooth="yes"/>
      <point x="256" y="166" type="line" smooth="yes"/>
      <point x="256" y="224"/>
      <point x="297" y="255"/>
      <point x="353" y="255" type="curve"/>
      <point x="353" y="368" type="line"/>
      <point x="297" y="368"/>
      <point x="256" y="399"/>
      <point x="256" y="457" type="curve" smooth="yes"/>
      <point x="256" y="659" type="line" smooth="yes"/>
      <point x="256" y="724"/>
      <point x="213" y="760"/>
      <point x="159" y="760" type="curve" smooth="yes"/>
    </contour>
  </outline>
</glyph>
<glyph name="asciitilde" format="1">
  <advance width="600"/>
  <unicode hex="007E"/>
  <outline>
    <contour>
      <point x="416" y="212" type="curve" smooth="yes" name="hr02"/>
      <point x="481" y="212"/>
      <point x="523" y="240"/>
      <point x="547" y="274" type="curve"/>
      <point x="498" y="358" type="line"/>
      <point x="469" y="339"/>
      <point x="450" y="331"/>
      <point x="420" y="331" type="curve" smooth="yes"/>
      <point x="379" y="331"/>
      <point x="346" y="346"/>
      <point x="310" y="364" type="curve" smooth="yes"/>
      <point x="266" y="386"/>
      <point x="233" y="400"/>
      <point x="184" y="400" type="curve" smooth="yes" name="hr01"/>
      <point x="119" y="400"/>
      <point x="77" y="372"/>
      <point x="53" y="338" type="curve"/>
      <point x="102" y="254" type="line"/>
      <point x="131" y="273"/>
      <point x="150" y="281"/>
      <point x="180" y="281" type="curve" smooth="yes"/>
      <point x="221" y="281"/>
      <point x="254" y="266"/>
      <point x="290" y="248" type="curve" smooth="yes"/>
      <point x="334" y="226"/>
      <point x="367" y="212"/>
    </contour>
  </outline>
</glyph>
<glyph name="exclamdown" format="1">
  <advance width="320"/>
  <unicode hex="00A1"/>
  <outline>
    <contour>
      <point x="238" y="-173" type="line"/>
      <point x="238" y="21" type="line"/>
      <point x="191" y="305" type="line"/>
      <point x="128" y="305" type="line"/>
      <point x="82" y="21" type="line"/>
      <point x="82" y="-173" type="line"/>
    </contour>
    <contour>
      <point x="160" y="361" type="curve" smooth="yes"/>
      <point x="223" y="361"/>
      <point x="249" y="394"/>
      <point x="249" y="437" type="curve" smooth="yes" name="hr01"/>
      <point x="249" y="461" type="line" smooth="yes"/>
      <point x="249" y="504"/>
      <point x="223" y="537"/>
      <point x="160" y="537" type="curve" smooth="yes"/>
      <point x="97" y="537"/>
      <point x="71" y="504"/>
      <point x="71" y="461" type="curve" smooth="yes"/>
      <point x="71" y="437" type="line" smooth="yes"/>
      <point x="71" y="394"/>
      <point x="97" y="361"/>
    </contour>
  </outline>
</glyph>
<glyph name="sterling" format="1">
  <advance width="582"/>
  <unicode hex="00A3"/>
  <outline>
    <contour>
      <point x="554" y="0" type="line"/>
      <point x="554" y="128" type="line"/>
      <point x="220" y="128" type="line"/>
      <point x="220" y="137" type="line"/>
      <point x="255" y="155"/>
      <point x="297" y="193"/>
      <point x="297" y="263" type="curve" smooth="yes"/>
      <point x="297" y="273"/>
      <point x="296" y="282"/>
      <point x="295" y="291" type="curve"/>
      <point x="445" y="291" type="line"/>
      <point x="445" y="411" type="line"/>
      <point x="249" y="411" type="line"/>
      <point x="241" y="433"/>
      <point x="235" y="455"/>
      <point x="235" y="481" type="curve" smooth="yes" name="hr01"/>
      <point x="235" y="543"/>
      <point x="271" y="579"/>
      <point x="336" y="579" type="curve" smooth="yes"/>
      <point x="384" y="579"/>
      <point x="421" y="560"/>
      <point x="458" y="512" type="curve"/>
      <point x="568" y="589" type="line"/>
      <point x="515" y="669"/>
      <point x="440" y="710"/>
      <point x="332" y="710" type="curve" smooth="yes"/>
      <point x="180" y="710"/>
      <point x="82" y="628"/>
      <point x="82" y="505" type="curve" smooth="yes"/>
      <point x="82" y="470"/>
      <point x="90" y="439"/>
      <point x="100" y="411" type="curve"/>
      <point x="34" y="411" type="line"/>
      <point x="34" y="291" type="line"/>
      <point x="145" y="291" type="line"/>
      <point x="148" y="280"/>
      <point x="149" y="269"/>
      <point x="149" y="258" type="curve" smooth="yes" name="hr02"/>
      <point x="149" y="201"/>
      <point x="117" y="159"/>
      <point x="66" y="136" type="curve"/>
      <point x="66" y="0" type="line"/>
    </contour>
  </outline>
</glyph>
<glyph name="dieresis" format="1">
  <advance width="600"/>
  <unicode hex="00A8"/>
  <outline>
    <contour>
      <point x="190" y="600" type="curve" smooth="yes" name="hr00"/>
      <point x="250" y="600"/>
      <point x="270" y="628"/>
      <point x="270" y="663" type="curve" smooth="yes"/>
      <point x="270" y="688" type="line" smooth="yes"/>
      <point x="270" y="723"/>
      <point x="250" y="751"/>
      <point x="190" y="751" type="curve" smooth="yes"/>
      <point x="130" y="751"/>
      <point x="110" y="723"/>
      <point x="110" y="688" type="curve" smooth="yes"/>
      <point x="110" y="663" type="line" smooth="yes"/>
      <point x="110" y="628"/>
      <point x="130" y="600"/>
    </contour>
    <contour>
      <point x="410" y="600" type="curve" smooth="yes"/>
      <point x="470" y="600"/>
      <point x="490" y="628"/>
      <point x="490" y="663" type="curve" smooth="yes"/>
      <point x="490" y="688" type="line" smooth="yes"/>
      <point x="490" y="723"/>
      <point x="470" y="751"/>
      <point x="410" y="751" type="curve" smooth="yes"/>
      <point x="350" y="751"/>
      <point x="330" y="723"/>
      <point x="330" y="688" type="curve" smooth="yes"/>
      <point x="330" y="663" type="line" smooth="yes"/>
      <point x="330" y="628"/>
      <point x="350" y="600"/>
    </contour>
    <contour>
      <point x="300" y="540" type="move" name="_top"/>
    </contour>
  </outline>
</glyph>
<glyph name="ordfeminine" format="1">
  <advance width="449"/>
  <unicode hex="00AA"/>
  <outline>
    <contour>
      <point x="405" y="405" type="line"/>
      <point x="366" y="405" type="line"/>
      <point x="366" y="567" type="line" smooth="yes"/>
      <point x="366" y="658"/>
      <point x="307" y="704"/>
      <point x="211" y="704" type="curve" smooth="yes"/>
      <point x="131" y="704"/>
      <point x="80" y="675"/>
      <point x="56" y="633" type="curve"/>
      <point x="112" y="583" type="line"/>
      <point x="131" y="609"/>
      <point x="156" y="628"/>
      <point x="199" y="628" type="curve" smooth="yes"/>
      <point x="245" y="628"/>
      <point x="262" y="607"/>
      <point x="262" y="563" type="curve" smooth="yes"/>
      <point x="262" y="544" type="line"/>
      <point x="206" y="544" type="line" smooth="yes"/>
      <point x="102" y="544"/>
      <point x="46" y="508"/>
      <point x="46" y="433" type="curve" smooth="yes"/>
      <point x="46" y="364"/>
      <point x="92" y="324"/>
      <point x="160" y="324" type="curve" smooth="yes" name="hr01"/>
      <point x="214" y="324"/>
      <point x="255" y="348"/>
      <point x="268" y="394" type="curve"/>
      <point x="272" y="394" type="line"/>
      <point x="278" y="345"/>
      <point x="312" y="330"/>
      <point x="345" y="330" type="curve" smooth="yes" name="hr02"/>
      <point x="405" y="330" type="line"/>
    </contour>
    <contour>
      <point x="262" y="488" type="line"/>
      <point x="262" y="444" type="line" smooth="yes"/>
      <point x="262" y="409"/>
      <point x="235" y="392"/>
      <point x="200" y="392" type="curve" smooth="yes" name="hr03"/>
      <point x="168" y="392"/>
      <point x="147" y="404"/>
      <point x="147" y="431" type="curve" smooth="yes"/>
      <point x="147" y="445" type="line" smooth="yes"/>
      <point x="147" y="473"/>
      <point x="169" y="488"/>
      <point x="209" y="488" type="curve" smooth="yes"/>
    </contour>
  </outline>
</glyph>
<glyph name="macron" format="1">
  <advance width="600"/>
  <unicode hex="00AF"/>
  <outline>
    <contour>
      <point x="147" y="624" type="line" name="hr00"/>
      <point x="453" y="624" type="line"/>
      <point x="453" y="727" type="line"/>
      <point x="147" y="727" type="line"/>
    </contour>
    <contour>
      <point x="300" y="540" type="move" name="_top"/>
    </contour>
  </outline>
</glyph>
<glyph name="degree" format="1">
  <advance width="470"/>
  <unicode hex="00B0"/>
  <outline>
    <contour>
      <point x="235" y="334" type="curve" smooth="yes" name="hr00"/>
      <point x="340" y="334"/>
      <point x="420" y="414"/>
      <point x="420" y="522" type="curve" smooth="yes"/>
      <point x="420" y="630"/>
      <point x="340" y="710"/>
      <point x="235" y="710" type="curve" smooth="yes"/>
      <point x="130" y="710"/>
      <point x="50" y="630"/>
      <point x="50" y="522" type="curve" smooth="yes"/>
      <point x="50" y="414"/>
      <point x="130" y="334"/>
    </contour>
    <contour>
      <point x="235" y="429" type="curve" smooth="yes"/>
      <point x="184" y="429"/>
      <point x="151" y="469"/>
      <point x="151" y="522" type="curve" smooth="yes"/>
      <point x="151" y="575"/>
      <point x="184" y="615"/>
      <point x="235" y="615" type="curve" smooth="yes"/>
      <point x="286" y="615"/>
      <point x="319" y="575"/>
      <point x="319" y="522" type="curve" smooth="yes"/>
      <point x="319" y="469"/>
      <point x="286" y="429"/>
    </contour>
  </outline>
</glyph>
<glyph name="mu" format="1">
  <advance width="602"/>
  <unicode hex="00B5"/>
  <outline>
    <contour>
      <point x="216" y="-200" type="line"/>
      <point x="216" y="-106" type="line"/>
      <point x="187" y="30" type="line"/>
      <point x="192" y="30" type="line"/>
      <point x="203" y="6"/>
      <point x="226" y="-12"/>
      <point x="264" y="-12" type="curve" smooth="yes"/>
      <point x="324" y="-12"/>
      <point x="363" y="34"/>
      <point x="380" y="88" type="curve"/>
      <point x="385" y="88" type="line"/>
      <point x="385" y="0" type="line" name="hr01"/>
      <point x="533" y="0" type="line"/>
      <point x="533" y="525" type="line"/>
      <point x="385" y="525" type="line"/>
      <point x="385" y="184" type="line"/>
      <point x="385" y="135"/>
      <point x="338" y="108"/>
      <point x="291" y="108" type="curve" smooth="yes" name="hr02"/>
      <point x="238" y="108"/>
      <point x="217" y="143"/>
      <point x="217" y="206" type="curve" smooth="yes"/>
      <point x="217" y="525" type="line"/>
      <point x="69" y="525" type="line"/>
      <point x="69" y="-200" type="line"/>
    </contour>
  </outline>
</glyph>
<glyph name="periodcentered" format="1">
  <advance width="358"/>
  <unicode hex="00B7"/>
  <outline>
    <contour>
      <point x="179" y="213" type="curve" smooth="yes" name="hr00"/>
      <point x="239" y="213"/>
      <point x="267" y="247"/>
      <point x="267" y="293" type="curve" smooth="yes"/>
      <point x="267" y="313" type="line" smooth="yes"/>
      <point x="267" y="359"/>
      <point x="239" y="393"/>
      <point x="179" y="393" type="curve" smooth="yes"/>
      <point x="119" y="393"/>
      <point x="91" y="359"/>
      <point x="91" y="313" type="curve" smooth="yes"/>
      <point x="91" y="293" type="line" smooth="yes"/>
      <point x="91" y="247"/>
      <point x="119" y="213"/>
    </contour>
  </outline>
</glyph>
<glyph name="onesuperior" format="1">
  <advance width="344"/>
  <unicode hex="00B9"/>
  <outline>
    <contour>
      <point x="324" y="329" type="line" name="hr00"/>
      <point x="324" y="408" type="line"/>
      <point x="243" y="408" type="line"/>
      <point x="243" y="698" type="line"/>
      <point x="137" y="698" type="line"/>
      <point x="25" y="642" type="line"/>
      <point x="63" y="570" type="line"/>
      <point x="142" y="606" type="line"/>
      <point x="142" y="408" type="line"/>
      <point x="49" y="408" type="line"/>
      <point x="49" y="329" type="line"/>
    </contour>
  </outline>
</glyph>
<glyph name="ordmasculine" format="1">
  <advance width="433"/>
  <unicode hex="00BA"/>
  <outline>
    <contour>
      <point x="217" y="324" type="curve" smooth="yes" name="hr00"/>
      <point x="329" y="324"/>
      <point x="396" y="397"/>
      <point x="396" y="514" type="curve" smooth="yes"/>
      <point x="396" y="631"/>
      <point x="329" y="704"/>
      <point x="217" y="704" type="curve" smooth="yes"/>
      <point x="105" y="704"/>
      <point x="38" y="631"/>
      <point x="38" y="514" type="curve" smooth="yes"/>
      <point x="38" y="397"/>
      <point x="105" y="324"/>
    </contour>
    <contour>
      <point x="217" y="402" type="curve" smooth="yes"/>
      <point x="172" y="402"/>
      <point x="145" y="430"/>
      <point x="145" y="485" type="curve" smooth="yes"/>
      <point x="145" y="543" type="line" smooth="yes"/>
      <point x="145" y="598"/>
      <point x="172" y="626"/>
      <point x="217" y="626" type="curve" smooth="yes"/>
      <point x="262" y="626"/>
      <point x="289" y="598"/>
      <point x="289" y="543" type="curve" smooth="yes"/>
      <point x="289" y="485" type="line" smooth="yes"/>
      <point x="289" y="430"/>
      <point x="262" y="402"/>
    </contour>
  </outline>
</glyph>
<glyph name="AE" format="1">
  <advance width="968"/>
  <unicode hex="00C6"/>
  <outline>
    <contour>
      <point x="438" y="0" type="line"/>
      <point x="913" y="0" type="line"/>
      <point x="913" y="135" type="line"/>
      <point x="589" y="135" type="line"/>
      <point x="589" y="286" type="line"/>
      <point x="867" y="286" type="line"/>
      <point x="867" y="420" type="line"/>
      <point x="589" y="420" type="line"/>
      <point x="589" y="563" type="line"/>
      <point x="913" y="563" type="line"/>
      <point x="913" y="698" type="line"/>
      <point x="340" y="698" type="line"/>
      <point x="-1" y="0" type="line"/>
      <point x="151" y="0" type="line"/>
      <point x="229" y="166" type="line" name="hr01"/>
      <point x="438" y="166" type="line"/>
    </contour>
    <contour>
      <point x="438" y="563" type="line"/>
      <point x="438" y="295" type="line"/>
      <point x="290" y="295" type="line"/>
      <point x="415" y="563" type="line"/>
    </contour>
    <contour>
      <point x="579" y="698" type="move" name="top"/>
    </contour>
  </outline>
</glyph>
<glyph name="Oslash" format="1">
  <advance width="714"/>
  <unicode hex="00D8"/>
  <outline>
    <contour>
      <point x="357" y="-12" type="curve" smooth="yes" name="hr00"/>
      <point x="542" y="-12"/>
      <point x="664" y="112"/>
      <point x="664" y="349" type="curve" smooth="yes"/>
      <point x="664" y="459"/>
      <point x="638" y="545"/>
      <point x="591" y="605" type="curve"/>
      <point x="652" y="695" type="line"/>
      <point x="560" y="754" type="line"/>
      <point x="507" y="676" type="line"/>
      <point x="464" y="698"/>
      <point x="413" y="710"/>
      <point x="357" y="710" type="curve" smooth="yes"/>
      <point x="172" y="710"/>
      <point x="50" y="586"/>
      <point x="50" y="349" type="curve" smooth="yes"/>
      <point x="50" y="239"/>
      <point x="76" y="153"/>
      <point x="123" y="93" type="curve"/>
      <point x="62" y="3" type="line"/>
      <point x="154" y="-56" type="line"/>
      <point x="207" y="22" type="line"/>
      <point x="250" y="0"/>
      <point x="301" y="-12"/>
    </contour>
    <contour>
      <point x="204" y="294" type="curve" smooth="yes"/>
      <point x="204" y="404" type="line" smooth="yes"/>
      <point x="204" y="520"/>
      <point x="261" y="586"/>
      <point x="357" y="586" type="curve" smooth="yes"/>
      <point x="389" y="586"/>
      <point x="417" y="579"/>
      <point x="439" y="565" type="curve"/>
      <point x="216" y="211" type="line"/>
      <point x="208" y="235"/>
      <point x="204" y="263"/>
    </contour>
    <contour>
      <point x="510" y="404" type="curve" smooth="yes"/>
      <point x="510" y="294" type="line" smooth="yes"/>
      <point x="510" y="178"/>
      <point x="453" y="112"/>
      <point x="357" y="112" type="curve" smooth="yes"/>
      <point x="325" y="112"/>
      <point x="297" y="119"/>
      <point x="275" y="133" type="curve"/>
      <point x="498" y="487" type="line"/>
      <point x="506" y="463"/>
      <point x="510" y="435"/>
    </contour>
    <contour>
      <point x="357" y="698" type="move" name="top"/>
    </contour>
  </outline>
</glyph>
<glyph name="Udieresis" format="1">
  <advance width="694"/>
  <unicode hex="00DC"/>
  <outline>
    <component base="U"/>
    <component base="dieresis.case" xOffset="47"/>
    <contour>
      <point x="347.0" y="0.0" type="move" name="bottom"/>
    </contour>
    <contour>
      <point x="455.0" y="0.0" type="move" name="bottomright"/>
    </contour>
  </outline>
</glyph>
<glyph name="ae" format="1">
  <advance width="864"/>
  <unicode hex="00E6"/>
  <outline>
    <contour>
      <point x="342" y="225" type="line" name="hr00"/>
      <point x="342" y="159" type="line" smooth="yes"/>
      <point x="342" y="111"/>
      <point x="300" y="91"/>
      <point x="254" y="91" type="curve" smooth="yes"/>
      <point x="206" y="91"/>
      <point x="183" y="113"/>
      <point x="183" y="152" type="curve" smooth="yes"/>
      <point x="183" y="166" type="line" smooth="yes"/>
      <point x="183" y="204"/>
      <point x="217" y="225"/>
      <point x="270" y="225" type="curve" smooth="yes"/>
    </contour>
    <contour>
      <point x="491" y="312" type="line"/>
      <point x="491" y="320" type="line" smooth="yes"/>
      <point x="491" y="385"/>
      <point x="528" y="428"/>
      <point x="587" y="428" type="curve" smooth="yes"/>
      <point x="646" y="428"/>
      <point x="675" y="385"/>
      <point x="675" y="321" type="curve" smooth="yes"/>
      <point x="675" y="312" type="line"/>
    </contour>
    <contour>
      <point x="610" y="106" type="curve" smooth="yes"/>
      <point x="534" y="106"/>
      <point x="490" y="149"/>
      <point x="490" y="217" type="curve" smooth="yes"/>
      <point x="490" y="225" type="line"/>
      <point x="828" y="225" type="line"/>
      <point x="828" y="269" type="line" smooth="yes"/>
      <point x="828" y="411"/>
      <point x="762" y="537"/>
      <point x="588" y="537" type="curve" smooth="yes"/>
      <point x="513" y="537"/>
      <point x="452" y="513"/>
      <point x="420" y="463" type="curve"/>
      <point x="414" y="463" type="line"/>
      <point x="381" y="515"/>
      <point x="330" y="537"/>
      <point x="266" y="537" type="curve" smooth="yes"/>
      <point x="156" y="537"/>
      <point x="96" y="499"/>
      <point x="54" y="437" type="curve"/>
      <point x="142" y="359" type="line"/>
      <point x="165" y="391"/>
      <point x="196" y="421"/>
      <point x="255" y="421" type="curve" smooth="yes"/>
      <point x="317" y="421"/>
      <point x="342" y="389"/>
      <point x="342" y="338" type="curve" smooth="yes"/>
      <point x="342" y="312" type="line"/>
      <point x="259" y="312" type="line" smooth="yes"/>
      <point x="128" y="312"/>
      <point x="34" y="257"/>
      <point x="34" y="144" type="curve" smooth="yes"/>
      <point x="34" y="54"/>
      <point x="92" y="-12"/>
      <point x="198" y="-12" type="curve" smooth="yes"/>
      <point x="308" y="-12"/>
      <point x="361" y="34"/>
      <point x="383" y="91" type="curve"/>
      <point x="389" y="91" type="line"/>
      <point x="417" y="33"/>
      <point x="494" y="-12"/>
      <point x="593" y="-12" type="curve"/>
      <point x="689" y="-12"/>
      <point x="766" y="21"/>
      <point x="813" y="75" type="curve"/>
      <point x="739" y="167" type="line"/>
      <point x="710" y="137"/>
      <point x="671" y="106"/>
    </contour>
    <contour>
      <point x="432" y="540" type="move" name="top"/>
    </contour>
  </outline>
</glyph>
<glyph name="ccedilla" format="1">
  <advance width="517"/>
  <unicode hex="00E7"/>
  <outline>
    <contour>
      <point x="281" y="537" type="curve" smooth="yes" name="hr00"/>
      <point x="123" y="537"/>
      <point x="36" y="431"/>
      <point x="36" y="263" type="curve" smooth="yes"/>
      <point x="36" y="116"/>
      <point x="103" y="16"/>
      <point x="225" y="-7" type="curve"/>
      <point x="211" y="-74" type="line"/>
      <point x="232" y="-76" type="line" smooth="yes"/>
      <point x="294" y="-82"/>
      <point x="307" y="-101"/>
      <point x="307" y="-116" type="curve" smooth="yes"/>
      <point x="307" y="-133"/>
      <point x="288" y="-141"/>
      <point x="263" y="-141" type="curve" smooth="yes"/>
      <point x="232" y="-141"/>
      <point x="210" y="-128"/>
      <point x="197" y="-112" type="curve"/>
      <point x="151" y="-168" type="line"/>
      <point x="168" y="-188"/>
      <point x="206" y="-212"/>
      <point x="275" y="-212" type="curve" smooth="yes"/>
      <point x="343" y="-212"/>
      <point x="407" y="-189"/>
      <point x="407" y="-121" type="curve" smooth="yes"/>
      <point x="407" y="-72"/>
      <point x="374" y="-52"/>
      <point x="334" y="-52" type="curve" smooth="yes"/>
      <point x="318" y="-52"/>
      <point x="302" y="-55"/>
      <point x="286" y="-59" type="curve"/>
      <point x="282" y="-55" type="line"/>
      <point x="291" y="-12" type="line"/>
      <point x="388" y="-9"/>
      <point x="460" y="36"/>
      <point x="494" y="133" type="curve"/>
      <point x="379" y="183" type="line"/>
      <point x="364" y="141"/>
      <point x="340" y="104"/>
      <point x="281" y="104" type="curve" smooth="yes"/>
      <point x="221" y="104"/>
      <point x="190" y="147"/>
      <point x="190" y="213" type="curve" smooth="yes"/>
      <point x="190" y="311" type="line" smooth="yes"/>
      <point x="190" y="377"/>
      <point x="221" y="420"/>
      <point x="281" y="420" type="curve" smooth="yes"/>
      <point x="333" y="420"/>
      <point x="362" y="388"/>
      <point x="371" y="348" type="curve"/>
      <point x="491" y="400" type="line"/>
      <point x="460" y="486"/>
      <point x="387" y="537"/>
    </contour>
  </outline>
</glyph>
<glyph name="ntilde" format="1">
  <advance width="596"/>
  <unicode hex="00F1"/>
  <outline>
    <component base="n"/>
    <component base="tilde" xOffset="-1"/>
    <contour>
      <point x="302.0" y="0.0" type="move" name="bottom"/>
    </contour>
  </outline>
</glyph>
<glyph name="oslash" format="1">
  <advance width="572"/>
  <unicode hex="00F8"/>
  <outline>
    <contour>
      <point x="94" y="-50" type="line" name="hr00"/>
      <point x="154" y="21" type="line"/>
      <point x="190" y="0"/>
      <point x="235" y="-12"/>
      <point x="286" y="-12" type="curve" smooth="yes"/>
      <point x="440" y="-12"/>
      <point x="532" y="93"/>
      <point x="532" y="262" type="curve" smooth="yes"/>
      <point x="532" y="329"/>
      <point x="518" y="387"/>
      <point x="490" y="431" type="curve"/>
      <point x="558" y="515" type="line"/>
      <point x="478" y="575" type="line"/>
      <point x="418" y="503" type="line"/>
      <point x="381" y="525"/>
      <point x="337" y="537"/>
      <point x="286" y="537" type="curve" smooth="yes"/>
      <point x="132" y="537"/>
      <point x="40" y="432"/>
      <point x="40" y="263" type="curve" smooth="yes"/>
      <point x="40" y="195"/>
      <point x="54" y="138"/>
      <point x="81" y="93" type="curve"/>
      <point x="14" y="10" type="line"/>
    </contour>
    <contour>
      <point x="286" y="96" type="curve" smooth="yes"/>
      <point x="260" y="96"/>
      <point x="238" y="104"/>
      <point x="222" y="119" type="curve"/>
      <point x="383" y="312" type="line"/>
      <point x="383" y="214" type="line" smooth="yes"/>
      <point x="383" y="143"/>
      <point x="347" y="96"/>
    </contour>
    <contour>
      <point x="189" y="311" type="line" smooth="yes"/>
      <point x="189" y="382"/>
      <point x="225" y="429"/>
      <point x="286" y="429" type="curve" smooth="yes"/>
      <point x="311" y="429"/>
      <point x="333" y="421"/>
      <point x="349" y="406" type="curve"/>
      <point x="189" y="214" type="line"/>
    </contour>
    <contour>
      <point x="285" y="540" type="move" name="top"/>
    </contour>
  </outline>
</glyph>
<glyph name="ucircumflex" format="1">
  <advance width="596"/>
  <unicode hex="00FB"/>
  <outline>
    <component base="u"/>
    <component base="circumflex" xOffset="-5"/>
    <contour>
      <point x="295.0" y="0.0" type="move" name="bottom"/>
    </contour>
    <contour>
      <point x="528.0" y="0.0" type="move" name="bottomright"/>
    </contour>
  </outline>
</glyph>
<glyph name="Aogonek" format="1">
  <advance width="685"/>
  <unicode hex="0104"/>
  <outline>
    <contour>
      <point x="20" y="0" type="line" name="hr00"/>
      <point x="174" y="0" type="line"/>
      <point x="224" y="166" type="line"/>
      <point x="457" y="166" type="line"/>
      <point x="507" y="0" type="line"/>
      <point x="569" y="0" type="line"/>
      <point x="570" y="-4" type="line"/>
      <point x="496" y="-38"/>
      <point x="451" y="-71"/>
      <point x="451" y="-127" type="curve" smooth="yes"/>
      <point x="451" y="-191"/>
      <point x="509" y="-212"/>
      <point x="575" y="-212" type="curve" smooth="yes"/>
      <point x="638" y="-212"/>
      <point x="680" y="-193"/>
      <point x="697" y="-161" type="curve"/>
      <point x="644" y="-110" type="line"/>
      <point x="630" y="-126"/>
      <point x="613" y="-138"/>
      <point x="589" y="-138" type="curve" smooth="yes"/>
      <point x="569" y="-138"/>
      <point x="551" y="-130"/>
      <point x="551" y="-105" type="curve" smooth="yes"/>
      <point x="551" y="-81"/>
      <point x="567" y="-60"/>
      <point x="665" y="0" type="curve"/>
      <point x="438" y="698" type="line"/>
      <point x="250" y="698" type="line"/>
    </contour>
    <contour>
      <point x="420" y="295" type="line"/>
      <point x="260" y="295" type="line"/>
      <point x="337" y="560" type="line"/>
      <point x="342" y="560" type="line"/>
    </contour>
  </outline>
</glyph>
<glyph name="aogonek" format="1">
  <advance width="569"/>
  <unicode hex="0105"/>
  <outline>
    <contour>
      <point x="539" y="116" type="line"/>
      <point x="490" y="116" type="line"/>
      <point x="490" y="345" type="line" smooth="yes"/>
      <point x="490" y="469"/>
      <point x="414" y="537"/>
      <point x="266" y="537" type="curve" smooth="yes"/>
      <point x="156" y="537"/>
      <point x="96" y="499"/>
      <point x="54" y="437" type="curve"/>
      <point x="142" y="359" type="line"/>
      <point x="165" y="391"/>
      <point x="196" y="421"/>
      <point x="255" y="421" type="curve" smooth="yes"/>
      <point x="317" y="421"/>
      <point x="342" y="389"/>
      <point x="342" y="338" type="curve" smooth="yes"/>
      <point x="342" y="305" type="line"/>
      <point x="259" y="305" type="line" smooth="yes"/>
      <point x="120" y="305"/>
      <point x="34" y="252"/>
      <point x="34" y="141" type="curve" smooth="yes"/>
      <point x="34" y="50"/>
      <point x="92" y="-12"/>
      <point x="197" y="-12" type="curve" smooth="yes" name="hr01"/>
      <point x="277" y="-12"/>
      <point x="335" y="24"/>
      <point x="351" y="92" type="curve"/>
      <point x="357" y="92" type="line"/>
      <point x="365" y="41"/>
      <point x="397" y="7"/>
      <point x="442" y="1" type="curve"/>
      <point x="444" y="-4" type="line"/>
      <point x="370" y="-38"/>
      <point x="325" y="-71"/>
      <point x="325" y="-127" type="curve" smooth="yes"/>
      <point x="325" y="-191"/>
      <point x="383" y="-212"/>
      <point x="449" y="-212" type="curve" smooth="yes"/>
      <point x="512" y="-212"/>
      <point x="554" y="-193"/>
      <point x="571" y="-161" type="curve"/>
      <point x="518" y="-110" type="line"/>
      <point x="504" y="-126"/>
      <point x="487" y="-138"/>
      <point x="463" y="-138" type="curve" smooth="yes"/>
      <point x="443" y="-138"/>
      <point x="425" y="-130"/>
      <point x="425" y="-105" type="curve" smooth="yes"/>
      <point x="425" y="-81"/>
      <point x="441" y="-60"/>
      <point x="539" y="0" type="curve" name="hr02"/>
    </contour>
    <contour>
      <point x="342" y="221" type="line"/>
      <point x="342" y="159" type="line" smooth="yes"/>
      <point x="342" y="111"/>
      <point x="301" y="91"/>
      <point x="252" y="91" type="curve" smooth="yes" name="hr03"/>
      <point x="208" y="91"/>
      <point x="183" y="109"/>
      <point x="183" y="147" type="curve" smooth="yes"/>
      <point x="183" y="162" type="line" smooth="yes"/>
      <point x="183" y="200"/>
      <point x="213" y="221"/>
      <point x="270" y="221" type="curve" smooth="yes"/>
    </contour>
  </outline>
</glyph>
<glyph name="dcroat" format="1">
  <advance width="608"/>
  <unicode hex="0111"/>
  <outline>
    <contour>
      <point x="391" y="0" type="line"/>
      <point x="539" y="0" type="line"/>
      <point x="539" y="590" type="line"/>
      <point x="600" y="590" type="line"/>
      <point x="600" y="690" type="line"/>
      <point x="539" y="690" type="line"/>
      <point x="539" y="740" type="line"/>
      <point x="391" y="740" type="line"/>
      <point x="391" y="690" type="line"/>
      <point x="250" y="690" type="line"/>
      <point x="250" y="590" type="line"/>
      <point x="391" y="590" type="line"/>
      <point x="391" y="437" type="line"/>
      <point x="386" y="437" type="line"/>
      <point x="371" y="495"/>
      <point x="313" y="537"/>
      <point x="245" y="537" type="curve" smooth="yes"/>
      <point x="112" y="537"/>
      <point x="43" y="441"/>
      <point x="43" y="263" type="curve" smooth="yes"/>
      <point x="43" y="85"/>
      <point x="112" y="-12"/>
      <point x="245" y="-12" type="curve" smooth="yes" name="hr01"/>
      <point x="313" y="-12"/>
      <point x="371" y="31"/>
      <point x="386" y="88" type="curve" name="hr02"/>
      <point x="391" y="88" type="line"/>
    </contour>
    <contour>
      <point x="294" y="108" type="curve" smooth="yes" name="hr03"/>
      <point x="238" y="108"/>
      <point x="197" y="151"/>
      <point x="197" y="217" type="curve" smooth="yes"/>
      <point x="197" y="308" type="line" smooth="yes"/>
      <point x="197" y="374"/>
      <point x="238" y="417"/>
      <point x="294" y="417" type="curve" smooth="yes"/>
      <point x="350" y="417"/>
      <point x="391" y="388"/>
      <point x="391" y="340" type="curve"/>
      <point x="391" y="185" type="line"/>
      <point x="391" y="137"/>
      <point x="350" y="108"/>
    </contour>
  </outline>
</glyph>
<glyph name="Eogonek" format="1">
  <advance width="607"/>
  <unicode hex="0118"/>
  <outline>
    <contour>
      <point x="77" y="0" type="line" name="hr00"/>
      <point x="457" y="0" type="line"/>
      <point x="458" y="-4" type="line"/>
      <point x="384" y="-38"/>
      <point x="339" y="-71"/>
      <point x="339" y="-127" type="curve" smooth="yes"/>
      <point x="339" y="-191"/>
      <point x="397" y="-212"/>
      <point x="463" y="-212" type="curve" smooth="yes"/>
      <point x="526" y="-212"/>
      <point x="568" y="-193"/>
      <point x="585" y="-161" type="curve"/>
      <point x="532" y="-110" type="line"/>
      <point x="518" y="-126"/>
      <point x="501" y="-138"/>
      <point x="477" y="-138" type="curve" smooth="yes"/>
      <point x="457" y="-138"/>
      <point x="439" y="-130"/>
      <point x="439" y="-105" type="curve" smooth="yes"/>
      <point x="439" y="-81"/>
      <point x="454" y="-60"/>
      <point x="552" y="0" type="curve"/>
      <point x="552" y="135" type="line"/>
      <point x="229" y="135" type="line"/>
      <point x="229" y="286" type="line"/>
      <point x="506" y="286" type="line"/>
      <point x="506" y="420" type="line"/>
      <point x="229" y="420" type="line"/>
      <point x="229" y="563" type="line"/>
      <point x="552" y="563" type="line"/>
      <point x="552" y="698" type="line"/>
      <point x="77" y="698" type="line"/>
    </contour>
  </outline>
</glyph>
<glyph name="eogonek" format="1">
  <advance width="562"/>
  <unicode hex="0119"/>
  <outline>
    <contour>
      <point x="336" y="-212" type="curve" smooth="yes" name="hr00"/>
      <point x="399" y="-212"/>
      <point x="440" y="-193"/>
      <point x="457" y="-161" type="curve"/>
      <point x="405" y="-110" type="line"/>
      <point x="391" y="-126"/>
      <point x="374" y="-138"/>
      <point x="351" y="-138" type="curve" smooth="yes"/>
      <point x="331" y="-138"/>
      <point x="313" y="-129"/>
      <point x="313" y="-106" type="curve" smooth="yes"/>
      <point x="313" y="-77"/>
      <point x="344" y="-53"/>
      <point x="402" y="-10" type="curve" smooth="yes"/>
      <point x="462" y="34"/>
      <point x="494" y="58"/>
      <point x="509" y="75" type="curve"/>
      <point x="435" y="167" type="line"/>
      <point x="406" y="136"/>
      <point x="365" y="104"/>
      <point x="307" y="104" type="curve" smooth="yes"/>
      <point x="226" y="104"/>
      <point x="189" y="148"/>
      <point x="189" y="217" type="curve" smooth="yes"/>
      <point x="189" y="225" type="line"/>
      <point x="526" y="225" type="line"/>
      <point x="526" y="269" type="line" smooth="yes"/>
      <point x="526" y="411"/>
      <point x="456" y="537"/>
      <point x="282" y="537" type="curve" smooth="yes"/>
      <point x="124" y="537"/>
      <point x="36" y="429"/>
      <point x="36" y="263" type="curve" smooth="yes"/>
      <point x="36" y="95"/>
      <point x="125" y="-12"/>
      <point x="283" y="-12" type="curve" smooth="yes"/>
      <point x="295" y="-12"/>
      <point x="309" y="-12"/>
      <point x="327" y="-8" type="curve"/>
      <point x="328" y="-12" type="line"/>
      <point x="259" y="-42"/>
      <point x="214" y="-72"/>
      <point x="214" y="-128" type="curve" smooth="yes"/>
      <point x="214" y="-191"/>
      <point x="272" y="-212"/>
    </contour>
    <contour>
      <point x="189" y="312" type="line"/>
      <point x="189" y="320" type="line" smooth="yes"/>
      <point x="189" y="385"/>
      <point x="226" y="428"/>
      <point x="285" y="428" type="curve" smooth="yes"/>
      <point x="344" y="428"/>
      <point x="373" y="385"/>
      <point x="373" y="321" type="curve" smooth="yes"/>
      <point x="373" y="312" type="line"/>
    </contour>
  </outline>
</glyph>
<glyph name="Hbar" format="1">
  <advance width="734"/>
  <unicode hex="0126"/>
  <outline>
    <contour>
      <point x="500" y="0" type="line" name="hr00"/>
      <point x="652" y="0" type="line"/>
      <point x="652" y="506" type="line"/>
      <point x="726" y="506" type="line"/>
      <point x="726" y="620" type="line"/>
      <point x="652" y="620" type="line"/>
      <point x="652" y="698" type="line"/>
      <point x="500" y="698" type="line"/>
      <point x="500" y="620" type="line"/>
      <point x="234" y="620" type="line"/>
      <point x="234" y="698" type="line"/>
      <point x="82" y="698" type="line"/>
      <point x="82" y="620" type="line"/>
      <point x="8" y="620" type="line"/>
      <point x="8" y="506" type="line"/>
      <point x="82" y="506" type="line"/>
      <point x="82" y="0" type="line"/>
      <point x="234" y="0" type="line"/>
      <point x="234" y="286" type="line"/>
      <point x="500" y="286" type="line"/>
    </contour>
    <contour>
      <point x="234" y="420" type="line"/>
      <point x="234" y="506" type="line"/>
      <point x="500" y="506" type="line"/>
      <point x="500" y="420" type="line"/>
    </contour>
  </outline>
</glyph>
<glyph name="Iogonek" format="1">
  <advance width="432"/>
  <unicode hex="012E"/>
  <outline>
    <contour>
      <point x="50" y="0" type="line"/>
      <point x="287" y="0" type="line"/>
      <point x="288" y="-4" type="line"/>
      <point x="214" y="-38"/>
      <point x="169" y="-71"/>
      <point x="169" y="-127" type="curve" smooth="yes"/>
      <point x="169" y="-191"/>
      <point x="227" y="-212"/>
      <point x="293" y="-212" type="curve" smooth="yes"/>
      <point x="356" y="-212"/>
      <point x="398" y="-193"/>
      <point x="415" y="-161" type="curve"/>
      <point x="362" y="-110" type="line"/>
      <point x="348" y="-126"/>
      <point x="331" y="-138"/>
      <point x="307" y="-138" type="curve" smooth="yes"/>
      <point x="287" y="-138"/>
      <point x="269" y="-130"/>
      <point x="269" y="-105" type="curve" smooth="yes"/>
      <point x="269" y="-81"/>
      <point x="285" y="-60"/>
      <point x="383" y="0" type="curve"/>
      <point x="383" y="121" type="line"/>
      <point x="292" y="121" type="line" name="hr01"/>
      <point x="292" y="577" type="line"/>
      <point x="383" y="577" type="line"/>
      <point x="383" y="698" type="line"/>
      <point x="50" y="698" type="line"/>
      <point x="50" y="577" type="line"/>
      <point x="140" y="577" type="line"/>
      <point x="140" y="121" type="line"/>
      <point x="50" y="121" type="line"/>
    </contour>
  </outline>
</glyph>
<glyph name="iogonek" format="1">
  <advance width="286"/>
  <unicode hex="012F"/>
  <outline>
    <contour>
      <point x="69" y="0" type="line"/>
      <point x="121" y="0" type="line"/>
      <point x="122" y="-4" type="line"/>
      <point x="48" y="-38"/>
      <point x="3" y="-71"/>
      <point x="3" y="-127" type="curve" smooth="yes" name="hr01"/>
      <point x="3" y="-191"/>
      <point x="61" y="-212"/>
      <point x="127" y="-212" type="curve" smooth="yes"/>
      <point x="190" y="-212"/>
      <point x="232" y="-193"/>
      <point x="249" y="-161" type="curve"/>
      <point x="196" y="-110" type="line"/>
      <point x="182" y="-126"/>
      <point x="165" y="-138"/>
      <point x="141" y="-138" type="curve" smooth="yes"/>
      <point x="121" y="-138"/>
      <point x="103" y="-130"/>
      <point x="103" y="-105" type="curve" smooth="yes"/>
      <point x="103" y="-81"/>
      <point x="119" y="-60"/>
      <point x="217" y="0" type="curve" name="hr02"/>
      <point x="217" y="525" type="line"/>
      <point x="69" y="525" type="line"/>
    </contour>
    <contour>
      <point x="143" y="581" type="curve" smooth="yes"/>
      <point x="203" y="581"/>
      <point x="229" y="612"/>
      <point x="229" y="654" type="curve" smooth="yes" name="hr03"/>
      <point x="229" y="676" type="line" smooth="yes"/>
      <point x="229" y="718"/>
      <point x="203" y="749"/>
      <point x="143" y="749" type="curve" smooth="yes"/>
      <point x="83" y="749"/>
      <point x="57" y="718"/>
      <point x="57" y="676" type="curve" smooth="yes"/>
      <point x="57" y="654" type="line" smooth="yes"/>
      <point x="57" y="612"/>
      <point x="83" y="581"/>
    </contour>
  </outline>
</glyph>
<glyph name="dotlessi" format="1">
  <advance width="286"/>
  <unicode hex="0131"/>
  <outline>
    <contour>
      <point x="217" y="0" type="line" name="hr00"/>
      <point x="217" y="525" type="line"/>
      <point x="69" y="525" type="line"/>
      <point x="69" y="0" type="line"/>
    </contour>
    <contour>
      <point x="143" y="540" type="move" name="top"/>
    </contour>
  </outline>
</glyph>
<glyph name="kgreenlandic" format="1">
  <advance width="577"/>
  <unicode hex="0138"/>
  <outline>
    <contour>
      <point x="404" y="0" type="line" name=""/>
      <point x="577" y="0" type="line"/>
      <point x="385" y="320" type="line"/>
      <point x="571" y="525" type="line"/>
      <point x="405" y="525" type="line"/>
      <point x="292" y="396" type="line"/>
      <point x="223" y="303" type="line"/>
      <point x="217" y="303" type="line"/>
      <point x="217" y="525" type="line"/>
      <point x="69" y="525" type="line"/>
      <point x="69" y="0" type="line"/>
      <point x="217" y="0" type="line"/>
      <point x="217" y="148" type="line"/>
      <point x="282" y="219" type="line"/>
    </contour>
    <contour>
      <point x="324.0" y="0.0" type="move" name="bottom"/>
    </contour>
    <contour>
      <point x="324.0" y="540.0" type="move" name="top"/>
    </contour>
  </outline>
</glyph>
<glyph name="Ldot" format="1">
  <advance width="530"/>
  <unicode hex="013F"/>
  <outline>
    <component base="L"/>
    <component base="dotaccent" xOffset="114" yOffset="-270"/>
    <contour>
      <point x="286.0" y="0.0" type="move" name="bottom"/>
    </contour>
    <contour>
      <point x="301.0" y="740.0" type="move" name="topright"/>
    </contour>
  </outline>
</glyph>
<glyph name="Eng" format="1">
  <advance width="724"/>
  <unicode hex="014A"/>
  <outline>
    <contour>
      <point x="220" y="0" type="line" name="hr00"/>
      <point x="220" y="470" type="line"/>
      <point x="223" y="470" type="line"/>
      <point x="290" y="330" type="line"/>
      <point x="481" y="0" type="line"/>
      <point x="504" y="0" type="line"/>
      <point x="504" y="-85" type="line"/>
      <point x="420" y="-85" type="line"/>
      <point x="420" y="-200" type="line"/>
      <point x="499" y="-200" type="line" smooth="yes"/>
      <point x="601" y="-200"/>
      <point x="647" y="-149"/>
      <point x="647" y="-56" type="curve" smooth="yes"/>
      <point x="647" y="698" type="line"/>
      <point x="504" y="698" type="line"/>
      <point x="504" y="228" type="line"/>
      <point x="501" y="228" type="line"/>
      <point x="434" y="368" type="line"/>
      <point x="243" y="698" type="line"/>
      <point x="77" y="698" type="line"/>
      <point x="77" y="0" type="line"/>
    </contour>
  </outline>
</glyph>
<glyph name="oe" format="1">
  <advance width="901"/>
  <unicode hex="0153"/>
  <outline>
    <contour>
      <point x="282" y="105" type="curve" smooth="yes" name="hr00"/>
      <point x="224" y="105"/>
      <point x="190" y="143"/>
      <point x="190" y="209" type="curve" smooth="yes"/>
      <point x="190" y="316" type="line" smooth="yes"/>
      <point x="190" y="382"/>
      <point x="224" y="420"/>
      <point x="282" y="420" type="curve" smooth="yes"/>
      <point x="340" y="420"/>
      <point x="374" y="382"/>
      <point x="374" y="316" type="curve" smooth="yes"/>
      <point x="374" y="209" type="line" smooth="yes"/>
      <point x="374" y="143"/>
      <point x="340" y="105"/>
    </contour>
    <contour>
      <point x="527" y="312" type="line"/>
      <point x="527" y="320" type="line" smooth="yes"/>
      <point x="527" y="385"/>
      <point x="564" y="428"/>
      <point x="623" y="428" type="curve" smooth="yes"/>
      <point x="682" y="428"/>
      <point x="711" y="385"/>
      <point x="711" y="321" type="curve" smooth="yes"/>
      <point x="711" y="312" type="line"/>
    </contour>
    <contour>
      <point x="630" y="-12" type="curve" smooth="yes"/>
      <point x="726" y="-12"/>
      <point x="803" y="21"/>
      <point x="850" y="75" type="curve"/>
      <point x="776" y="167" type="line"/>
      <point x="743" y="133"/>
      <point x="709" y="104"/>
      <point x="647" y="104" type="curve" smooth="yes"/>
      <point x="566" y="104"/>
      <point x="527" y="148"/>
      <point x="527" y="217" type="curve" smooth="yes"/>
      <point x="527" y="225" type="line"/>
      <point x="865" y="225" type="line"/>
      <point x="865" y="269" type="line" smooth="yes"/>
      <point x="865" y="432"/>
      <point x="781" y="537"/>
      <point x="625" y="537" type="curve" smooth="yes"/>
      <point x="541" y="537"/>
      <point x="481" y="509"/>
      <point x="454" y="463" type="curve"/>
      <point x="448" y="463" type="line"/>
      <point x="416" y="515"/>
      <point x="357" y="537"/>
      <point x="282" y="537" type="curve" smooth="yes"/>
      <point x="128" y="537"/>
      <point x="36" y="435"/>
      <point x="36" y="266" type="curve" smooth="yes"/>
      <point x="36" y="97"/>
      <point x="128" y="-12"/>
      <point x="282" y="-12" type="curve" smooth="yes"/>
      <point x="365" y="-12"/>
      <point x="422" y="15"/>
      <point x="448" y="62" type="curve"/>
      <point x="454" y="62" type="line"/>
      <point x="475" y="18"/>
      <point x="541" y="-12"/>
    </contour>
  </outline>
</glyph>
<glyph name="Scedilla" format="1">
  <advance width="624"/>
  <unicode hex="015E"/>
  <outline>
    <contour>
      <point x="312" y="576" type="curve" smooth="yes"/>
      <point x="384" y="576"/>
      <point x="429" y="549"/>
      <point x="462" y="510" type="curve"/>
      <point x="563" y="612" type="line"/>
      <point x="506" y="675"/>
      <point x="426" y="710"/>
      <point x="321" y="710" type="curve" smooth="yes"/>
      <point x="157" y="710"/>
      <point x="59" y="623"/>
      <point x="59" y="498" type="curve" smooth="yes"/>
      <point x="59" y="381"/>
      <point x="126" y="309"/>
      <point x="273" y="290" type="curve" smooth="yes"/>
      <point x="342" y="281" type="line" smooth="yes"/>
      <point x="407" y="272"/>
      <point x="423" y="244"/>
      <point x="423" y="206" type="curve" smooth="yes"/>
      <point x="423" y="155"/>
      <point x="387" y="122"/>
      <point x="313" y="122" type="curve" smooth="yes"/>
      <point x="245" y="122"/>
      <point x="185" y="149"/>
      <point x="138" y="202" type="curve"/>
      <point x="38" y="101" type="line"/>
      <point x="92" y="41"/>
      <point x="165" y="-3"/>
      <point x="268" y="-11" type="curve"/>
      <point x="255" y="-74" type="line"/>
      <point x="276" y="-76" type="line" smooth="yes"/>
      <point x="338" y="-82"/>
      <point x="351" y="-101"/>
      <point x="351" y="-116" type="curve" smooth="yes" name="hr01"/>
      <point x="351" y="-133"/>
      <point x="332" y="-141"/>
      <point x="307" y="-141" type="curve" smooth="yes"/>
      <point x="276" y="-141"/>
      <point x="254" y="-128"/>
      <point x="241" y="-112" type="curve"/>
      <point x="195" y="-168" type="line"/>
      <point x="212" y="-188"/>
      <point x="250" y="-212"/>
      <point x="319" y="-212" type="curve" smooth="yes"/>
      <point x="387" y="-212"/>
      <point x="451" y="-189"/>
      <point x="451" y="-121" type="curve" smooth="yes"/>
      <point x="451" y="-72"/>
      <point x="418" y="-52"/>
      <point x="378" y="-52" type="curve" smooth="yes"/>
      <point x="362" y="-52"/>
      <point x="346" y="-55"/>
      <point x="330" y="-59" type="curve"/>
      <point x="326" y="-55" type="line"/>
      <point x="335" y="-11" type="line"/>
      <point x="489" y="0"/>
      <point x="575" y="90"/>
      <point x="575" y="215" type="curve" smooth="yes" name="hr02"/>
      <point x="575" y="335"/>
      <point x="506" y="399"/>
      <point x="363" y="422" type="curve" smooth="yes"/>
      <point x="294" y="433" type="line" smooth="yes"/>
      <point x="236" y="442"/>
      <point x="211" y="460"/>
      <point x="211" y="508" type="curve" smooth="yes"/>
      <point x="211" y="550"/>
      <point x="244" y="576"/>
    </contour>
  </outline>
</glyph>
<glyph name="scedilla" format="1">
  <advance width="504"/>
  <unicode hex="015F"/>
  <outline>
    <contour>
      <point x="262" y="-212" type="curve" smooth="yes"/>
      <point x="330" y="-212"/>
      <point x="394" y="-189"/>
      <point x="394" y="-121" type="curve" smooth="yes"/>
      <point x="394" y="-72"/>
      <point x="361" y="-52"/>
      <point x="321" y="-52" type="curve" smooth="yes"/>
      <point x="305" y="-52"/>
      <point x="289" y="-55"/>
      <point x="273" y="-59" type="curve"/>
      <point x="269" y="-55" type="line"/>
      <point x="278" y="-11" type="line"/>
      <point x="396" y="0"/>
      <point x="472" y="70"/>
      <point x="472" y="163" type="curve" smooth="yes" name="hr01"/>
      <point x="472" y="254"/>
      <point x="413" y="306"/>
      <point x="299" y="321" type="curve" smooth="yes"/>
      <point x="240" y="329" type="line" smooth="yes"/>
      <point x="197" y="335"/>
      <point x="185" y="350"/>
      <point x="185" y="378" type="curve" smooth="yes"/>
      <point x="185" y="404"/>
      <point x="205" y="422"/>
      <point x="255" y="422" type="curve" smooth="yes"/>
      <point x="299" y="422"/>
      <point x="343" y="401"/>
      <point x="376" y="368" type="curve"/>
      <point x="461" y="455" type="line"/>
      <point x="408" y="507"/>
      <point x="357" y="537"/>
      <point x="247" y="537" type="curve" smooth="yes"/>
      <point x="122" y="537"/>
      <point x="43" y="467"/>
      <point x="43" y="366" type="curve" smooth="yes"/>
      <point x="43" y="271"/>
      <point x="101" y="219"/>
      <point x="220" y="204" type="curve" smooth="yes"/>
      <point x="277" y="197" type="line" smooth="yes"/>
      <point x="314" y="192"/>
      <point x="330" y="179"/>
      <point x="330" y="153" type="curve" smooth="yes"/>
      <point x="330" y="122"/>
      <point x="310" y="103"/>
      <point x="252" y="103" type="curve" smooth="yes"/>
      <point x="195" y="103"/>
      <point x="150" y="129"/>
      <point x="113" y="170" type="curve"/>
      <point x="26" y="82" type="line"/>
      <point x="73" y="29"/>
      <point x="130" y="-3"/>
      <point x="211" y="-10" type="curve"/>
      <point x="198" y="-74" type="line"/>
      <point x="219" y="-76" type="line" smooth="yes"/>
      <point x="281" y="-82"/>
      <point x="294" y="-101"/>
      <point x="294" y="-116" type="curve" smooth="yes" name="hr02"/>
      <point x="294" y="-133"/>
      <point x="275" y="-141"/>
      <point x="250" y="-141" type="curve" smooth="yes"/>
      <point x="219" y="-141"/>
      <point x="197" y="-128"/>
      <point x="184" y="-112" type="curve"/>
      <point x="138" y="-168" type="line"/>
      <point x="155" y="-188"/>
      <point x="193" y="-212"/>
    </contour>
  </outline>
</glyph>
<glyph name="Tcedilla" format="1">
  <advance width="584"/>
  <unicode hex="0162"/>
  <outline>
    <contour>
      <point x="306" y="-212" type="curve" smooth="yes"/>
      <point x="374" y="-212"/>
      <point x="438" y="-189"/>
      <point x="438" y="-121" type="curve" smooth="yes"/>
      <point x="438" y="-72"/>
      <point x="405" y="-52"/>
      <point x="365" y="-52" type="curve" smooth="yes"/>
      <point x="349" y="-52"/>
      <point x="333" y="-55"/>
      <point x="317" y="-59" type="curve"/>
      <point x="313" y="-55" type="line"/>
      <point x="324" y="0" type="line"/>
      <point x="368" y="0" type="line" name="hr01"/>
      <point x="368" y="563" type="line"/>
      <point x="557" y="563" type="line"/>
      <point x="557" y="698" type="line"/>
      <point x="27" y="698" type="line"/>
      <point x="27" y="563" type="line"/>
      <point x="216" y="563" type="line"/>
      <point x="216" y="0" type="line"/>
      <point x="257" y="0" type="line"/>
      <point x="242" y="-74" type="line"/>
      <point x="263" y="-76" type="line" smooth="yes"/>
      <point x="325" y="-82"/>
      <point x="338" y="-101"/>
      <point x="338" y="-116" type="curve" smooth="yes" name="hr02"/>
      <point x="338" y="-133"/>
      <point x="319" y="-141"/>
      <point x="294" y="-141" type="curve" smooth="yes"/>
      <point x="263" y="-141"/>
      <point x="241" y="-128"/>
      <point x="228" y="-112" type="curve"/>
      <point x="182" y="-168" type="line"/>
      <point x="199" y="-188"/>
      <point x="237" y="-212"/>
    </contour>
  </outline>
</glyph>
<glyph name="tcedilla" format="1">
  <advance width="383"/>
  <unicode hex="0163"/>
  <outline>
    <component base="t"/>
    <component base="commabelowcomb" xOffset="229"/>
    <contour>
      <point x="308.0" y="791.0" type="move" name="topright"/>
    </contour>
  </outline>
</glyph>
<glyph name="Tbar" format="1">
  <advance width="594"/>
  <unicode hex="0166"/>
  <outline>
    <contour>
      <point x="512" y="274" type="line" name="hr00"/>
      <point x="512" y="388" type="line"/>
      <point x="373" y="388" type="line"/>
      <point x="373" y="563" type="line"/>
      <point x="562" y="563" type="line"/>
      <point x="562" y="698" type="line"/>
      <point x="32" y="698" type="line"/>
      <point x="32" y="563" type="line"/>
      <point x="221" y="563" type="line"/>
      <point x="221" y="388" type="line"/>
      <point x="82" y="388" type="line"/>
      <point x="82" y="274" type="line"/>
      <point x="221" y="274" type="line"/>
      <point x="221" y="0" type="line"/>
      <point x="373" y="0" type="line"/>
      <point x="373" y="274" type="line"/>
    </contour>
  </outline>
</glyph>
<glyph name="tbar" format="1">
  <advance width="391"/>
  <unicode hex="0167"/>
  <outline>
    <contour>
      <point x="345" y="115" type="line" name="hr00"/>
      <point x="249" y="115" type="line"/>
      <point x="249" y="221" type="line"/>
      <point x="334" y="221" type="line"/>
      <point x="334" y="321" type="line"/>
      <point x="249" y="321" type="line"/>
      <point x="249" y="410" type="line"/>
      <point x="353" y="410" type="line"/>
      <point x="353" y="525" type="line"/>
      <point x="249" y="525" type="line"/>
      <point x="249" y="667" type="line"/>
      <point x="116" y="667" type="line"/>
      <point x="116" y="581" type="line" smooth="yes"/>
      <point x="116" y="545"/>
      <point x="104" y="525"/>
      <point x="64" y="525" type="curve" smooth="yes"/>
      <point x="27" y="525" type="line"/>
      <point x="27" y="410" type="line"/>
      <point x="101" y="410" type="line"/>
      <point x="101" y="321" type="line"/>
      <point x="37" y="321" type="line"/>
      <point x="37" y="221" type="line"/>
      <point x="101" y="221" type="line"/>
      <point x="101" y="153" type="line" smooth="yes"/>
      <point x="101" y="53"/>
      <point x="155" y="0"/>
      <point x="257" y="0" type="curve" smooth="yes"/>
      <point x="345" y="0" type="line"/>
    </contour>
  </outline>
</glyph>
<glyph name="Uogonek" format="1">
  <advance width="694"/>
  <unicode hex="0172"/>
  <outline>
    <contour>
      <point x="73" y="698" type="line" name="hr00"/>
      <point x="73" y="286" type="line" smooth="yes"/>
      <point x="73" y="80"/>
      <point x="147" y="-12"/>
      <point x="347" y="-12" type="curve" smooth="yes"/>
      <point x="372" y="-12"/>
      <point x="394" y="-11"/>
      <point x="415" y="-8" type="curve"/>
      <point x="417" y="-14" type="line"/>
      <point x="344" y="-45"/>
      <point x="298" y="-72"/>
      <point x="298" y="-128" type="curve" smooth="yes"/>
      <point x="298" y="-190"/>
      <point x="355" y="-212"/>
      <point x="421" y="-212" type="curve" smooth="yes"/>
      <point x="483" y="-212"/>
      <point x="525" y="-193"/>
      <point x="542" y="-161" type="curve"/>
      <point x="489" y="-110" type="line"/>
      <point x="475" y="-126"/>
      <point x="459" y="-138"/>
      <point x="435" y="-138" type="curve" smooth="yes"/>
      <point x="415" y="-138"/>
      <point x="397" y="-129"/>
      <point x="397" y="-106" type="curve" smooth="yes"/>
      <point x="397" y="-67"/>
      <point x="455" y="-38"/>
      <point x="499" y="-6" type="curve" smooth="yes"/>
      <point x="595" y="65"/>
      <point x="621" y="147"/>
      <point x="621" y="286" type="curve" smooth="yes"/>
      <point x="621" y="698" type="line"/>
      <point x="473" y="698" type="line"/>
      <point x="473" y="270" type="line" smooth="yes"/>
      <point x="473" y="172"/>
      <point x="437" y="123"/>
      <point x="347" y="123" type="curve" smooth="yes"/>
      <point x="257" y="123"/>
      <point x="221" y="172"/>
      <point x="221" y="270" type="curve" smooth="yes"/>
      <point x="221" y="698" type="line"/>
    </contour>
  </outline>
</glyph>
<glyph name="uogonek" format="1">
  <advance width="596"/>
  <unicode hex="0173"/>
  <outline>
    <contour>
      <point x="526" y="525" type="line"/>
      <point x="379" y="525" type="line"/>
      <point x="379" y="184" type="line"/>
      <point x="379" y="134"/>
      <point x="332" y="108"/>
      <point x="286" y="108" type="curve" smooth="yes"/>
      <point x="232" y="108"/>
      <point x="211" y="144"/>
      <point x="211" y="208" type="curve" smooth="yes"/>
      <point x="211" y="525" type="line"/>
      <point x="63" y="525" type="line"/>
      <point x="63" y="195" type="line" smooth="yes"/>
      <point x="63" y="63"/>
      <point x="120" y="-12"/>
      <point x="227" y="-12" type="curve" smooth="yes"/>
      <point x="313" y="-12"/>
      <point x="356" y="35"/>
      <point x="374" y="88" type="curve"/>
      <point x="379" y="88" type="line"/>
      <point x="379" y="0" type="line" name="hr01"/>
      <point x="431" y="0" type="line"/>
      <point x="432" y="-4" type="line"/>
      <point x="358" y="-38"/>
      <point x="313" y="-71"/>
      <point x="313" y="-127" type="curve" smooth="yes" name="hr02"/>
      <point x="313" y="-191"/>
      <point x="371" y="-212"/>
      <point x="437" y="-212" type="curve" smooth="yes"/>
      <point x="500" y="-212"/>
      <point x="542" y="-193"/>
      <point x="559" y="-161" type="curve"/>
      <point x="506" y="-110" type="line"/>
      <point x="492" y="-126"/>
      <point x="475" y="-138"/>
      <point x="451" y="-138" type="curve" smooth="yes"/>
      <point x="431" y="-138"/>
      <point x="413" y="-130"/>
      <point x="413" y="-105" type="curve" smooth="yes"/>
      <point x="413" y="-81"/>
      <point x="428" y="-60"/>
      <point x="526" y="0" type="curve" name="hr03"/>
    </contour>
  </outline>
</glyph>
<glyph name="longs" format="1">
  <advance width="312"/>
  <unicode hex="017F"/>
  <outline>
    <contour>
      <point x="95" y="0" type="line" name="hr00"/>
      <point x="243" y="0" type="line"/>
      <point x="243" y="625" type="line"/>
      <point x="348" y="625" type="line"/>
      <point x="348" y="740" type="line"/>
      <point x="252" y="740" type="line" smooth="yes"/>
      <point x="150" y="740"/>
      <point x="95" y="688"/>
      <point x="95" y="587" type="curve" smooth="yes"/>
      <point x="95" y="525" type="line"/>
      <point x="21" y="525" type="line"/>
      <point x="21" y="410" type="line"/>
      <point x="95" y="410" type="line"/>
    </contour>
  </outline>
</glyph>
<glyph name="Schwa" format="1">
  <advance width="714"/>
  <unicode hex="018F"/>
  <outline>
    <contour>
      <point x="50" y="349" type="line" smooth="yes" name="hr00"/>
      <point x="50" y="113"/>
      <point x="171" y="-12"/>
      <point x="357" y="-12" type="curve" smooth="yes"/>
      <point x="543" y="-12"/>
      <point x="664" y="113"/>
      <point x="664" y="349" type="curve" smooth="yes"/>
      <point x="664" y="585"/>
      <point x="543" y="710"/>
      <point x="357" y="710" type="curve" smooth="yes"/>
      <point x="199" y="710"/>
      <point x="110" y="622"/>
      <point x="74" y="513" type="curve"/>
      <point x="211" y="464" type="line"/>
      <point x="230" y="533"/>
      <point x="267" y="575"/>
      <point x="357" y="575" type="curve" smooth="yes"/>
      <point x="447" y="575"/>
      <point x="503" y="512"/>
      <point x="503" y="402" type="curve" smooth="yes"/>
      <point x="503" y="399" type="line"/>
      <point x="50" y="399" type="line"/>
    </contour>
    <contour>
      <point x="357" y="123" type="curve" smooth="yes"/>
      <point x="273" y="123"/>
      <point x="219" y="177"/>
      <point x="212" y="274" type="curve"/>
      <point x="502" y="274" type="line"/>
      <point x="495" y="177"/>
      <point x="441" y="123"/>
    </contour>
    <contour>
      <point x="357.0" y="0.0" type="move" name="bottom"/>
    </contour>
    <contour>
      <point x="351.0" y="698.0" type="move" name="top"/>
    </contour>
  </outline>
</glyph>
<glyph name="Ohorn" format="1">
  <advance width="714"/>
  <unicode hex="01A0"/>
  <outline>
    <contour>
      <point x="561" y="804" type="line"/>
      <point x="561" y="698" type="line"/>
      <point x="450" y="698" type="line"/>
      <point x="422" y="706"/>
      <point x="390" y="710"/>
      <point x="357" y="710" type="curve" smooth="yes" name="hr01"/>
      <point x="172" y="710"/>
      <point x="50" y="586"/>
      <point x="50" y="349" type="curve" smooth="yes"/>
      <point x="50" y="112"/>
      <point x="172" y="-12"/>
      <point x="357" y="-12" type="curve" smooth="yes"/>
      <point x="542" y="-12"/>
      <point x="664" y="112"/>
      <point x="664" y="349" type="curve" smooth="yes"/>
      <point x="664" y="462"/>
      <point x="636" y="549"/>
      <point x="587" y="609" type="curve" name="hr02"/>
      <point x="665" y="610"/>
      <point x="685" y="645"/>
      <point x="685" y="710" type="curve" smooth="yes" name="hr03"/>
      <point x="685" y="804" type="line"/>
    </contour>
    <contour>
      <point x="357" y="123" type="curve" smooth="yes"/>
      <point x="266" y="123"/>
      <point x="211" y="186"/>
      <point x="211" y="297" type="curve" smooth="yes"/>
      <point x="211" y="401" type="line" smooth="yes"/>
      <point x="211" y="512"/>
      <point x="266" y="575"/>
      <point x="357" y="575" type="curve" smooth="yes"/>
      <point x="448" y="575"/>
      <point x="503" y="512"/>
      <point x="503" y="401" type="curve" smooth="yes" name="hr04"/>
      <point x="503" y="297" type="line" smooth="yes"/>
      <point x="503" y="186"/>
      <point x="448" y="123"/>
    </contour>
    <contour>
      <point x="357" y="0" type="move" name="bottom"/>
    </contour>
    <contour>
      <point x="357" y="698" type="move" name="top"/>
    </contour>
  </outline>
</glyph>
<glyph name="ohorn" format="1">
  <advance width="564"/>
  <unicode hex="01A1"/>
  <outline>
    <contour>
      <point x="427" y="631" type="line"/>
      <point x="427" y="525" type="line"/>
      <point x="367" y="525" type="line"/>
      <point x="341" y="533"/>
      <point x="313" y="537"/>
      <point x="282" y="537" type="curve" smooth="yes" name="hr01"/>
      <point x="128" y="537"/>
      <point x="36" y="435"/>
      <point x="36" y="266" type="curve" smooth="yes"/>
      <point x="36" y="97"/>
      <point x="128" y="-12"/>
      <point x="282" y="-12" type="curve" smooth="yes"/>
      <point x="436" y="-12"/>
      <point x="528" y="97"/>
      <point x="528" y="266" type="curve" smooth="yes"/>
      <point x="528" y="336"/>
      <point x="515" y="390"/>
      <point x="483" y="439" type="curve" name="hr02"/>
      <point x="532" y="446"/>
      <point x="551" y="475"/>
      <point x="551" y="537" type="curve" smooth="yes" name="hr03"/>
      <point x="551" y="631" type="line"/>
    </contour>
    <contour>
      <point x="282" y="105" type="curve" smooth="yes"/>
      <point x="224" y="105"/>
      <point x="190" y="143"/>
      <point x="190" y="209" type="curve" smooth="yes"/>
      <point x="190" y="316" type="line" smooth="yes"/>
      <point x="190" y="382"/>
      <point x="224" y="420"/>
      <point x="282" y="420" type="curve" smooth="yes"/>
      <point x="340" y="420"/>
      <point x="374" y="382"/>
      <point x="374" y="316" type="curve" smooth="yes" name="hr04"/>
      <point x="374" y="209" type="line" smooth="yes"/>
      <point x="374" y="143"/>
      <point x="340" y="105"/>
    </contour>
    <contour>
      <point x="281" y="0" type="move" name="bottom"/>
    </contour>
    <contour>
      <point x="281" y="540" type="move" name="top"/>
    </contour>
  </outline>
</glyph>
<glyph name="uhorn" format="1">
  <advance width="596"/>
  <unicode hex="01B0"/>
  <outline>
    <contour>
      <point x="590" y="631" type="line"/>
      <point x="466" y="631" type="line"/>
      <point x="466" y="525" type="line"/>
      <point x="379" y="525" type="line" name="hr01"/>
      <point x="379" y="184" type="line" smooth="yes"/>
      <point x="379" y="134"/>
      <point x="332" y="108"/>
      <point x="286" y="108" type="curve" smooth="yes"/>
      <point x="232" y="108"/>
      <point x="211" y="144"/>
      <point x="211" y="208" type="curve" smooth="yes"/>
      <point x="211" y="525" type="line"/>
      <point x="63" y="525" type="line"/>
      <point x="63" y="195" type="line" smooth="yes"/>
      <point x="63" y="63"/>
      <point x="120" y="-12"/>
      <point x="227" y="-12" type="curve" smooth="yes"/>
      <point x="313" y="-12"/>
      <point x="356" y="35"/>
      <point x="374" y="88" type="curve"/>
      <point x="379" y="88" type="line"/>
      <point x="379" y="0" type="line" name="hr02"/>
      <point x="526" y="0" type="line"/>
      <point x="526" y="439" type="line"/>
      <point x="575" y="447"/>
      <point x="590" y="480"/>
      <point x="590" y="537" type="curve" smooth="yes" name="hr03"/>
    </contour>
    <contour>
      <point x="294" y="0" type="move" name="bottom"/>
    </contour>
    <contour>
      <point x="294" y="540" type="move" name="top"/>
    </contour>
  </outline>
</glyph>
<glyph name="dotlessj" format="1">
  <advance width="286"/>
  <unicode hex="0237"/>
  <outline>
    <contour>
      <point x="-9" y="-200" type="line" name="hr00"/>
      <point x="69" y="-200" type="line" smooth="yes"/>
      <point x="172" y="-200"/>
      <point x="217" y="-149"/>
      <point x="217" y="-56" type="curve" smooth="yes"/>
      <point x="217" y="525" type="line"/>
      <point x="69" y="525" type="line"/>
      <point x="69" y="-85" type="line"/>
      <point x="-9" y="-85" type="line"/>
    </contour>
    <contour>
      <point x="143" y="540" type="move" name="top"/>
    </contour>
  </outline>
</glyph>
<glyph name="schwa" format="1">
  <advance width="562"/>
  <unicode hex="0259"/>
  <outline>
    <contour>
      <point x="36" y="300" type="line" name="hr00"/>
      <point x="36" y="256" type="line" smooth="yes"/>
      <point x="36" y="114"/>
      <point x="106" y="-12"/>
      <point x="280" y="-12" type="curve" smooth="yes"/>
      <point x="438" y="-12"/>
      <point x="526" y="96"/>
      <point x="526" y="262" type="curve" smooth="yes"/>
      <point x="526" y="430"/>
      <point x="437" y="537"/>
      <point x="279" y="537" type="curve" smooth="yes"/>
      <point x="184" y="537"/>
      <point x="109" y="504"/>
      <point x="62" y="450" type="curve"/>
      <point x="136" y="358" type="line"/>
      <point x="162" y="386"/>
      <point x="195" y="421"/>
      <point x="262" y="421" type="curve" smooth="yes"/>
      <point x="338" y="421"/>
      <point x="373" y="377"/>
      <point x="373" y="308" type="curve" smooth="yes"/>
      <point x="373" y="300" type="line"/>
    </contour>
    <contour>
      <point x="189" y="213" type="line"/>
      <point x="373" y="213" type="line"/>
      <point x="373" y="205" type="line" smooth="yes"/>
      <point x="373" y="140"/>
      <point x="336" y="97"/>
      <point x="277" y="97" type="curve" smooth="yes"/>
      <point x="218" y="97"/>
      <point x="189" y="140"/>
      <point x="189" y="204" type="curve" smooth="yes"/>
    </contour>
  </outline>
</glyph>
<glyph name="circumflex" format="1">
  <advance width="600"/>
  <unicode hex="02C6"/>
  <outline>
    <contour>
      <point x="238" y="795" type="line" name="hr00"/>
      <point x="106" y="636" type="line"/>
      <point x="179" y="578" type="line"/>
      <point x="300" y="693" type="line"/>
      <point x="421" y="578" type="line"/>
      <point x="494" y="636" type="line"/>
      <point x="362" y="795" type="line"/>
    </contour>
    <contour>
      <point x="300" y="540" type="move" name="_top"/>
    </contour>
  </outline>
</glyph>
<glyph name="caron" format="1">
  <advance width="600"/>
  <unicode hex="02C7"/>
  <outline>
    <contour>
      <point x="362" y="587" type="line" name="hr00"/>
      <point x="494" y="746" type="line"/>
      <point x="421" y="804" type="line"/>
      <point x="300" y="689" type="line"/>
      <point x="179" y="804" type="line"/>
      <point x="106" y="746" type="line"/>
      <point x="238" y="587" type="line"/>
    </contour>
    <contour>
      <point x="300" y="540" type="move" name="_top"/>
    </contour>
  </outline>
</glyph>
<glyph name="dotaccent" format="1">
  <advance width="600"/>
  <unicode hex="02D9"/>
  <outline>
    <contour>
      <point x="300" y="591" type="curve" smooth="yes" name="hr00"/>
      <point x="366" y="591"/>
      <point x="389" y="622"/>
      <point x="389" y="661" type="curve" smooth="yes"/>
      <point x="389" y="690" type="line" smooth="yes"/>
      <point x="389" y="729"/>
      <point x="366" y="760"/>
      <point x="300" y="760" type="curve" smooth="yes"/>
      <point x="234" y="760"/>
      <point x="211" y="729"/>
      <point x="211" y="690" type="curve" smooth="yes"/>
      <point x="211" y="661" type="line" smooth="yes"/>
      <point x="211" y="622"/>
      <point x="234" y="591"/>
    </contour>
    <contour>
      <point x="300" y="540" type="move" name="_top"/>
    </contour>
  </outline>
</glyph>
<glyph name="ogonek" format="1">
  <advance width="600"/>
  <unicode hex="02DB"/>
  <outline>
    <contour>
      <point x="210" y="-212" type="curve" smooth="yes" name="hr00"/>
      <point x="273" y="-212"/>
      <point x="315" y="-193"/>
      <point x="332" y="-161" type="curve"/>
      <point x="279" y="-110" type="line"/>
      <point x="265" y="-126"/>
      <point x="248" y="-138"/>
      <point x="224" y="-138" type="curve" smooth="yes"/>
      <point x="204" y="-138"/>
      <point x="186" y="-130"/>
      <point x="186" y="-105" type="curve" smooth="yes"/>
      <point x="186" y="-81"/>
      <point x="202" y="-60"/>
      <point x="300" y="0" type="curve"/>
      <point x="290" y="22" type="line"/>
      <point x="197" y="22" type="line"/>
      <point x="205" y="-4" type="line"/>
      <point x="131" y="-38"/>
      <point x="86" y="-71"/>
      <point x="86" y="-127" type="curve" smooth="yes"/>
      <point x="86" y="-191"/>
      <point x="144" y="-212"/>
    </contour>
    <contour>
      <point x="250" y="0" type="move" name="_bottomright"/>
    </contour>
  </outline>
</glyph>
<glyph name="tilde" format="1">
  <advance width="600"/>
  <unicode hex="02DC"/>
  <outline>
    <contour>
      <point x="376" y="601" type="curve" smooth="yes" name="hr02"/>
      <point x="429" y="601"/>
      <point x="466" y="629"/>
      <point x="490" y="665" type="curve"/>
      <point x="438" y="733" type="line"/>
      <point x="417" y="716"/>
      <point x="402" y="708"/>
      <point x="379" y="708" type="curve" smooth="yes"/>
      <point x="353" y="708"/>
      <point x="330" y="718"/>
      <point x="301" y="730" type="curve" smooth="yes"/>
      <point x="276" y="741"/>
      <point x="254" y="750"/>
      <point x="224" y="750" type="curve" smooth="yes" name="hr01"/>
      <point x="171" y="750"/>
      <point x="134" y="722"/>
      <point x="110" y="686" type="curve"/>
      <point x="162" y="618" type="line"/>
      <point x="183" y="635"/>
      <point x="198" y="643"/>
      <point x="221" y="643" type="curve" smooth="yes"/>
      <point x="247" y="643"/>
      <point x="270" y="633"/>
      <point x="299" y="621" type="curve" smooth="yes"/>
      <point x="324" y="610"/>
      <point x="346" y="601"/>
    </contour>
    <contour>
      <point x="300" y="540" type="move" name="_top"/>
    </contour>
  </outline>
</glyph>
<glyph name="hungarumlaut" format="1">
  <advance width="600"/>
  <unicode hex="02DD"/>
  <outline>
    <contour>
      <point x="344" y="755" type="line" name="hr00"/>
      <point x="228" y="812" type="line"/>
      <point x="129" y="618" type="line"/>
      <point x="210" y="579" type="line"/>
    </contour>
    <contour>
      <point x="549" y="755" type="line"/>
      <point x="433" y="812" type="line"/>
      <point x="334" y="618" type="line"/>
      <point x="415" y="579" type="line"/>
    </contour>
    <contour>
      <point x="300" y="540" type="move" name="_top"/>
    </contour>
  </outline>
</glyph>
<glyph name="hookcomb" format="1">
  <advance width="0"/>
  <unicode hex="0309"/>
  <outline>
    <contour>
      <point x="-120" y="696" type="line" name="hr00"/>
      <point x="2" y="696" type="line"/>
      <point x="-39" y="604" type="line"/>
      <point x="36" y="569" type="line"/>
      <point x="64" y="603" type="line" smooth="yes"/>
      <point x="97" y="643"/>
      <point x="121" y="690"/>
      <point x="121" y="729" type="curve" smooth="yes"/>
      <point x="121" y="768"/>
      <point x="98" y="802"/>
      <point x="23" y="802" type="curve" smooth="yes"/>
      <point x="-120" y="802" type="line"/>
    </contour>
    <contour>
      <point x="0" y="540" type="move" name="_top"/>
    </contour>
  </outline>
</glyph>
<glyph name="horncomb" format="1">
  <advance width="0"/>
  <unicode hex="031B"/>
  <outline>
    <contour>
      <point x="125" y="631" type="line" name="hr00"/>
      <point x="1" y="631" type="line"/>
      <point x="1" y="525" type="line"/>
      <point x="-125" y="525" type="line"/>
      <point x="-125" y="436" type="line"/>
      <point x="25" y="436" type="line" smooth="yes"/>
      <point x="105" y="436"/>
      <point x="125" y="470"/>
      <point x="125" y="537" type="curve" smooth="yes"/>
    </contour>
  </outline>
</glyph>
<glyph name="dotbelowcomb" format="1">
  <advance width="0"/>
  <unicode hex="0323"/>
  <outline>
    <contour>
      <point x="0" y="-204" type="curve" smooth="yes" name="hr00"/>
      <point x="59" y="-204"/>
      <point x="81" y="-176"/>
      <point x="81" y="-141" type="curve" smooth="yes"/>
      <point x="81" y="-115" type="line" smooth="yes"/>
      <point x="81" y="-80"/>
      <point x="59" y="-52"/>
      <point x="0" y="-52" type="curve" smooth="yes"/>
      <point x="-59" y="-52"/>
      <point x="-81" y="-80"/>
      <point x="-81" y="-115" type="curve" smooth="yes"/>
      <point x="-81" y="-141" type="line" smooth="yes"/>
      <point x="-81" y="-176"/>
      <point x="-59" y="-204"/>
    </contour>
    <contour>
      <point x="0.0" y="0.0" type="move" name="_bottom"/>
    </contour>
  </outline>
</glyph>
<glyph name="commabelowcomb" format="1">
  <advance width="0"/>
  <unicode hex="0326"/>
  <outline>
    <contour>
      <point x="-1" y="-42" type="curve" smooth="yes" name="hr00"/>
      <point x="-45" y="-42"/>
      <point x="-71" y="-64"/>
      <point x="-71" y="-104" type="curve" smooth="yes"/>
      <point x="-71" y="-115" type="line" smooth="yes"/>
      <point x="-71" y="-144"/>
      <point x="-59" y="-173"/>
      <point x="-21" y="-176" type="curve"/>
      <point x="-31" y="-216"/>
      <point x="-49" y="-246"/>
      <point x="-83" y="-275" type="curve"/>
      <point x="2" y="-275" type="line"/>
      <point x="40" y="-242"/>
      <point x="69" y="-179"/>
      <point x="69" y="-118" type="curve" smooth="yes"/>
      <point x="69" y="-104" type="line" smooth="yes"/>
      <point x="69" y="-64"/>
      <point x="43" y="-42"/>
    </contour>
    <contour>
      <point x="0.0" y="0.0" type="move" name="_bottom"/>
    </contour>
  </outline>
</glyph>
<glyph name="tonos" format="1">
  <advance width="600"/>
  <unicode hex="0384"/>
  <outline>
    <contour>
      <point x="425" y="796" type="line" name="hr00"/>
      <point x="292" y="816" type="line"/>
      <point x="257" y="593" type="line"/>
      <point x="352" y="579" type="line"/>
    </contour>
    <contour>
      <point x="308" y="540" type="move" name="_top"/>
    </contour>
  </outline>
</glyph>
<glyph name="dieresistonos" format="1">
  <advance width="600"/>
  <unicode hex="0385"/>
  <outline>
    <contour>
      <point x="183" y="605" type="curve" smooth="yes"/>
      <point x="225" y="605"/>
      <point x="247" y="626"/>
      <point x="247" y="664" type="curve" smooth="yes"/>
      <point x="247" y="688" type="line" smooth="yes"/>
      <point x="247" y="725"/>
      <point x="225" y="746"/>
      <point x="183" y="746" type="curve" smooth="yes"/>
      <point x="141" y="746"/>
      <point x="119" y="725"/>
      <point x="119" y="687" type="curve" smooth="yes"/>
      <point x="119" y="663" type="line" smooth="yes"/>
      <point x="119" y="626"/>
      <point x="141" y="605"/>
    </contour>
    <contour>
      <point x="411" y="799" type="line"/>
      <point x="310" y="816" type="line" name="hr01"/>
      <point x="275" y="590" type="line"/>
      <point x="338" y="579" type="line"/>
    </contour>
    <contour>
      <point x="477" y="605" type="curve" smooth="yes" name="hr02"/>
      <point x="519" y="605"/>
      <point x="541" y="626"/>
      <point x="541" y="664" type="curve" smooth="yes"/>
      <point x="541" y="688" type="line" smooth="yes"/>
      <point x="541" y="725"/>
      <point x="519" y="746"/>
      <point x="477" y="746" type="curve" smooth="yes"/>
      <point x="435" y="746"/>
      <point x="413" y="725"/>
      <point x="413" y="687" type="curve" smooth="yes"/>
      <point x="413" y="663" type="line" smooth="yes"/>
      <point x="413" y="626"/>
      <point x="435" y="605"/>
    </contour>
    <contour>
      <point x="324" y="540" type="move" name="_top"/>
    </contour>
  </outline>
</glyph>
<glyph name="Alphatonos" format="1">
  <advance width="685"/>
  <unicode hex="0386"/>
  <outline>
    <component base="A"/>
    <component base="tonos.case" xOffset="-216"/>
    <contour>
      <point x="339.0" y="0.0" type="move" name="bottom"/>
    </contour>
    <contour>
      <point x="665.0" y="0.0" type="move" name="bottomright"/>
    </contour>
    <contour>
      <point x="339.0" y="698.0" type="move" name="top"/>
    </contour>
  </outline>
</glyph>
<glyph name="Etatonos" format="1">
  <advance width="820"/>
  <unicode hex="0389"/>
  <outline>
    <component base="H" xOffset="96"/>
    <component base="tonos.case" xOffset="-273"/>
    <contour>
      <point x="458.0" y="0.0" type="move" name="bottom"/>
    </contour>
    <contour>
      <point x="458.0" y="698.0" type="move" name="top"/>
    </contour>
  </outline>
</glyph>
<glyph name="Iotatonos" format="1">
  <advance width="555"/>
  <unicode hex="038A"/>
  <outline>
    <component base="I" xOffset="123"/>
    <component base="tonos.case" xOffset="-273"/>
    <contour>
      <point x="339.0" y="0.0" type="move" name="bottom"/>
    </contour>
    <contour>
      <point x="505.0" y="0.0" type="move" name="bottomright"/>
    </contour>
    <contour>
      <point x="339.0" y="698.0" type="move" name="top"/>
    </contour>
  </outline>
</glyph>
<glyph name="Omicrontonos" format="1">
  <advance width="756"/>
  <unicode hex="038C"/>
  <outline>
    <component base="O" xOffset="42"/>
    <component base="tonos.case" xOffset="-273"/>
    <contour>
      <point x="399.0" y="0.0" type="move" name="bottom"/>
    </contour>
    <contour>
      <point x="399.0" y="698.0" type="move" name="top"/>
    </contour>
  </outline>
</glyph>
<glyph name="Upsilontonos" format="1">
  <advance width="793"/>
  <unicode hex="038E"/>
  <outline>
    <component base="Y" xOffset="144"/>
    <component base="tonos.case" xOffset="-273"/>
    <contour>
      <point x="467.0" y="0.0" type="move" name="bottom"/>
    </contour>
    <contour>
      <point x="469.0" y="698.0" type="move" name="top"/>
    </contour>
  </outline>
</glyph>
<glyph name="Omegatonos" format="1">
  <advance width="767"/>
  <unicode hex="038F"/>
  <outline>
    <component base="Omega" xOffset="43"/>
    <component base="tonos.case" xOffset="-273"/>
    <contour>
      <point x="35.0" y="540.0" type="move" name="_topleft"/>
    </contour>
  </outline>
</glyph>
<glyph name="Eta" format="1">
  <advance width="724"/>
  <unicode hex="0397"/>
  <outline>
    <component base="H"/>
    <contour>
      <point x="362.0" y="0.0" type="move" name="bottom"/>
    </contour>
    <contour>
      <point x="362.0" y="698.0" type="move" name="top"/>
    </contour>
  </outline>
</glyph>
<glyph name="Theta" format="1">
  <advance width="724"/>
  <unicode hex="0398"/>
  <outline>
    <contour>
      <point x="362" y="-12" type="curve" smooth="yes" name="hr00"/>
      <point x="553" y="-12"/>
      <point x="674" y="112"/>
      <point x="674" y="349" type="curve" smooth="yes"/>
      <point x="674" y="586"/>
      <point x="553" y="710"/>
      <point x="362" y="710" type="curve" smooth="yes"/>
      <point x="171" y="710"/>
      <point x="50" y="586"/>
      <point x="50" y="349" type="curve" smooth="yes"/>
      <point x="50" y="112"/>
      <point x="171" y="-12"/>
    </contour>
    <contour>
      <point x="362" y="123" type="curve" smooth="yes"/>
      <point x="265" y="123"/>
      <point x="211" y="186"/>
      <point x="211" y="297" type="curve" smooth="yes"/>
      <point x="211" y="401" type="line" smooth="yes"/>
      <point x="211" y="512"/>
      <point x="265" y="575"/>
      <point x="362" y="575" type="curve" smooth="yes"/>
      <point x="459" y="575"/>
      <point x="513" y="512"/>
      <point x="513" y="401" type="curve" smooth="yes"/>
      <point x="513" y="297" type="line" smooth="yes"/>
      <point x="513" y="186"/>
      <point x="459" y="123"/>
    </contour>
    <contour>
      <point x="458" y="286" type="line"/>
      <point x="458" y="420" type="line"/>
      <point x="266" y="420" type="line"/>
      <point x="266" y="286" type="line"/>
    </contour>
  </outline>
</glyph>
<glyph name="Lambda" format="1">
  <advance width="671"/>
  <unicode hex="039B"/>
  <outline>
    <contour>
      <point x="247" y="698" type="line" name="hr00"/>
      <point x="20" y="0" type="line"/>
      <point x="174" y="0" type="line"/>
      <point x="278" y="335" type="line"/>
      <point x="331" y="554" type="line"/>
      <point x="334" y="554" type="line"/>
      <point x="389" y="335" type="line"/>
      <point x="493" y="0" type="line"/>
      <point x="651" y="0" type="line"/>
      <point x="426" y="698" type="line"/>
    </contour>
  </outline>
</glyph>
<glyph name="Xi" format="1">
  <advance width="605"/>
  <unicode hex="039E"/>
  <outline>
    <contour>
      <point x="55" y="563" type="line" name="hr00"/>
      <point x="550" y="563" type="line"/>
      <point x="550" y="698" type="line"/>
      <point x="55" y="698" type="line"/>
    </contour>
    <contour>
      <point x="116" y="286" type="line"/>
      <point x="489" y="286" type="line"/>
      <point x="489" y="420" type="line"/>
      <point x="116" y="420" type="line"/>
    </contour>
    <contour>
      <point x="55" y="0" type="line"/>
      <point x="550" y="0" type="line"/>
      <point x="550" y="135" type="line"/>
      <point x="55" y="135" type="line"/>
    </contour>
  </outline>
</glyph>
<glyph name="Sigma" format="1">
  <advance width="611"/>
  <unicode hex="03A3"/>
  <outline>
    <contour>
      <point x="559" y="0" type="line" name="hr00"/>
      <point x="559" y="134" type="line"/>
      <point x="223" y="134" type="line"/>
      <point x="450" y="355" type="line"/>
      <point x="242" y="564" type="line"/>
      <point x="559" y="564" type="line"/>
      <point x="559" y="698" type="line"/>
      <point x="54" y="698" type="line"/>
      <point x="54" y="563" type="line"/>
      <point x="266" y="350" type="line"/>
      <point x="44" y="135" type="line"/>
      <point x="44" y="0" type="line"/>
    </contour>
  </outline>
</glyph>
<glyph name="Phi" format="1">
  <advance width="848"/>
  <unicode hex="03A6"/>
  <outline>
    <contour>
      <point x="347" y="-44" type="line" name="hr00"/>
      <point x="501" y="-44" type="line"/>
      <point x="501" y="32" type="line"/>
      <point x="511" y="32" type="line" smooth="yes"/>
      <point x="692" y="32"/>
      <point x="808" y="157"/>
      <point x="808" y="355" type="curve" smooth="yes"/>
      <point x="808" y="551"/>
      <point x="692" y="676"/>
      <point x="511" y="676" type="curve" smooth="yes"/>
      <point x="501" y="676" type="line"/>
      <point x="501" y="740" type="line"/>
      <point x="347" y="740" type="line"/>
      <point x="347" y="676" type="line"/>
      <point x="337" y="676" type="line" smooth="yes"/>
      <point x="156" y="676"/>
      <point x="40" y="551"/>
      <point x="40" y="353" type="curve" smooth="yes"/>
      <point x="40" y="157"/>
      <point x="156" y="32"/>
      <point x="337" y="32" type="curve" smooth="yes"/>
      <point x="347" y="32" type="line"/>
    </contour>
    <contour>
      <point x="350" y="157" type="line"/>
      <point x="340" y="157" type="line" smooth="yes"/>
      <point x="266" y="157"/>
      <point x="196" y="219"/>
      <point x="196" y="323" type="curve" smooth="yes"/>
      <point x="196" y="385" type="line" smooth="yes"/>
      <point x="196" y="489"/>
      <point x="266" y="551"/>
      <point x="340" y="551" type="curve" smooth="yes"/>
      <point x="350" y="551" type="line"/>
    </contour>
    <contour>
      <point x="498" y="157" type="line"/>
      <point x="498" y="551" type="line"/>
      <point x="508" y="551" type="line" smooth="yes"/>
      <point x="582" y="551"/>
      <point x="652" y="489"/>
      <point x="652" y="385" type="curve" smooth="yes"/>
      <point x="652" y="323" type="line" smooth="yes"/>
      <point x="652" y="219"/>
      <point x="582" y="157"/>
      <point x="508" y="157" type="curve" smooth="yes"/>
    </contour>
  </outline>
</glyph>
<glyph name="Psi" format="1">
  <advance width="840"/>
  <unicode hex="03A8"/>
  <outline>
    <contour>
      <point x="343" y="0" type="line" name="hr00"/>
      <point x="497" y="0" type="line"/>
      <point x="497" y="176" type="line"/>
      <point x="688" y="176"/>
      <point x="774" y="289"/>
      <point x="774" y="469" type="curve" smooth="yes"/>
      <point x="774" y="698" type="line"/>
      <point x="622" y="698" type="line"/>
      <point x="622" y="469" type="line" smooth="yes"/>
      <point x="622" y="343"/>
      <point x="579" y="301"/>
      <point x="497" y="301" type="curve"/>
      <point x="497" y="698" type="line"/>
      <point x="343" y="698" type="line"/>
      <point x="343" y="301" type="line"/>
      <point x="261" y="301"/>
      <point x="218" y="343"/>
      <point x="218" y="469" type="curve" smooth="yes"/>
      <point x="218" y="698" type="line"/>
      <point x="66" y="698" type="line"/>
      <point x="66" y="469" type="line" smooth="yes"/>
      <point x="66" y="289"/>
      <point x="152" y="176"/>
      <point x="343" y="176" type="curve"/>
    </contour>
  </outline>
</glyph>
<glyph name="alpha" format="1">
  <advance width="667"/>
  <unicode hex="03B1"/>
  <outline>
    <contour>
      <point x="633" y="115" type="line"/>
      <point x="577" y="115" type="line"/>
      <point x="517" y="266" type="line"/>
      <point x="633" y="525" type="line"/>
      <point x="485" y="525" type="line"/>
      <point x="462" y="448" type="line"/>
      <point x="444" y="377" type="line"/>
      <point x="440" y="377" type="line"/>
      <point x="408" y="487"/>
      <point x="349" y="537"/>
      <point x="251" y="537" type="curve" smooth="yes" name="hr01"/>
      <point x="123" y="537"/>
      <point x="43" y="440"/>
      <point x="43" y="262" type="curve" smooth="yes"/>
      <point x="43" y="84"/>
      <point x="123" y="-12"/>
      <point x="251" y="-12" type="curve" smooth="yes"/>
      <point x="349" y="-12"/>
      <point x="402" y="42"/>
      <point x="434" y="148" type="curve"/>
      <point x="437" y="148" type="line"/>
      <point x="446" y="104" type="line" smooth="yes"/>
      <point x="462" y="26"/>
      <point x="496" y="0"/>
      <point x="574" y="0" type="curve" smooth="yes" name="hr02"/>
      <point x="633" y="0" type="line"/>
    </contour>
    <contour>
      <point x="264" y="108" type="curve" smooth="yes" name="hr03"/>
      <point x="220" y="108"/>
      <point x="197" y="143"/>
      <point x="197" y="223" type="curve" smooth="yes"/>
      <point x="197" y="302" type="line" smooth="yes"/>
      <point x="197" y="382"/>
      <point x="220" y="417"/>
      <point x="264" y="417" type="curve" smooth="yes"/>
      <point x="296" y="417"/>
      <point x="324" y="390"/>
      <point x="346" y="326" type="curve" smooth="yes"/>
      <point x="368" y="263" type="line"/>
      <point x="346" y="199" type="line" smooth="yes"/>
      <point x="324" y="135"/>
      <point x="296" y="108"/>
    </contour>
    <contour>
      <point x="288" y="540" type="move" name="top"/>
    </contour>
  </outline>
</glyph>
<glyph name="beta" format="1">
  <advance width="609"/>
  <unicode hex="03B2"/>
  <outline>
    <contour>
      <point x="69" y="-200" type="line"/>
      <point x="217" y="-200" type="line"/>
      <point x="217" y="88" type="line"/>
      <point x="222" y="88" type="line"/>
      <point x="237" y="31"/>
      <point x="293" y="-12"/>
      <point x="365" y="-12" type="curve" smooth="yes"/>
      <point x="496" y="-12"/>
      <point x="565" y="83"/>
      <point x="565" y="217" type="curve" smooth="yes"/>
      <point x="565" y="314"/>
      <point x="510" y="372"/>
      <point x="416" y="384" type="curve"/>
      <point x="416" y="389" type="line"/>
      <point x="492" y="413"/>
      <point x="534" y="470"/>
      <point x="534" y="560" type="curve" smooth="yes" name="hr01"/>
      <point x="534" y="665"/>
      <point x="465" y="752"/>
      <point x="301" y="752" type="curve" smooth="yes"/>
      <point x="146" y="752"/>
      <point x="69" y="656"/>
      <point x="69" y="478" type="curve" smooth="yes"/>
    </contour>
    <contour>
      <point x="277" y="320" type="line"/>
      <point x="316" y="320" type="line" smooth="yes"/>
      <point x="378" y="320"/>
      <point x="416" y="287"/>
      <point x="416" y="234" type="curve" smooth="yes" name="hr02"/>
      <point x="416" y="200" type="line" smooth="yes"/>
      <point x="416" y="140"/>
      <point x="378" y="105"/>
      <point x="316" y="105" type="curve" smooth="yes"/>
      <point x="256" y="105"/>
      <point x="217" y="134"/>
      <point x="217" y="185" type="curve" smooth="yes"/>
      <point x="217" y="531" type="line" smooth="yes"/>
      <point x="217" y="597"/>
      <point x="251" y="635"/>
      <point x="301" y="635" type="curve" smooth="yes"/>
      <point x="359" y="635"/>
      <point x="385" y="598"/>
      <point x="385" y="544" type="curve" smooth="yes" name="hr03"/>
      <point x="385" y="514" type="line" smooth="yes"/>
      <point x="385" y="467"/>
      <point x="352" y="435"/>
      <point x="310" y="435" type="curve" smooth="yes"/>
      <point x="277" y="435" type="line"/>
    </contour>
  </outline>
</glyph>
<glyph name="gamma" format="1">
  <advance width="540"/>
  <unicode hex="03B3"/>
  <outline>
    <contour>
      <point x="192" y="-200" type="line" name="hr00"/>
      <point x="340" y="-200" type="line"/>
      <point x="340" y="0" type="line"/>
      <point x="531" y="525" type="line"/>
      <point x="391" y="525" type="line"/>
      <point x="315" y="293" type="line"/>
      <point x="274" y="145" type="line"/>
      <point x="266" y="145" type="line"/>
      <point x="233" y="293" type="line"/>
      <point x="198" y="418" type="line" smooth="yes"/>
      <point x="175" y="499"/>
      <point x="138" y="525"/>
      <point x="60" y="525" type="curve" smooth="yes"/>
      <point x="8" y="525" type="line"/>
      <point x="8" y="410" type="line"/>
      <point x="57" y="410" type="line"/>
      <point x="192" y="0" type="line"/>
    </contour>
  </outline>
</glyph>
<glyph name="delta" format="1">
  <advance width="564"/>
  <unicode hex="03B4"/>
  <outline>
    <contour>
      <point x="481" y="625" type="line" name="hr00"/>
      <point x="481" y="740" type="line"/>
      <point x="90" y="740" type="line"/>
      <point x="90" y="600" type="line"/>
      <point x="221" y="498" type="line"/>
      <point x="221" y="492" type="line"/>
      <point x="123" y="492"/>
      <point x="36" y="406"/>
      <point x="36" y="250" type="curve" smooth="yes"/>
      <point x="36" y="98"/>
      <point x="128" y="-12"/>
      <point x="282" y="-12" type="curve" smooth="yes"/>
      <point x="436" y="-12"/>
      <point x="528" y="93"/>
      <point x="528" y="263" type="curve" smooth="yes"/>
      <point x="528" y="383"/>
      <point x="477" y="481"/>
      <point x="335" y="568" type="curve" smooth="yes"/>
      <point x="230" y="632" type="line"/>
      <point x="230" y="636" type="line"/>
      <point x="323" y="625" type="line"/>
    </contour>
    <contour>
      <point x="374" y="250" type="curve"/>
      <point x="374" y="209" type="line" smooth="yes"/>
      <point x="374" y="143"/>
      <point x="340" y="105"/>
      <point x="282" y="105" type="curve" smooth="yes"/>
      <point x="224" y="105"/>
      <point x="190" y="143"/>
      <point x="190" y="209" type="curve" smooth="yes"/>
      <point x="190" y="303" type="line" smooth="yes"/>
      <point x="190" y="378"/>
      <point x="225" y="431"/>
      <point x="292" y="441" type="curve"/>
      <point x="357" y="382"/>
      <point x="374" y="334"/>
    </contour>
  </outline>
</glyph>
<glyph name="epsilon" format="1">
  <advance width="528"/>
  <unicode hex="03B5"/>
  <outline>
    <contour>
      <point x="431" y="167" type="line"/>
      <point x="392" y="127"/>
      <point x="349" y="104"/>
      <point x="288" y="104" type="curve" smooth="yes"/>
      <point x="217" y="104"/>
      <point x="189" y="124"/>
      <point x="189" y="162" type="curve" smooth="yes"/>
      <point x="189" y="173" type="line" smooth="yes"/>
      <point x="189" y="204"/>
      <point x="210" y="218"/>
      <point x="248" y="218" type="curve" smooth="yes"/>
      <point x="364" y="218" type="line"/>
      <point x="364" y="316" type="line"/>
      <point x="261" y="316" type="line" smooth="yes"/>
      <point x="223" y="316"/>
      <point x="202" y="330"/>
      <point x="202" y="361" type="curve" smooth="yes" name="hr01"/>
      <point x="202" y="371" type="line" smooth="yes"/>
      <point x="202" y="402"/>
      <point x="229" y="421"/>
      <point x="282" y="421" type="curve" smooth="yes"/>
      <point x="334" y="421"/>
      <point x="377" y="402"/>
      <point x="411" y="368" type="curve"/>
      <point x="496" y="455" type="line"/>
      <point x="440" y="509"/>
      <point x="372" y="537"/>
      <point x="271" y="537" type="curve" smooth="yes"/>
      <point x="130" y="537"/>
      <point x="53" y="473"/>
      <point x="53" y="388" type="curve" smooth="yes"/>
      <point x="53" y="326"/>
      <point x="88" y="288"/>
      <point x="164" y="278" type="curve"/>
      <point x="164" y="273" type="line"/>
      <point x="88" y="263"/>
      <point x="40" y="222"/>
      <point x="40" y="148" type="curve" smooth="yes" name="hr02"/>
      <point x="40" y="51"/>
      <point x="129" y="-12"/>
      <point x="270" y="-12" type="curve" smooth="yes"/>
      <point x="375" y="-12"/>
      <point x="454" y="21"/>
      <point x="505" y="75" type="curve"/>
    </contour>
    <contour>
      <point x="277" y="540" type="move" name="top"/>
    </contour>
  </outline>
</glyph>
<glyph name="zeta" format="1">
  <advance width="438"/>
  <unicode hex="03B6"/>
  <outline>
    <contour>
      <point x="58" y="625" type="line" name="hr00"/>
      <point x="208" y="625" type="line"/>
      <point x="290" y="635" type="line"/>
      <point x="290" y="630" type="line"/>
      <point x="163" y="479" type="line" smooth="yes"/>
      <point x="55" y="350"/>
      <point x="36" y="291"/>
      <point x="36" y="203" type="curve" smooth="yes"/>
      <point x="36" y="111"/>
      <point x="82" y="43"/>
      <point x="212" y="8" type="curve" smooth="yes"/>
      <point x="286" y="-12" type="line"/>
      <point x="238" y="-129" type="line"/>
      <point x="358" y="-175" type="line"/>
      <point x="412" y="-44" type="line" smooth="yes"/>
      <point x="420" y="-24"/>
      <point x="424" y="-6"/>
      <point x="424" y="11" type="curve" smooth="yes"/>
      <point x="424" y="58"/>
      <point x="395" y="98"/>
      <point x="340" y="113" type="curve" smooth="yes"/>
      <point x="266" y="133" type="line" smooth="yes"/>
      <point x="214" y="147"/>
      <point x="190" y="177"/>
      <point x="190" y="221" type="curve" smooth="yes"/>
      <point x="190" y="235" type="line" smooth="yes"/>
      <point x="190" y="279"/>
      <point x="209" y="326"/>
      <point x="262" y="397" type="curve" smooth="yes"/>
      <point x="432" y="624" type="line"/>
      <point x="432" y="740" type="line"/>
      <point x="58" y="740" type="line"/>
    </contour>
  </outline>
</glyph>
<glyph name="eta" format="1">
  <advance width="610"/>
  <unicode hex="03B7"/>
  <outline>
    <contour>
      <point x="231" y="0" type="line"/>
      <point x="231" y="340" type="line" smooth="yes"/>
      <point x="231" y="392"/>
      <point x="278" y="417"/>
      <point x="326" y="417" type="curve" smooth="yes"/>
      <point x="380" y="417"/>
      <point x="399" y="384"/>
      <point x="399" y="317" type="curve" smooth="yes"/>
      <point x="399" y="-200" type="line"/>
      <point x="547" y="-200" type="line"/>
      <point x="547" y="329" type="line" smooth="yes"/>
      <point x="547" y="461"/>
      <point x="490" y="537"/>
      <point x="383" y="537" type="curve" smooth="yes"/>
      <point x="300" y="537"/>
      <point x="255" y="491"/>
      <point x="235" y="431" type="curve"/>
      <point x="229" y="431" type="line"/>
      <point x="221" y="495"/>
      <point x="182" y="525"/>
      <point x="116" y="525" type="curve" smooth="yes" name="hr01"/>
      <point x="34" y="525" type="line"/>
      <point x="34" y="410" type="line"/>
      <point x="83" y="410" type="line"/>
      <point x="83" y="0" type="line"/>
    </contour>
    <contour>
      <point x="313" y="540" type="move" name="top"/>
    </contour>
  </outline>
</glyph>
<glyph name="theta" format="1">
  <advance width="576"/>
  <unicode hex="03B8"/>
  <outline>
    <contour>
      <point x="288" y="752" type="curve" smooth="yes" name="hr00"/>
      <point x="136" y="752"/>
      <point x="42" y="657"/>
      <point x="42" y="370" type="curve" smooth="yes"/>
      <point x="42" y="83"/>
      <point x="136" y="-12"/>
      <point x="288" y="-12" type="curve" smooth="yes"/>
      <point x="440" y="-12"/>
      <point x="534" y="83"/>
      <point x="534" y="370" type="curve" smooth="yes"/>
      <point x="534" y="657"/>
      <point x="440" y="752"/>
    </contour>
    <contour>
      <point x="288" y="105" type="curve" smooth="yes"/>
      <point x="228" y="105"/>
      <point x="196" y="137"/>
      <point x="196" y="260" type="curve" smooth="yes"/>
      <point x="196" y="313" type="line"/>
      <point x="380" y="313" type="line"/>
      <point x="380" y="260" type="line" smooth="yes"/>
      <point x="380" y="137"/>
      <point x="348" y="105"/>
    </contour>
    <contour>
      <point x="196" y="480" type="line" smooth="yes"/>
      <point x="196" y="603"/>
      <point x="228" y="635"/>
      <point x="288" y="635" type="curve" smooth="yes"/>
      <point x="348" y="635"/>
      <point x="380" y="603"/>
      <point x="380" y="480" type="curve" smooth="yes"/>
      <point x="380" y="428" type="line"/>
      <point x="196" y="428" type="line"/>
    </contour>
  </outline>
</glyph>
<glyph name="iota" format="1">
  <advance width="329"/>
  <unicode hex="03B9"/>
  <outline>
    <contour>
      <point x="313" y="115" type="line" name=""/>
      <point x="217" y="115" type="line"/>
      <point x="217" y="525" type="line"/>
      <point x="69" y="525" type="line"/>
      <point x="69" y="153" type="line" smooth="yes"/>
      <point x="69" y="53"/>
      <point x="123" y="0"/>
      <point x="225" y="0" type="curve" smooth="yes"/>
      <point x="313" y="0" type="line"/>
    </contour>
    <contour>
      <point x="149.0" y="540.0" type="move" name="top"/>
    </contour>
  </outline>
</glyph>
<glyph name="kappa" format="1">
  <advance width="580"/>
  <unicode hex="03BA"/>
  <outline>
    <contour>
      <point x="393" y="0" type="line" name="hr00"/>
      <point x="566" y="0" type="line"/>
      <point x="381" y="316" type="line"/>
      <point x="475" y="410" type="line"/>
      <point x="536" y="410" type="line"/>
      <point x="536" y="525" type="line"/>
      <point x="484" y="525" type="line" smooth="yes"/>
      <point x="430" y="525"/>
      <point x="403" y="515"/>
      <point x="369" y="477" type="curve" smooth="yes"/>
      <point x="290" y="388" type="line"/>
      <point x="223" y="300" type="line"/>
      <point x="217" y="300" type="line"/>
      <point x="217" y="525" type="line"/>
      <point x="69" y="525" type="line"/>
      <point x="69" y="0" type="line"/>
      <point x="217" y="0" type="line"/>
      <point x="217" y="153" type="line"/>
      <point x="283" y="219" type="line"/>
    </contour>
  </outline>
</glyph>
<glyph name="lambda" format="1">
  <advance width="538"/>
  <unicode hex="03BB"/>
  <outline>
    <contour>
      <point x="192" y="525" type="line" name="hr00"/>
      <point x="4" y="0" type="line"/>
      <point x="144" y="0" type="line"/>
      <point x="221" y="228" type="line"/>
      <point x="250" y="352" type="line"/>
      <point x="261" y="352" type="line"/>
      <point x="289" y="228" type="line"/>
      <point x="331" y="98" type="line" smooth="yes"/>
      <point x="355" y="25"/>
      <point x="388" y="0"/>
      <point x="464" y="0" type="curve" smooth="yes"/>
      <point x="528" y="0" type="line"/>
      <point x="528" y="115" type="line"/>
      <point x="467" y="115" type="line"/>
      <point x="295" y="642" type="line" smooth="yes"/>
      <point x="271" y="715"/>
      <point x="238" y="740"/>
      <point x="162" y="740" type="curve" smooth="yes"/>
      <point x="73" y="740" type="line"/>
      <point x="73" y="625" type="line"/>
      <point x="159" y="625" type="line"/>
    </contour>
  </outline>
</glyph>
<glyph name="uni03BC" format="1">
  <advance width="616"/>
  <unicode hex="03BC"/>
  <outline>
    <contour>
      <point x="216" y="-200" type="line"/>
      <point x="216" y="-96" type="line"/>
      <point x="178" y="44" type="line"/>
      <point x="183" y="44" type="line"/>
      <point x="209" y="4"/>
      <point x="235" y="-12"/>
      <point x="277" y="-12" type="curve" smooth="yes"/>
      <point x="331" y="-12"/>
      <point x="369" y="22"/>
      <point x="385" y="96" type="curve"/>
      <point x="390" y="96" type="line"/>
      <point x="404" y="36"/>
      <point x="447" y="0"/>
      <point x="532" y="0" type="curve" smooth="yes" name="hr01"/>
      <point x="582" y="0" type="line"/>
      <point x="582" y="115" type="line"/>
      <point x="533" y="115" type="line"/>
      <point x="533" y="525" type="line"/>
      <point x="385" y="525" type="line"/>
      <point x="385" y="185" type="line" smooth="yes"/>
      <point x="385" y="137"/>
      <point x="342" y="108"/>
      <point x="291" y="108" type="curve" smooth="yes" name="hr02"/>
      <point x="238" y="108"/>
      <point x="217" y="143"/>
      <point x="217" y="206" type="curve" smooth="yes"/>
      <point x="217" y="525" type="line"/>
      <point x="69" y="525" type="line"/>
      <point x="69" y="-200" type="line"/>
    </contour>
  </outline>
</glyph>
<glyph name="nu" format="1">
  <advance width="540"/>
  <unicode hex="03BD"/>
  <outline>
    <contour>
      <point x="354" y="0" type="line" name="hr00"/>
      <point x="531" y="525" type="line"/>
      <point x="391" y="525" type="line"/>
      <point x="314" y="274" type="line"/>
      <point x="274" y="123" type="line"/>
      <point x="266" y="123" type="line"/>
      <point x="235" y="274" type="line"/>
      <point x="198" y="416" type="line" smooth="yes"/>
      <point x="177" y="498"/>
      <point x="138" y="525"/>
      <point x="60" y="525" type="curve" smooth="yes"/>
      <point x="8" y="525" type="line"/>
      <point x="8" y="410" type="line"/>
      <point x="57" y="410" type="line"/>
      <point x="178" y="0" type="line"/>
    </contour>
  </outline>
</glyph>
<glyph name="xi" format="1">
  <advance width="441"/>
  <unicode hex="03BE"/>
  <outline>
    <contour>
      <point x="439" y="625" type="line"/>
      <point x="439" y="740" type="line"/>
      <point x="33" y="740" type="line"/>
      <point x="33" y="625" type="line"/>
      <point x="148" y="625" type="line"/>
      <point x="148" y="617" type="line"/>
      <point x="100" y="601"/>
      <point x="70" y="558"/>
      <point x="70" y="510" type="curve" smooth="yes"/>
      <point x="70" y="444"/>
      <point x="111" y="402"/>
      <point x="193" y="388" type="curve" name="hr01"/>
      <point x="193" y="383" type="line"/>
      <point x="99" y="369"/>
      <point x="44" y="297"/>
      <point x="44" y="213" type="curve" smooth="yes"/>
      <point x="44" y="107"/>
      <point x="85" y="42"/>
      <point x="213" y="7" type="curve" smooth="yes"/>
      <point x="283" y="-12" type="line"/>
      <point x="235" y="-129" type="line"/>
      <point x="355" y="-175" type="line"/>
      <point x="409" y="-44" type="line" smooth="yes"/>
      <point x="417" y="-24"/>
      <point x="421" y="-6"/>
      <point x="421" y="11" type="curve" smooth="yes"/>
      <point x="421" y="58"/>
      <point x="392" y="98"/>
      <point x="337" y="113" type="curve" smooth="yes"/>
      <point x="267" y="132" type="line" smooth="yes"/>
      <point x="213" y="147"/>
      <point x="193" y="170"/>
      <point x="193" y="217" type="curve" smooth="yes"/>
      <point x="193" y="243" type="line" smooth="yes"/>
      <point x="193" y="288"/>
      <point x="226" y="320"/>
      <point x="268" y="320" type="curve" smooth="yes"/>
      <point x="363" y="320" type="line"/>
      <point x="363" y="435" type="line"/>
      <point x="314" y="435" type="line" smooth="yes"/>
      <point x="252" y="435"/>
      <point x="214" y="470"/>
      <point x="214" y="520" type="curve" smooth="yes" name="hr02"/>
      <point x="214" y="536" type="line" smooth="yes"/>
      <point x="214" y="596"/>
      <point x="248" y="625"/>
      <point x="308" y="625" type="curve" smooth="yes"/>
    </contour>
  </outline>
</glyph>
<glyph name="pi" format="1">
  <advance width="631"/>
  <unicode hex="03C0"/>
  <outline>
    <contour>
      <point x="529" y="410" type="line" name="hr00"/>
      <point x="603" y="410" type="line"/>
      <point x="603" y="525" type="line"/>
      <point x="21" y="525" type="line"/>
      <point x="21" y="410" type="line"/>
      <point x="95" y="410" type="line"/>
      <point x="95" y="0" type="line"/>
      <point x="243" y="0" type="line"/>
      <point x="243" y="410" type="line"/>
      <point x="381" y="410" type="line"/>
      <point x="381" y="153" type="line" smooth="yes"/>
      <point x="381" y="53"/>
      <point x="435" y="0"/>
      <point x="537" y="0" type="curve" smooth="yes"/>
      <point x="603" y="0" type="line"/>
      <point x="603" y="115" type="line"/>
      <point x="529" y="115" type="line"/>
    </contour>
  </outline>
</glyph>
<glyph name="rho" format="1">
  <advance width="577"/>
  <unicode hex="03C1"/>
  <outline>
    <contour>
      <point x="48" y="-200" type="line" name="hr00"/>
      <point x="196" y="-200" type="line"/>
      <point x="196" y="88" type="line"/>
      <point x="201" y="88" type="line"/>
      <point x="216" y="31"/>
      <point x="274" y="-12"/>
      <point x="339" y="-12" type="curve" smooth="yes"/>
      <point x="465" y="-12"/>
      <point x="534" y="85"/>
      <point x="534" y="263" type="curve" smooth="yes"/>
      <point x="534" y="441"/>
      <point x="464" y="537"/>
      <point x="288" y="537" type="curve" smooth="yes"/>
      <point x="122" y="537"/>
      <point x="48" y="441"/>
      <point x="48" y="263" type="curve" smooth="yes"/>
    </contour>
    <contour>
      <point x="288" y="105" type="curve" smooth="yes"/>
      <point x="237" y="105"/>
      <point x="196" y="134"/>
      <point x="196" y="185" type="curve" smooth="yes"/>
      <point x="196" y="316" type="line" smooth="yes"/>
      <point x="196" y="382"/>
      <point x="230" y="420"/>
      <point x="288" y="420" type="curve" smooth="yes"/>
      <point x="346" y="420"/>
      <point x="380" y="382"/>
      <point x="380" y="316" type="curve" smooth="yes"/>
      <point x="380" y="217" type="line" smooth="yes"/>
      <point x="380" y="144"/>
      <point x="339" y="105"/>
    </contour>
  </outline>
</glyph>
<glyph name="sigma1" format="1">
  <advance width="507"/>
  <unicode hex="03C2"/>
  <outline>
    <contour>
      <point x="260" y="-129" type="line" name="hr00"/>
      <point x="380" y="-175" type="line"/>
      <point x="434" y="-44" type="line" smooth="yes"/>
      <point x="442" y="-24"/>
      <point x="446" y="-6"/>
      <point x="446" y="11" type="curve" smooth="yes"/>
      <point x="446" y="58"/>
      <point x="417" y="98"/>
      <point x="362" y="113" type="curve" smooth="yes"/>
      <point x="299" y="130" type="line" smooth="yes"/>
      <point x="224" y="150"/>
      <point x="190" y="193"/>
      <point x="190" y="253" type="curve" smooth="yes"/>
      <point x="190" y="311" type="line" smooth="yes"/>
      <point x="190" y="377"/>
      <point x="221" y="420"/>
      <point x="281" y="420" type="curve" smooth="yes"/>
      <point x="333" y="420"/>
      <point x="362" y="388"/>
      <point x="371" y="348" type="curve"/>
      <point x="491" y="400" type="line"/>
      <point x="460" y="486"/>
      <point x="387" y="537"/>
      <point x="281" y="537" type="curve" smooth="yes"/>
      <point x="127" y="537"/>
      <point x="36" y="431"/>
      <point x="36" y="281" type="curve" smooth="yes"/>
      <point x="36" y="113"/>
      <point x="96" y="45"/>
      <point x="245" y="5" type="curve" smooth="yes"/>
      <point x="308" y="-12" type="line"/>
    </contour>
  </outline>
</glyph>
<glyph name="sigma" format="1">
  <advance width="586"/>
  <unicode hex="03C3"/>
  <outline>
    <contour>
      <point x="564" y="410" type="line" name="hr00"/>
      <point x="564" y="525" type="line"/>
      <point x="282" y="525" type="line"/>
      <point x="128" y="525"/>
      <point x="36" y="426"/>
      <point x="36" y="257" type="curve" smooth="yes"/>
      <point x="36" y="94"/>
      <point x="128" y="-12"/>
      <point x="282" y="-12" type="curve" smooth="yes"/>
      <point x="436" y="-12"/>
      <point x="528" y="94"/>
      <point x="528" y="247" type="curve" smooth="yes"/>
      <point x="528" y="325"/>
      <point x="501" y="370"/>
      <point x="449" y="402" type="curve"/>
      <point x="449" y="410" type="line"/>
    </contour>
    <contour>
      <point x="330" y="410" type="line"/>
      <point x="358" y="388"/>
      <point x="374" y="354"/>
      <point x="374" y="310" type="curve" smooth="yes"/>
      <point x="374" y="209" type="line" smooth="yes"/>
      <point x="374" y="143"/>
      <point x="340" y="105"/>
      <point x="282" y="105" type="curve" smooth="yes"/>
      <point x="224" y="105"/>
      <point x="190" y="143"/>
      <point x="190" y="209" type="curve" smooth="yes"/>
      <point x="190" y="310" type="line" smooth="yes"/>
      <point x="190" y="376"/>
      <point x="224" y="410"/>
      <point x="282" y="410" type="curve" smooth="yes"/>
    </contour>
  </outline>
</glyph>
<glyph name="tau" format="1">
  <advance width="500"/>
  <unicode hex="03C4"/>
  <outline>
    <contour>
      <point x="416" y="0" type="line" name="hr00"/>
      <point x="416" y="115" type="line"/>
      <point x="310" y="115" type="line"/>
      <point x="310" y="410" type="line"/>
      <point x="472" y="410" type="line"/>
      <point x="472" y="525" type="line"/>
      <point x="20" y="525" type="line"/>
      <point x="20" y="410" type="line"/>
      <point x="162" y="410" type="line"/>
      <point x="162" y="153" type="line" smooth="yes"/>
      <point x="162" y="53"/>
      <point x="216" y="0"/>
      <point x="318" y="0" type="curve" smooth="yes"/>
    </contour>
  </outline>
</glyph>
<glyph name="upsilon" format="1">
  <advance width="582"/>
  <unicode hex="03C5"/>
  <outline>
    <contour>
      <point x="207" y="525" type="line" name="hr00"/>
      <point x="59" y="525" type="line"/>
      <point x="59" y="239" type="line" smooth="yes"/>
      <point x="59" y="73"/>
      <point x="137" y="-12"/>
      <point x="291" y="-12" type="curve" smooth="yes"/>
      <point x="445" y="-12"/>
      <point x="523" y="73"/>
      <point x="523" y="239" type="curve" smooth="yes"/>
      <point x="523" y="525" type="line"/>
      <point x="375" y="525" type="line"/>
      <point x="375" y="210" type="line" smooth="yes"/>
      <point x="375" y="140"/>
      <point x="349" y="105"/>
      <point x="291" y="105" type="curve" smooth="yes"/>
      <point x="233" y="105"/>
      <point x="207" y="140"/>
      <point x="207" y="210" type="curve" smooth="yes"/>
    </contour>
    <contour>
      <point x="297" y="540" type="move" name="top"/>
    </contour>
  </outline>
</glyph>
<glyph name="phi" format="1">
  <advance width="773"/>
  <unicode hex="03C6"/>
  <outline>
    <contour>
      <point x="311" y="-200" type="line" name="hr00"/>
      <point x="456" y="-200" type="line"/>
      <point x="456" y="-12" type="line"/>
      <point x="630" y="-12"/>
      <point x="730" y="89"/>
      <point x="730" y="272" type="curve" smooth="yes"/>
      <point x="730" y="464"/>
      <point x="658" y="537"/>
      <point x="516" y="537" type="curve" smooth="yes"/>
      <point x="374" y="537"/>
      <point x="311" y="447"/>
      <point x="311" y="309" type="curve" smooth="yes"/>
      <point x="311" y="103" type="line"/>
      <point x="247" y="103"/>
      <point x="197" y="143"/>
      <point x="197" y="225" type="curve" smooth="yes"/>
      <point x="197" y="299" type="line" smooth="yes"/>
      <point x="197" y="357"/>
      <point x="217" y="410"/>
      <point x="267" y="448" type="curve"/>
      <point x="173" y="537" type="line"/>
      <point x="81" y="487"/>
      <point x="43" y="387"/>
      <point x="43" y="265" type="curve" smooth="yes"/>
      <point x="43" y="89"/>
      <point x="147" y="-12"/>
      <point x="311" y="-12" type="curve"/>
    </contour>
    <contour>
      <point x="456" y="330" type="line" smooth="yes"/>
      <point x="456" y="398"/>
      <point x="476" y="422"/>
      <point x="516" y="422" type="curve" smooth="yes"/>
      <point x="556" y="422"/>
      <point x="576" y="398"/>
      <point x="576" y="330" type="curve" smooth="yes"/>
      <point x="576" y="225" type="line" smooth="yes"/>
      <point x="576" y="143"/>
      <point x="528" y="103"/>
      <point x="456" y="103" type="curve"/>
    </contour>
  </outline>
</glyph>
<glyph name="chi" format="1">
  <advance width="545"/>
  <unicode hex="03C7"/>
  <outline>
    <contour>
      <point x="19" y="525" type="line" name="hr00"/>
      <point x="19" y="410" type="line"/>
      <point x="85" y="410" type="line"/>
      <point x="189" y="169" type="line"/>
      <point x="12" y="-200" type="line"/>
      <point x="168" y="-200" type="line"/>
      <point x="271" y="63" type="line"/>
      <point x="275" y="63" type="line"/>
      <point x="336" y="-110" type="line" smooth="yes"/>
      <point x="359" y="-174"/>
      <point x="392" y="-200"/>
      <point x="468" y="-200" type="curve" smooth="yes"/>
      <point x="537" y="-200" type="line"/>
      <point x="537" y="-85" type="line"/>
      <point x="471" y="-85" type="line"/>
      <point x="365" y="172" type="line"/>
      <point x="535" y="525" type="line"/>
      <point x="379" y="525" type="line"/>
      <point x="282" y="279" type="line"/>
      <point x="278" y="279" type="line"/>
      <point x="220" y="435" type="line" smooth="yes"/>
      <point x="196" y="500"/>
      <point x="164" y="525"/>
      <point x="88" y="525" type="curve" smooth="yes"/>
    </contour>
  </outline>
</glyph>
<glyph name="psi" format="1">
  <advance width="759"/>
  <unicode hex="03C8"/>
  <outline>
    <contour>
      <point x="452" y="-200" type="line" name="hr00"/>
      <point x="452" y="-12" type="line"/>
      <point x="613" y="-12"/>
      <point x="700" y="73"/>
      <point x="700" y="253" type="curve" smooth="yes"/>
      <point x="700" y="525" type="line"/>
      <point x="552" y="525" type="line"/>
      <point x="552" y="222" type="line" smooth="yes"/>
      <point x="552" y="138"/>
      <point x="517" y="103"/>
      <point x="452" y="103" type="curve"/>
      <point x="452" y="710" type="line"/>
      <point x="307" y="710" type="line"/>
      <point x="307" y="103" type="line"/>
      <point x="242" y="103"/>
      <point x="207" y="138"/>
      <point x="207" y="222" type="curve" smooth="yes"/>
      <point x="207" y="525" type="line"/>
      <point x="59" y="525" type="line"/>
      <point x="59" y="253" type="line" smooth="yes"/>
      <point x="59" y="73"/>
      <point x="146" y="-12"/>
      <point x="307" y="-12" type="curve"/>
      <point x="307" y="-200" type="line"/>
    </contour>
  </outline>
</glyph>
<glyph name="omega" format="1">
  <advance width="770"/>
  <unicode hex="03C9"/>
  <outline>
    <contour>
      <point x="459" y="369" type="line" name="hr00"/>
      <point x="311" y="369" type="line"/>
      <point x="311" y="197" type="line" smooth="yes"/>
      <point x="311" y="129"/>
      <point x="294" y="105"/>
      <point x="254" y="105" type="curve" smooth="yes"/>
      <point x="214" y="105"/>
      <point x="197" y="129"/>
      <point x="197" y="197" type="curve" smooth="yes"/>
      <point x="197" y="299" type="line" smooth="yes"/>
      <point x="197" y="357"/>
      <point x="217" y="410"/>
      <point x="267" y="448" type="curve"/>
      <point x="173" y="537" type="line"/>
      <point x="87" y="491"/>
      <point x="43" y="399"/>
      <point x="43" y="249" type="curve" smooth="yes"/>
      <point x="43" y="73"/>
      <point x="118" y="-12"/>
      <point x="234" y="-12" type="curve" smooth="yes"/>
      <point x="314" y="-12"/>
      <point x="363" y="35"/>
      <point x="383" y="125" type="curve"/>
      <point x="387" y="125" type="line"/>
      <point x="407" y="35"/>
      <point x="456" y="-12"/>
      <point x="536" y="-12" type="curve" smooth="yes"/>
      <point x="652" y="-12"/>
      <point x="727" y="73"/>
      <point x="727" y="249" type="curve" smooth="yes"/>
      <point x="727" y="405"/>
      <point x="685" y="491"/>
      <point x="597" y="537" type="curve"/>
      <point x="503" y="448" type="line"/>
      <point x="551" y="408"/>
      <point x="573" y="357"/>
      <point x="573" y="299" type="curve" smooth="yes"/>
      <point x="573" y="197" type="line" smooth="yes"/>
      <point x="573" y="129"/>
      <point x="556" y="105"/>
      <point x="516" y="105" type="curve" smooth="yes"/>
      <point x="476" y="105"/>
      <point x="459" y="129"/>
      <point x="459" y="197" type="curve" smooth="yes"/>
    </contour>
    <contour>
      <point x="385" y="540" type="move" name="top"/>
    </contour>
  </outline>
</glyph>
<glyph name="uni0402" format="1">
  <advance width="807"/>
  <unicode hex="0402"/>
  <outline>
    <contour>
      <point x="472" y="-184" type="line" name="hr00"/>
      <point x="524" y="-184" type="line" smooth="yes"/>
      <point x="669" y="-184"/>
      <point x="753" y="-99"/>
      <point x="753" y="63" type="curve" smooth="yes"/>
      <point x="753" y="189" type="line" smooth="yes"/>
      <point x="753" y="359"/>
      <point x="669" y="446"/>
      <point x="501" y="446" type="curve" smooth="yes"/>
      <point x="446" y="446"/>
      <point x="405" y="437"/>
      <point x="373" y="423" type="curve"/>
      <point x="368" y="423" type="line"/>
      <point x="368" y="563" type="line"/>
      <point x="557" y="563" type="line"/>
      <point x="557" y="698" type="line"/>
      <point x="27" y="698" type="line"/>
      <point x="27" y="563" type="line"/>
      <point x="216" y="563" type="line"/>
      <point x="216" y="0" type="line"/>
      <point x="368" y="0" type="line"/>
      <point x="368" y="296" type="line"/>
      <point x="397" y="308"/>
      <point x="434" y="314"/>
      <point x="487" y="314" type="curve" smooth="yes"/>
      <point x="563" y="314"/>
      <point x="601" y="274"/>
      <point x="601" y="195" type="curve" smooth="yes"/>
      <point x="601" y="69" type="line" smooth="yes"/>
      <point x="601" y="19"/>
      <point x="591" y="-21"/>
      <point x="575" y="-43" type="curve"/>
      <point x="472" y="-43" type="line"/>
    </contour>
  </outline>
</glyph>
<glyph name="uni0404" format="1">
  <advance width="671"/>
  <unicode hex="0404"/>
  <outline>
    <contour>
      <point x="369" y="-12" type="curve" smooth="yes" name="hr00"/>
      <point x="509" y="-12"/>
      <point x="591" y="47"/>
      <point x="641" y="147" type="curve"/>
      <point x="518" y="223" type="line"/>
      <point x="496" y="165"/>
      <point x="454" y="123"/>
      <point x="369" y="123" type="curve" smooth="yes"/>
      <point x="271" y="123"/>
      <point x="215" y="179"/>
      <point x="211" y="282" type="curve" smooth="yes"/>
      <point x="211" y="286" type="line"/>
      <point x="442" y="286" type="line"/>
      <point x="442" y="420" type="line"/>
      <point x="211" y="420" type="line"/>
      <point x="217" y="520"/>
      <point x="272" y="575"/>
      <point x="369" y="575" type="curve" smooth="yes"/>
      <point x="454" y="575"/>
      <point x="487" y="538"/>
      <point x="511" y="482" type="curve"/>
      <point x="638" y="554" type="line"/>
      <point x="580" y="656"/>
      <point x="503" y="710"/>
      <point x="369" y="710" type="curve" smooth="yes"/>
      <point x="169" y="710"/>
      <point x="50" y="580"/>
      <point x="50" y="344" type="curve" smooth="yes"/>
      <point x="50" y="108"/>
      <point x="169" y="-12"/>
    </contour>
  </outline>
</glyph>
<glyph name="uni0409" format="1">
  <advance width="1047"/>
  <unicode hex="0409"/>
  <outline>
    <contour>
      <point x="20" y="-6" type="line" name="hr00"/>
      <point x="72" y="-6" type="line" smooth="yes"/>
      <point x="142" y="-6"/>
      <point x="186" y="10"/>
      <point x="227" y="51" type="curve" smooth="yes"/>
      <point x="279" y="103"/>
      <point x="317" y="209"/>
      <point x="317" y="455" type="curve" smooth="yes"/>
      <point x="317" y="563" type="line"/>
      <point x="482" y="563" type="line"/>
      <point x="482" y="0" type="line"/>
      <point x="802" y="0" type="line" smooth="yes"/>
      <point x="932" y="0"/>
      <point x="1014" y="91"/>
      <point x="1014" y="223" type="curve" smooth="yes"/>
      <point x="1014" y="355"/>
      <point x="932" y="446"/>
      <point x="802" y="446" type="curve" smooth="yes"/>
      <point x="634" y="446" type="line"/>
      <point x="634" y="698" type="line"/>
      <point x="169" y="698" type="line"/>
      <point x="169" y="476" type="line" smooth="yes"/>
      <point x="169" y="264"/>
      <point x="145" y="181"/>
      <point x="103" y="135" type="curve"/>
      <point x="20" y="135" type="line"/>
    </contour>
    <contour>
      <point x="634" y="132" type="line"/>
      <point x="634" y="314" type="line"/>
      <point x="784" y="314" type="line" smooth="yes"/>
      <point x="829" y="314"/>
      <point x="857" y="290"/>
      <point x="857" y="245" type="curve" smooth="yes"/>
      <point x="857" y="201" type="line" smooth="yes"/>
      <point x="857" y="156"/>
      <point x="829" y="132"/>
      <point x="784" y="132" type="curve" smooth="yes"/>
    </contour>
  </outline>
</glyph>
<glyph name="uni040A" format="1">
  <advance width="1040"/>
  <unicode hex="040A"/>
  <outline>
    <contour>
      <point x="77" y="0" type="line"/>
      <point x="229" y="0" type="line"/>
      <point x="229" y="286" type="line"/>
      <point x="475" y="286" type="line"/>
      <point x="475" y="0" type="line"/>
      <point x="795" y="0" type="line" smooth="yes"/>
      <point x="925" y="0"/>
      <point x="1007" y="91"/>
      <point x="1007" y="223" type="curve" smooth="yes"/>
      <point x="1007" y="355"/>
      <point x="925" y="446"/>
      <point x="795" y="446" type="curve" smooth="yes" name="hr01"/>
      <point x="627" y="446" type="line"/>
      <point x="627" y="698" type="line"/>
      <point x="475" y="698" type="line"/>
      <point x="475" y="420" type="line" name="hr02"/>
      <point x="229" y="420" type="line"/>
      <point x="229" y="698" type="line"/>
      <point x="77" y="698" type="line"/>
    </contour>
    <contour>
      <point x="627" y="132" type="line"/>
      <point x="627" y="314" type="line" name="hr03"/>
      <point x="777" y="314" type="line" smooth="yes"/>
      <point x="822" y="314"/>
      <point x="850" y="290"/>
      <point x="850" y="245" type="curve" smooth="yes"/>
      <point x="850" y="201" type="line" smooth="yes"/>
      <point x="850" y="156"/>
      <point x="822" y="132"/>
      <point x="777" y="132" type="curve" smooth="yes"/>
    </contour>
  </outline>
</glyph>
<glyph name="uni040B" format="1">
  <advance width="817"/>
  <unicode hex="040B"/>
  <outline>
    <contour>
      <point x="216" y="0" type="line" name="hr00"/>
      <point x="368" y="0" type="line"/>
      <point x="368" y="296" type="line"/>
      <point x="397" y="308"/>
      <point x="434" y="314"/>
      <point x="492" y="314" type="curve" smooth="yes"/>
      <point x="573" y="314"/>
      <point x="611" y="274"/>
      <point x="611" y="195" type="curve" smooth="yes"/>
      <point x="611" y="0" type="line"/>
      <point x="763" y="0" type="line"/>
      <point x="763" y="189" type="line" smooth="yes"/>
      <point x="763" y="359"/>
      <point x="679" y="446"/>
      <point x="506" y="446" type="curve" smooth="yes"/>
      <point x="446" y="446"/>
      <point x="405" y="437"/>
      <point x="373" y="423" type="curve"/>
      <point x="368" y="423" type="line"/>
      <point x="368" y="563" type="line"/>
      <point x="557" y="563" type="line"/>
      <point x="557" y="698" type="line"/>
      <point x="27" y="698" type="line"/>
      <point x="27" y="563" type="line"/>
      <point x="216" y="563" type="line"/>
    </contour>
  </outline>
</glyph>
<glyph name="uni040F" format="1">
  <advance width="709"/>
  <unicode hex="040F"/>
  <outline>
    <contour>
      <point x="283" y="-150" type="line" name="hr00"/>
      <point x="426" y="-150" type="line"/>
      <point x="426" y="0" type="line"/>
      <point x="632" y="0" type="line"/>
      <point x="632" y="698" type="line"/>
      <point x="480" y="698" type="line"/>
      <point x="480" y="135" type="line"/>
      <point x="229" y="135" type="line"/>
      <point x="229" y="698" type="line"/>
      <point x="77" y="698" type="line"/>
      <point x="77" y="0" type="line"/>
      <point x="283" y="0" type="line"/>
    </contour>
  </outline>
</glyph>
<glyph name="uni0411" format="1">
  <advance width="657"/>
  <unicode hex="0411"/>
  <outline>
    <contour>
      <point x="77" y="0" type="line" name="hr00"/>
      <point x="407" y="0" type="line" smooth="yes"/>
      <point x="537" y="0"/>
      <point x="619" y="91"/>
      <point x="619" y="215" type="curve" smooth="yes"/>
      <point x="619" y="341"/>
      <point x="537" y="432"/>
      <point x="407" y="432" type="curve" smooth="yes"/>
      <point x="229" y="432" type="line"/>
      <point x="229" y="563" type="line"/>
      <point x="549" y="563" type="line"/>
      <point x="549" y="698" type="line"/>
      <point x="77" y="698" type="line"/>
    </contour>
    <contour>
      <point x="229" y="132" type="line"/>
      <point x="229" y="300" type="line"/>
      <point x="389" y="300" type="line" smooth="yes"/>
      <point x="434" y="300"/>
      <point x="462" y="276"/>
      <point x="462" y="231" type="curve" smooth="yes"/>
      <point x="462" y="201" type="line" smooth="yes"/>
      <point x="462" y="156"/>
      <point x="434" y="132"/>
      <point x="389" y="132" type="curve" smooth="yes"/>
    </contour>
  </outline>
</glyph>
<glyph name="uni0413" format="1">
  <advance width="514"/>
  <unicode hex="0413"/>
  <outline>
    <contour>
      <point x="77" y="0" type="line" name="hr00"/>
      <point x="229" y="0" type="line"/>
      <point x="229" y="563" type="line"/>
      <point x="487" y="563" type="line"/>
      <point x="487" y="698" type="line"/>
      <point x="77" y="698" type="line"/>
    </contour>
    <contour>
      <point x="282" y="698" type="move" name="top"/>
    </contour>
  </outline>
</glyph>
<glyph name="uni0414" format="1">
  <advance width="815"/>
  <unicode hex="0414"/>
  <outline>
    <contour>
      <point x="17" y="-150" type="line"/>
      <point x="160" y="-150" type="line"/>
      <point x="160" y="0" type="line"/>
      <point x="645" y="0" type="line"/>
      <point x="645" y="-150" type="line"/>
      <point x="788" y="-150" type="line"/>
      <point x="788" y="135" type="line"/>
      <point x="675" y="135" type="line" name="hr01"/>
      <point x="675" y="698" type="line"/>
      <point x="174" y="698" type="line"/>
      <point x="174" y="476" type="line" smooth="yes"/>
      <point x="174" y="268"/>
      <point x="139" y="179"/>
      <point x="93" y="135" type="curve"/>
      <point x="17" y="135" type="line"/>
    </contour>
    <contour>
      <point x="265" y="135" type="line"/>
      <point x="265" y="138" type="line"/>
      <point x="301" y="190"/>
      <point x="322" y="272"/>
      <point x="322" y="455" type="curve" smooth="yes"/>
      <point x="322" y="564" type="line"/>
      <point x="523" y="564" type="line"/>
      <point x="523" y="135" type="line"/>
    </contour>
  </outline>
</glyph>
<glyph name="uni0417" format="1">
  <advance width="608"/>
  <unicode hex="0417"/>
  <outline>
    <contour>
      <point x="285" y="-12" type="curve" smooth="yes"/>
      <point x="459" y="-12"/>
      <point x="568" y="77"/>
      <point x="568" y="207" type="curve" smooth="yes"/>
      <point x="568" y="308"/>
      <point x="491" y="357"/>
      <point x="411" y="361" type="curve"/>
      <point x="411" y="367" type="line"/>
      <point x="491" y="375"/>
      <point x="556" y="420"/>
      <point x="556" y="515" type="curve" smooth="yes" name="hr01"/>
      <point x="556" y="635"/>
      <point x="455" y="710"/>
      <point x="290" y="710" type="curve" smooth="yes"/>
      <point x="194" y="710"/>
      <point x="107" y="672"/>
      <point x="49" y="608" type="curve"/>
      <point x="141" y="512" type="line"/>
      <point x="177" y="552"/>
      <point x="235" y="575"/>
      <point x="290" y="575" type="curve" smooth="yes"/>
      <point x="360" y="575"/>
      <point x="395" y="550"/>
      <point x="395" y="502" type="curve" smooth="yes"/>
      <point x="395" y="497" type="line" smooth="yes"/>
      <point x="395" y="445"/>
      <point x="364" y="420"/>
      <point x="302" y="420" type="curve" smooth="yes"/>
      <point x="187" y="420" type="line"/>
      <point x="187" y="286" type="line"/>
      <point x="308" y="286" type="line" smooth="yes"/>
      <point x="376" y="286"/>
      <point x="407" y="264"/>
      <point x="407" y="211" type="curve" smooth="yes" name="hr02"/>
      <point x="407" y="203" type="line" smooth="yes"/>
      <point x="407" y="153"/>
      <point x="365" y="123"/>
      <point x="285" y="123" type="curve" smooth="yes"/>
      <point x="223" y="123"/>
      <point x="171" y="148"/>
      <point x="129" y="192" type="curve"/>
      <point x="29" y="91" type="line"/>
      <point x="97" y="21"/>
      <point x="183" y="-12"/>
    </contour>
    <contour>
      <point x="290" y="698" type="move" name="top"/>
    </contour>
  </outline>
</glyph>
<glyph name="uni0418" format="1">
  <advance width="724"/>
  <unicode hex="0418"/>
  <outline>
    <contour>
      <point x="77" y="0" type="line" name="hr00"/>
      <point x="213" y="0" type="line"/>
      <point x="443" y="355" type="line"/>
      <point x="512" y="488" type="line"/>
      <point x="515" y="488" type="line"/>
      <point x="499" y="341" type="line"/>
      <point x="499" y="0" type="line"/>
      <point x="647" y="0" type="line"/>
      <point x="647" y="698" type="line"/>
      <point x="511" y="698" type="line"/>
      <point x="281" y="343" type="line"/>
      <point x="212" y="210" type="line"/>
      <point x="209" y="210" type="line"/>
      <point x="225" y="357" type="line"/>
      <point x="225" y="698" type="line"/>
      <point x="77" y="698" type="line"/>
    </contour>
    <contour>
      <point x="364" y="698" type="move" name="top"/>
    </contour>
  </outline>
</glyph>
<glyph name="uni041A" format="1">
  <advance width="675"/>
  <unicode hex="041A"/>
  <outline>
    <contour>
      <point x="77" y="0" type="line" name="hr00"/>
      <point x="229" y="0" type="line"/>
      <point x="229" y="286" type="line"/>
      <point x="330" y="286" type="line"/>
      <point x="434" y="85" type="line" smooth="yes"/>
      <point x="468" y="20"/>
      <point x="500" y="0"/>
      <point x="556" y="0" type="curve" smooth="yes"/>
      <point x="635" y="0" type="line"/>
      <point x="635" y="135" type="line"/>
      <point x="573" y="135" type="line"/>
      <point x="491" y="294" type="line" smooth="yes"/>
      <point x="472" y="332"/>
      <point x="448" y="351"/>
      <point x="414" y="357" type="curve"/>
      <point x="414" y="363" type="line"/>
      <point x="446" y="373"/>
      <point x="468" y="391"/>
      <point x="487" y="427" type="curve" smooth="yes"/>
      <point x="559" y="563" type="line"/>
      <point x="621" y="563" type="line"/>
      <point x="621" y="698" type="line"/>
      <point x="559" y="698" type="line" smooth="yes"/>
      <point x="500" y="698"/>
      <point x="464" y="671"/>
      <point x="434" y="615" type="curve" smooth="yes"/>
      <point x="330" y="420" type="line"/>
      <point x="229" y="420" type="line"/>
      <point x="229" y="698" type="line"/>
      <point x="77" y="698" type="line"/>
    </contour>
    <contour>
      <point x="354" y="698" type="move" name="top"/>
    </contour>
  </outline>
</glyph>
<glyph name="uni041B" format="1">
  <advance width="739"/>
  <unicode hex="041B"/>
  <outline>
    <contour>
      <point x="20" y="-6" type="line" name="hr00"/>
      <point x="72" y="-6" type="line" smooth="yes"/>
      <point x="142" y="-6"/>
      <point x="186" y="10"/>
      <point x="227" y="51" type="curve" smooth="yes"/>
      <point x="279" y="103"/>
      <point x="317" y="209"/>
      <point x="317" y="455" type="curve" smooth="yes"/>
      <point x="317" y="563" type="line"/>
      <point x="510" y="563" type="line"/>
      <point x="510" y="0" type="line"/>
      <point x="662" y="0" type="line"/>
      <point x="662" y="698" type="line"/>
      <point x="169" y="698" type="line"/>
      <point x="169" y="476" type="line" smooth="yes"/>
      <point x="169" y="264"/>
      <point x="145" y="181"/>
      <point x="103" y="135" type="curve"/>
      <point x="20" y="135" type="line"/>
    </contour>
  </outline>
</glyph>
<glyph name="uni041F" format="1">
  <advance width="709"/>
  <unicode hex="041F"/>
  <outline>
    <contour>
      <point x="77" y="0" type="line" name="hr00"/>
      <point x="229" y="0" type="line"/>
      <point x="229" y="563" type="line"/>
      <point x="480" y="563" type="line"/>
      <point x="480" y="0" type="line"/>
      <point x="632" y="0" type="line"/>
      <point x="632" y="698" type="line"/>
      <point x="77" y="698" type="line"/>
    </contour>
  </outline>
</glyph>
<glyph name="uni0423" format="1">
  <advance width="631"/>
  <unicode hex="0423"/>
  <outline>
    <contour>
      <point x="119" y="0" type="line" name="hr00"/>
      <point x="219" y="0" type="line" smooth="yes"/>
      <point x="302" y="0"/>
      <point x="341" y="26"/>
      <point x="371" y="98" type="curve" smooth="yes"/>
      <point x="617" y="698" type="line"/>
      <point x="468" y="698" type="line"/>
      <point x="382" y="482" type="line"/>
      <point x="331" y="342" type="line"/>
      <point x="328" y="342" type="line"/>
      <point x="270" y="481" type="line"/>
      <point x="172" y="698" type="line"/>
      <point x="12" y="698" type="line"/>
      <point x="256" y="173" type="line"/>
      <point x="241" y="135" type="line"/>
      <point x="119" y="135" type="line"/>
    </contour>
    <contour>
      <point x="318" y="698" type="move" name="top"/>
    </contour>
  </outline>
</glyph>
<glyph name="uni0424" format="1">
  <advance width="904"/>
  <unicode hex="0424"/>
  <outline>
    <contour>
      <point x="375" y="-44" type="line" name="hr00"/>
      <point x="529" y="-44" type="line"/>
      <point x="529" y="46" type="line"/>
      <point x="570" y="46" type="line" smooth="yes"/>
      <point x="747" y="46"/>
      <point x="869" y="177"/>
      <point x="869" y="347" type="curve" smooth="yes"/>
      <point x="869" y="517"/>
      <point x="751" y="650"/>
      <point x="570" y="650" type="curve" smooth="yes"/>
      <point x="529" y="650" type="line"/>
      <point x="529" y="740" type="line"/>
      <point x="375" y="740" type="line"/>
      <point x="375" y="650" type="line"/>
      <point x="334" y="650" type="line" smooth="yes"/>
      <point x="153" y="650"/>
      <point x="35" y="517"/>
      <point x="35" y="347" type="curve" smooth="yes"/>
      <point x="35" y="177"/>
      <point x="157" y="46"/>
      <point x="334" y="46" type="curve" smooth="yes"/>
      <point x="375" y="46" type="line"/>
    </contour>
    <contour>
      <point x="334" y="171" type="line" smooth="yes"/>
      <point x="238" y="171"/>
      <point x="191" y="233"/>
      <point x="191" y="317" type="curve" smooth="yes"/>
      <point x="191" y="379" type="line" smooth="yes"/>
      <point x="191" y="461"/>
      <point x="234" y="525"/>
      <point x="334" y="525" type="curve" smooth="yes"/>
      <point x="378" y="525" type="line"/>
      <point x="378" y="171" type="line"/>
    </contour>
    <contour>
      <point x="526" y="171" type="line"/>
      <point x="526" y="525" type="line"/>
      <point x="570" y="525" type="line" smooth="yes"/>
      <point x="670" y="525"/>
      <point x="713" y="461"/>
      <point x="713" y="379" type="curve" smooth="yes"/>
      <point x="713" y="317" type="line" smooth="yes"/>
      <point x="713" y="233"/>
      <point x="666" y="171"/>
      <point x="570" y="171" type="curve" smooth="yes"/>
    </contour>
  </outline>
</glyph>
<glyph name="uni0426" format="1">
  <advance width="772"/>
  <unicode hex="0426"/>
  <outline>
    <contour>
      <point x="602" y="-150" type="line"/>
      <point x="745" y="-150" type="line"/>
      <point x="745" y="135" type="line"/>
      <point x="632" y="135" type="line" name="hr01"/>
      <point x="632" y="698" type="line"/>
      <point x="480" y="698" type="line"/>
      <point x="480" y="135" type="line"/>
      <point x="229" y="135" type="line"/>
      <point x="229" y="698" type="line"/>
      <point x="77" y="698" type="line"/>
      <point x="77" y="0" type="line"/>
      <point x="602" y="0" type="line" name="hr02"/>
    </contour>
  </outline>
</glyph>
<glyph name="uni0427" format="1">
  <advance width="678"/>
  <unicode hex="0427"/>
  <outline>
    <contour>
      <point x="449" y="0" type="line" name="hr00"/>
      <point x="601" y="0" type="line"/>
      <point x="601" y="698" type="line"/>
      <point x="449" y="698" type="line"/>
      <point x="449" y="374" type="line"/>
      <point x="420" y="362"/>
      <point x="383" y="356"/>
      <point x="325" y="356" type="curve" smooth="yes"/>
      <point x="244" y="356"/>
      <point x="206" y="396"/>
      <point x="206" y="475" type="curve" smooth="yes"/>
      <point x="206" y="698" type="line"/>
      <point x="54" y="698" type="line"/>
      <point x="54" y="481" type="line" smooth="yes"/>
      <point x="54" y="311"/>
      <point x="138" y="224"/>
      <point x="311" y="224" type="curve" smooth="yes"/>
      <point x="371" y="224"/>
      <point x="412" y="233"/>
      <point x="444" y="247" type="curve"/>
      <point x="449" y="247" type="line"/>
    </contour>
    <contour>
      <point x="327" y="698" type="move" name="top"/>
    </contour>
  </outline>
</glyph>
<glyph name="uni0428" format="1">
  <advance width="1030"/>
  <unicode hex="0428"/>
  <outline>
    <contour>
      <point x="77" y="0" type="line" name="hr00"/>
      <point x="953" y="0" type="line"/>
      <point x="953" y="698" type="line"/>
      <point x="801" y="698" type="line"/>
      <point x="801" y="135" type="line"/>
      <point x="592" y="135" type="line"/>
      <point x="592" y="698" type="line"/>
      <point x="440" y="698" type="line"/>
      <point x="440" y="135" type="line"/>
      <point x="229" y="135" type="line"/>
      <point x="229" y="698" type="line"/>
      <point x="77" y="698" type="line"/>
    </contour>
  </outline>
</glyph>
<glyph name="uni0429" format="1">
  <advance width="1093"/>
  <unicode hex="0429"/>
  <outline>
    <contour>
      <point x="923" y="-150" type="line"/>
      <point x="1066" y="-150" type="line"/>
      <point x="1066" y="135" type="line"/>
      <point x="953" y="135" type="line" name="hr01"/>
      <point x="953" y="698" type="line"/>
      <point x="801" y="698" type="line"/>
      <point x="801" y="135" type="line"/>
      <point x="591" y="135" type="line"/>
      <point x="591" y="698" type="line"/>
      <point x="439" y="698" type="line"/>
      <point x="439" y="135" type="line"/>
      <point x="229" y="135" type="line"/>
      <point x="229" y="698" type="line"/>
      <point x="77" y="698" type="line"/>
      <point x="77" y="0" type="line"/>
      <point x="923" y="0" type="line" name="hr02"/>
    </contour>
  </outline>
</glyph>
<glyph name="uni042A" format="1">
  <advance width="758"/>
  <unicode hex="042A"/>
  <outline>
    <contour>
      <point x="173" y="0" type="line" name="hr00"/>
      <point x="513" y="0" type="line" smooth="yes"/>
      <point x="643" y="0"/>
      <point x="725" y="91"/>
      <point x="725" y="223" type="curve" smooth="yes"/>
      <point x="725" y="355"/>
      <point x="643" y="446"/>
      <point x="513" y="446" type="curve" smooth="yes"/>
      <point x="325" y="446" type="line"/>
      <point x="325" y="698" type="line"/>
      <point x="22" y="698" type="line"/>
      <point x="22" y="563" type="line"/>
      <point x="173" y="563" type="line"/>
    </contour>
    <contour>
      <point x="325" y="132" type="line"/>
      <point x="325" y="314" type="line"/>
      <point x="495" y="314" type="line" smooth="yes"/>
      <point x="540" y="314"/>
      <point x="568" y="290"/>
      <point x="568" y="245" type="curve" smooth="yes"/>
      <point x="568" y="201" type="line" smooth="yes"/>
      <point x="568" y="156"/>
      <point x="540" y="132"/>
      <point x="495" y="132" type="curve" smooth="yes"/>
    </contour>
  </outline>
</glyph>
<glyph name="uni042B" format="1">
  <advance width="933"/>
  <unicode hex="042B"/>
  <outline>
    <contour>
      <point x="77" y="0" type="line" name="hr00"/>
      <point x="407" y="0" type="line" smooth="yes"/>
      <point x="537" y="0"/>
      <point x="619" y="91"/>
      <point x="619" y="223" type="curve" smooth="yes"/>
      <point x="619" y="355"/>
      <point x="537" y="446"/>
      <point x="407" y="446" type="curve" smooth="yes"/>
      <point x="229" y="446" type="line"/>
      <point x="229" y="698" type="line"/>
      <point x="77" y="698" type="line"/>
    </contour>
    <contour>
      <point x="229" y="132" type="line"/>
      <point x="229" y="314" type="line"/>
      <point x="389" y="314" type="line" smooth="yes"/>
      <point x="434" y="314"/>
      <point x="462" y="290"/>
      <point x="462" y="245" type="curve" smooth="yes"/>
      <point x="462" y="201" type="line" smooth="yes"/>
      <point x="462" y="156"/>
      <point x="434" y="132"/>
      <point x="389" y="132" type="curve" smooth="yes"/>
    </contour>
    <contour>
      <point x="704" y="0" type="line"/>
      <point x="856" y="0" type="line"/>
      <point x="856" y="698" type="line"/>
      <point x="704" y="698" type="line"/>
    </contour>
    <contour>
      <point x="467" y="698" type="move" name="top"/>
    </contour>
  </outline>
</glyph>
<glyph name="uni042C" format="1">
  <advance width="662"/>
  <unicode hex="042C"/>
  <outline>
    <contour>
      <point x="77" y="0" type="line" name="hr00"/>
      <point x="417" y="0" type="line" smooth="yes"/>
      <point x="547" y="0"/>
      <point x="629" y="91"/>
      <point x="629" y="223" type="curve" smooth="yes"/>
      <point x="629" y="355"/>
      <point x="547" y="446"/>
      <point x="417" y="446" type="curve" smooth="yes"/>
      <point x="229" y="446" type="line"/>
      <point x="229" y="698" type="line"/>
      <point x="77" y="698" type="line"/>
    </contour>
    <contour>
      <point x="229" y="132" type="line"/>
      <point x="229" y="314" type="line"/>
      <point x="399" y="314" type="line" smooth="yes"/>
      <point x="444" y="314"/>
      <point x="472" y="290"/>
      <point x="472" y="245" type="curve" smooth="yes"/>
      <point x="472" y="201" type="line" smooth="yes"/>
      <point x="472" y="156"/>
      <point x="444" y="132"/>
      <point x="399" y="132" type="curve" smooth="yes"/>
    </contour>
  </outline>
</glyph>
<glyph name="uni042D" format="1">
  <advance width="671"/>
  <unicode hex="042D"/>
  <outline>
    <contour>
      <point x="229" y="286" type="line" name="hr00"/>
      <point x="460" y="286" type="line"/>
      <point x="460" y="278" type="line" smooth="yes"/>
      <point x="460" y="177"/>
      <point x="398" y="123"/>
      <point x="303" y="123" type="curve" smooth="yes"/>
      <point x="218" y="123"/>
      <point x="176" y="165"/>
      <point x="154" y="223" type="curve"/>
      <point x="30" y="147" type="line"/>
      <point x="80" y="47"/>
      <point x="163" y="-12"/>
      <point x="303" y="-12" type="curve" smooth="yes"/>
      <point x="501" y="-12"/>
      <point x="621" y="118"/>
      <point x="621" y="354" type="curve" smooth="yes"/>
      <point x="621" y="590"/>
      <point x="501" y="710"/>
      <point x="303" y="710" type="curve" smooth="yes"/>
      <point x="169" y="710"/>
      <point x="92" y="656"/>
      <point x="34" y="554" type="curve"/>
      <point x="161" y="482" type="line"/>
      <point x="185" y="538"/>
      <point x="218" y="575"/>
      <point x="303" y="575" type="curve" smooth="yes"/>
      <point x="398" y="575"/>
      <point x="460" y="520"/>
      <point x="460" y="420" type="curve"/>
      <point x="229" y="420" type="line"/>
    </contour>
  </outline>
</glyph>
<glyph name="uni042E" format="1">
  <advance width="1016"/>
  <unicode hex="042E"/>
  <outline>
    <contour>
      <point x="659" y="-12" type="curve" smooth="yes"/>
      <point x="844" y="-12"/>
      <point x="966" y="112"/>
      <point x="966" y="349" type="curve" smooth="yes"/>
      <point x="966" y="586"/>
      <point x="844" y="710"/>
      <point x="659" y="710" type="curve" smooth="yes"/>
      <point x="495" y="710"/>
      <point x="376" y="610"/>
      <point x="356" y="420" type="curve"/>
      <point x="229" y="420" type="line"/>
      <point x="229" y="698" type="line" name="hr01"/>
      <point x="77" y="698" type="line"/>
      <point x="77" y="0" type="line"/>
      <point x="229" y="0" type="line"/>
      <point x="229" y="286" type="line"/>
      <point x="354" y="286" type="line"/>
      <point x="376" y="91"/>
      <point x="489" y="-12"/>
    </contour>
    <contour>
      <point x="659" y="123" type="curve" smooth="yes"/>
      <point x="568" y="123"/>
      <point x="513" y="186"/>
      <point x="513" y="297" type="curve" smooth="yes"/>
      <point x="513" y="401" type="line" smooth="yes"/>
      <point x="513" y="512"/>
      <point x="568" y="575"/>
      <point x="659" y="575" type="curve" smooth="yes"/>
      <point x="750" y="575"/>
      <point x="805" y="512"/>
      <point x="805" y="401" type="curve" smooth="yes"/>
      <point x="805" y="297" type="line" smooth="yes"/>
      <point x="805" y="186"/>
      <point x="750" y="123"/>
    </contour>
  </outline>
</glyph>
<glyph name="uni042F" format="1">
  <advance width="678"/>
  <unicode hex="042F"/>
  <outline>
    <contour>
      <point x="42" y="0" type="line" name="hr00"/>
      <point x="116" y="0" type="line" smooth="yes"/>
      <point x="170" y="0"/>
      <point x="202" y="13"/>
      <point x="240" y="73" type="curve" smooth="yes"/>
      <point x="357" y="256" type="line"/>
      <point x="449" y="256" type="line"/>
      <point x="449" y="0" type="line"/>
      <point x="601" y="0" type="line"/>
      <point x="601" y="698" type="line"/>
      <point x="270" y="698" type="line" smooth="yes"/>
      <point x="141" y="698"/>
      <point x="59" y="608"/>
      <point x="59" y="475" type="curve" smooth="yes"/>
      <point x="59" y="360"/>
      <point x="127" y="286"/>
      <point x="229" y="276" type="curve"/>
      <point x="229" y="270" type="line"/>
      <point x="193" y="264"/>
      <point x="177" y="249"/>
      <point x="161" y="224" type="curve" smooth="yes"/>
      <point x="104" y="135" type="line"/>
      <point x="42" y="135" type="line"/>
    </contour>
    <contour>
      <point x="289" y="384" type="line" smooth="yes"/>
      <point x="244" y="384"/>
      <point x="216" y="408"/>
      <point x="216" y="454" type="curve" smooth="yes"/>
      <point x="216" y="497" type="line" smooth="yes"/>
      <point x="216" y="542"/>
      <point x="244" y="566"/>
      <point x="289" y="566" type="curve" smooth="yes"/>
      <point x="449" y="566" type="line"/>
      <point x="449" y="384" type="line"/>
    </contour>
  </outline>
</glyph>
<glyph name="uni0431" format="1">
  <advance width="567"/>
  <unicode hex="0431"/>
  <outline>
    <contour>
      <point x="286" y="-12" type="curve" smooth="yes" name="hr00"/>
      <point x="440" y="-12"/>
      <point x="531" y="93"/>
      <point x="531" y="263" type="curve" smooth="yes"/>
      <point x="531" y="417"/>
      <point x="446" y="510"/>
      <point x="336" y="510" type="curve" smooth="yes"/>
      <point x="262" y="510"/>
      <point x="221" y="475"/>
      <point x="199" y="407" type="curve"/>
      <point x="194" y="407" type="line"/>
      <point x="198" y="541"/>
      <point x="227" y="583"/>
      <point x="325" y="593" type="curve" smooth="yes"/>
      <point x="496" y="610" type="line"/>
      <point x="496" y="752" type="line"/>
      <point x="326" y="735" type="line" smooth="yes"/>
      <point x="128" y="715"/>
      <point x="40" y="591"/>
      <point x="40" y="325" type="curve" smooth="yes"/>
      <point x="40" y="91"/>
      <point x="131" y="-12"/>
    </contour>
    <contour>
      <point x="286" y="105" type="curve" smooth="yes"/>
      <point x="228" y="105"/>
      <point x="194" y="143"/>
      <point x="194" y="209" type="curve" smooth="yes"/>
      <point x="194" y="289" type="line" smooth="yes"/>
      <point x="194" y="355"/>
      <point x="228" y="393"/>
      <point x="286" y="393" type="curve" smooth="yes"/>
      <point x="344" y="393"/>
      <point x="378" y="355"/>
      <point x="378" y="289" type="curve" smooth="yes"/>
      <point x="378" y="209" type="line" smooth="yes"/>
      <point x="378" y="143"/>
      <point x="344" y="105"/>
    </contour>
  </outline>
</glyph>
<glyph name="uni0432" format="1">
  <advance width="576"/>
  <unicode hex="0432"/>
  <outline>
    <contour>
      <point x="69" y="0" type="line"/>
      <point x="370" y="0" type="line" smooth="yes"/>
      <point x="474" y="0"/>
      <point x="536" y="59"/>
      <point x="536" y="152" type="curve" smooth="yes"/>
      <point x="536" y="223"/>
      <point x="491" y="265"/>
      <point x="405" y="273" type="curve"/>
      <point x="405" y="278" type="line"/>
      <point x="481" y="288"/>
      <point x="516" y="326"/>
      <point x="516" y="393" type="curve" smooth="yes" name="hr01"/>
      <point x="516" y="472"/>
      <point x="464" y="525"/>
      <point x="368" y="525" type="curve" smooth="yes"/>
      <point x="69" y="525" type="line"/>
    </contour>
    <contour>
      <point x="213" y="105" type="line"/>
      <point x="213" y="221" type="line"/>
      <point x="343" y="221" type="line" smooth="yes"/>
      <point x="370" y="221"/>
      <point x="387" y="205"/>
      <point x="387" y="178" type="curve" smooth="yes" name="hr02"/>
      <point x="387" y="147" type="line" smooth="yes"/>
      <point x="387" y="120"/>
      <point x="370" y="105"/>
      <point x="343" y="105" type="curve" smooth="yes"/>
    </contour>
    <contour>
      <point x="213" y="309" type="line"/>
      <point x="213" y="420" type="line"/>
      <point x="325" y="420" type="line" smooth="yes"/>
      <point x="351" y="420"/>
      <point x="367" y="404"/>
      <point x="367" y="378" type="curve" smooth="yes" name="hr03"/>
      <point x="367" y="351" type="line" smooth="yes"/>
      <point x="367" y="325"/>
      <point x="351" y="309"/>
      <point x="325" y="309" type="curve" smooth="yes"/>
    </contour>
  </outline>
</glyph>
<glyph name="uni0433" format="1">
  <advance width="444"/>
  <unicode hex="0433"/>
  <outline>
    <contour>
      <point x="69" y="0" type="line" name="hr00"/>
      <point x="217" y="0" type="line"/>
      <point x="217" y="410" type="line"/>
      <point x="424" y="410" type="line"/>
      <point x="424" y="525" type="line"/>
      <point x="69" y="525" type="line"/>
    </contour>
    <contour>
      <point x="238" y="540" type="move" name="top"/>
    </contour>
  </outline>
</glyph>
